<ttFont>
          <CharString index="0">
            21 320 callsubr
            -34 callgsubr
            29 39 19 27 25 hvcurveto
            -106 callsubr
            return
          </CharString>
          <CharString index="1">
            -29 -105 callgsubr
            -5 -62 callgsubr
            return
          </CharString>
          <CharString index="2">
            -106 callsubr
            -102 callsubr
            return
          </CharString>
          <CharString index="3">
            180 43 rmoveto
            -41 -21 21 35 45 32 21 59 4 hvcurveto
            70 7 rlineto
            -98 vlineto
            -21 -25 -39 -14 -35 hhcurveto
            -28 -51 rmoveto
            51 48 21 33 31 hvcurveto
            -34 8 23 -18 35 hhcurveto
            23 34 9 4 13 hvcurveto
            34 vlineto
            -41 4 rlineto
            -15 1 -7 7 16 vvcurveto
            205 vlineto
            101 -48 48 -97 -77 -66 -30 -57 -20 vhcurveto
            19 -18 rlineto
            33 35 41 14 46 hhcurveto
            62 29 -26 -76 hvcurveto
            -49 vlineto
            -83 -7 rlineto
            -75 -6 -86 -24 -85 vvcurveto
            -65 50 -35 67 vhcurveto
            return
          </CharString>
          <CharString index="4">
            379 568 rmoveto
            -38 vlineto
            63 122 callgsubr
            -8 -13 vvcurveto
            -291 vlineto
            -111 -40 -61 -101 -85 -54 46 131 vhcurveto
            285 280 callsubr
            12 2 vhcurveto
            64 12 rlineto
            38 -226 -38 vlineto
            42 -10 rlineto
            12 -3 301 callsubr
            -278 vlineto
            -152 64 -74 144 134 78 65 152 vhcurveto
            -45 callsubr
            vlineto
            return
          </CharString>
          <CharString index="5">
            383 vlineto
            -64 25 -6 -6 rlineto
            return
          </CharString>
          <CharString index="6">
            -19 21 25 -10 27 hhcurveto
            14 20 3 9 22 hvcurveto
            -75 vlineto
            -56 9 -29 20 4 callsubr
            24 hvcurveto
            -29 63 rlineto
            -9 hlineto
            -42 -86 callsubr
            -5 -5 -3 hhcurveto
            -7 -5 -62 callgsubr
            383 vlineto
            -65 131 callgsubr
            -28 -22 -29 -13 -30 hhcurveto
            -14 -15 3 8 -15 hvcurveto
            1 6 0 7 7 vvcurveto
            return
          </CharString>
          <CharString index="7">
            451 282 rmoveto
            39 -6 40 -9 31 vhcurveto
            -62 22 -6 -6 rlineto
            9 -39 5 -44 -33 vvcurveto
            -109 -56 -42 -58 -36 -35 17 30 -26 vhcurveto
            79 24 58 61 74 vvcurveto
            45 -21 41 -32 29 vhcurveto
            28 -31 -44 20 -49 hhcurveto
            -40 -41 -13 -25 -29 hvcurveto
            40 -58 26 callgsubr
            26 33 39 12 29 hhcurveto
            45 28 -27 -48 hvcurveto
            return
          </CharString>
          <CharString index="8">
            rmoveto
            38 1 -24 28 -31 hhcurveto
            -24 -17 -16 -23 -17 10 -9 8 -6 hvcurveto
            7 -4 9 -4 -17 vvcurveto
            -20 -18 -19 -18 -15 vhcurveto
            20 -22 rlineto
            41 21 36 37 48 vvcurveto
            endchar
          </CharString>
          <CharString index="9">
            7 -29 21 320 callsubr
            -34 callgsubr
            29 39 19 27 25 hvcurveto
            return
          </CharString>
          <CharString index="10">
            178 411 rmoveto
            -11 12 -42 -1 -52 -6 -43 -13 rlinecurve
            -94 callsubr
            return
          </CharString>
          <CharString index="11">
            424 151 rmoveto
            93 -76 41 -79 38 vhcurveto
            -86 41 -48 23 66 vvcurveto
            54 33 31 63 35 30 -11 -13 16 vhcurveto
            10 -8 3 -9 3 -10 14 -74 rcurveline
            47 hlineto
            6 42 3 45 -4 48 rrcurveto
            18 -38 -58 12 -53 hhcurveto
            -123 -63 -63 -86 -99 84 -40 71 -33 hvcurveto
            76 -35 52 -25 -71 vvcurveto
            -60 -38 -38 -71 -45 -38 19 20 -19 vhcurveto
            -9 9 -2 8 -2 9 -14 85 rcurveline
            -48 hlineto
            return
          </CharString>
          <CharString index="12">
            -83 callsubr
            -371 vlineto
            -56 -98 callsubr
            return
          </CharString>
          <CharString index="13">
            -96 callgsubr
            206 37 vlineto
            -44 7 16 callgsubr
            return
          </CharString>
          <CharString index="14">
            63 12 17 43 hvcurveto
            7 43 3 48 -1 39 -47 5 rcurveline
            -25 -75 -4 -12 300 callgsubr
            -13 -22 -33 -9 -32 hhcurveto
            -118 -47 105 152 174 63 74 101 35 35 -9 -10 16 hvcurveto
            11 -6 5 -8 3 -11 17 -82 rcurveline
            47 hlineto
            7 48 3 50 -2 42 rrcurveto
            19 -50 -62 8 -47 hhcurveto
            -167 -107 -101 -202 return
          </CharString>
          <CharString index="15">
            -3 -11 -8 -5 -11 -3 rlinecurve
            -44 10 callgsubr
            189 37 vlineto
            -72 14 40 123 rlineto
            219 hlineto
            43 -123 -73 -14 rlineto
            -37 216 37 vlineto
            -42 11 -11 3 -7 5 -4 11 rlinecurve
            return
          </CharString>
          <CharString index="16">
            -56 -106 callgsubr
            return
          </CharString>
          <CharString index="17">
            -48 19 -47 14 49 vvcurveto
            42 31 19 43 -1 vhcurveto
            23 -1 17 -6 11 -6 13 -8 4 -8 3 -13 12 -51 rcurveline
            39 hlineto
            7 36 2 36 -1 35 rrcurveto
            13 -31 -49 11 -43 hhcurveto
            -91 -63 -41 -79 -67 46 -27 66 -27 hvcurveto
            72 -30 40 -14 -47 vvcurveto
            -39 -26 -25 -51 vhcurveto
            return
          </CharString>
          <CharString index="18">
            90 0 37 213 40 243 35 -35 41 hstemhm
            117 80 200 86 hintmask 11011100
            197 528 rmoveto
            2 13 29 3 29 hhcurveto
            99 30 -42 -73 -88 -43 -39 -62 -1 hvcurveto
            -16 -47 -1 2 -32 hvcurveto
            82 -291 rmoveto
            37 vlineto
            -61 11 rlineto
            -14 3 -7 6 13 vvcurveto
            180 94 vlineto
            17 -18 16 -30 18 -37 36 -77 rcurveline
            -54 26 16 -34 23 hhcurveto
            112 37 hlineto
            -40 9 -16 4 -8 4 -9 18 rlinecurve
            -54 106 -21 40 -19 26 -28 18 rlinecurve
            51 13 72 35 113 vvcurveto
            102 -56 49 -146 vhcurveto
            hintmask 11101100
            -49 -32 -6 -43 hhcurveto
            -117 -38 hlineto
            57 -11 rlineto
            13 -2 7 -7 -14 vvcurveto
            -426 -72 callgsubr
            -57 10 callgsubr
            vlineto
            return
          </CharString>
          <CharString index="19">
            40 202 rmoveto
            -122 62 -88 122 72 54 30 49 23 vhcurveto
            -22 19 rlineto
            -24 -23 -36 -20 -45 hhcurveto
            -77 -44 56 117 111 39 54 68 25 20 -7 -10 12 hvcurveto
            10 -8 2 -8 3 -14 16 -61 rcurveline
            40 hlineto
            6 38 4 47 -3 37 rrcurveto
            15 -29 -52 12 -46 hhcurveto
            -132 -69 -94 -129 hvcurveto
            return
          </CharString>
          <CharString index="20">
            402 75 rmoveto
            -4 -11 -6 -7 -11 -4 rrcurveto
            -6 -17 -28 -3 -35 hhcurveto
            -103 452 hlineto
            267 callsubr
            76 12 rlineto
            38 -253 -38 vlineto
            58 -11 23 callgsubr
            -426 vlineto
            -13 176 callsubr
            -10 rlineto
            -37 419 vlineto
            12 54 3 62 1 52 -41 5 rcurveline
            return
          </CharString>
          <CharString index="21">
            -49 -55 callgsubr
            return
          </CharString>
          <CharString index="22">
            rmoveto
            28 -19 20 -28 -28 -19 -20 -28 -29 19 -19 28 28 345 callgsubr
            178 hmoveto
            28 -19 20 -28 -28 -19 -20 -28 -29 19 -19 28 28 345 callgsubr
            return
          </CharString>
          <CharString index="23">
            147 503 3 12 7 5 11 3 rlinecurve
            45 11 rlineto
            38 -189 -38 vlineto
            73 -14 -122 -432 -125 432 74 14 rlineto
            38 -212 -38 vlineto
            37 -11 11 -3 6 -6 4 -11 rlinecurve
            15 -43 -111 -376 -129 436 73 14 rlineto
            38 -218 -38 vlineto
            44 -11 11 -3 7 -6 3 -11 rlinecurve
            159 -503 rlineto
            76 hlineto
            110 381 rlineto
            return
          </CharString>
          <CharString index="24">
            36 rmoveto
            -105 callsubr
            return
          </CharString>
          <CharString index="25">
            51 -10 -16 276 callgsubr
            -5 162 callgsubr
            31 -14 46 return
          </CharString>
          <CharString index="26">
            hstem
            10 177 312 150 vstem
            169 -6 rmoveto
            68 hlineto
            93 328 98 -328 rlineto
            67 hlineto
            108 357 4 11 7 6 11 3 rlinecurve
            24 7 rlineto
            35 -150 -35 vlineto
            57 -11 -81 -291 -93 337 rlineto
            -73 hlineto
            -94 -339 -84 293 56 11 rlineto
            35 -177 -35 vlineto
            23 -7 11 -3 7 -5 3 -12 rlinecurve
            return
          </CharString>
          <CharString index="27">
            60 39 72 58 30 39 -53 46 rcurveline
            -133 -156 rlineto
            endchar
          </CharString>
          <CharString index="28">
            31 33 rmoveto
            15 -33 rlineto
            328 hlineto
            6 42 1 48 -2 42 -40 5 rcurveline
            -21 -72 -4 -13 -8 -5 -14 -2 rlinecurve
            -4 -23 -25 0 -28 hhcurveto
            -84 hlineto
            250 340 -15 32 rlineto
            -310 hlineto
            -5 -39 1 -48 4 -45 rrcurveto
            41 hlineto
            16 67 3 14 6 6 15 2 rlinecurve
            3 18 24 2 23 hhcurveto
            80 hlineto
            return
          </CharString>
          <CharString index="29">
            61 -50 49 -50 -55 vvcurveto
            -47 -34 -39 -59 -66 -71 50 77 -56 vhcurveto
            -29 -23 rlineto
            -108 65 86 -56 91 hhcurveto
            90 54 56 74 return
          </CharString>
          <CharString index="30">
            -34 -40 20 -54 hhcurveto
            -27 -28 -6 -7 -19 hvcurveto
            19 -67 rlineto
            5 20 21 4 17 hhcurveto
            38 33 -14 -43 23 hvcurveto
            47 -81 -2 -2 -89 54 rlineto
            24 -39 -33 9 -37 hhcurveto
            -43 -31 -12 -17 -29 hvcurveto
            34 -65 rlineto
            14 29 29 10 31 hhcurveto
            24 25 -5 -15 30 hvcurveto
            144 -65 rlineto
            return
          </CharString>
          <CharString index="31">
            rmoveto
            50 11 rlineto
            38 -227 -38 vlineto
            58 122 callgsubr
            -9 -12 vvcurveto
            -356 vlineto
            -132 -19 -44 -92 -65 vhcurveto
            19 -37 rlineto
            152 66 21 58 168 vvcurveto
            342 vlineto
            13 7 7 13 3 vhcurveto
            return
          </CharString>
          <CharString index="32">
            20 0 44 362 162 -42 42 hstemhm
            25 428 hintmask 10110000
            441 hmoveto
            8 48 6 70 -2 48 -43 5 rcurveline
            -30 -96 -3 -12 -7 -6 -10 -4 rlinecurve
            -6 -18 -29 -3 -34 hhcurveto
            -150 hlineto
            324 492 -16 32 rlineto
            -366 hlineto
            hintmask 11010000
            -8 -51 -4 -59 3 -52 rrcurveto
            45 hlineto
            hintmask 10110000
            25 91 4 11 6 6 11 4 rlinecurve
            7 17 29 1 34 hhcurveto
            119 hlineto
            -327 -493 19 -33 rlineto
            return
          </CharString>
          <CharString index="33">
            339 callsubr
            12 -2 7 -8 -12 vvcurveto
            -294 vlineto
            -107 -22 -40 -87 -55 vhcurveto
            18 -36 40 14 41 17 30 26 rlinecurve
            43 36 14 41 104 vvcurveto
            367 vlineto
            return
          </CharString>
          <CharString index="34">
            -8 -14 -31 hvcurveto
            30 -74 rlineto
            11 22 30 9 29 hhcurveto
            28 28 -9 -25 36 hvcurveto
            131 -95 return
          </CharString>
          <CharString index="35">
            -167 67 97 56 398 59 hstemhm
            26 116 152 67 -39 69 hintmask 11100100
            331 -151 rmoveto
            3 9 -28 55 rlineto
            -8 -17 -19 -5 -21 hhcurveto
            -49 -40 33 80 -13 hvcurveto
            -13 27 31 -3 28 hhcurveto
            101 57 58 72 52 -32 52 -56 29 hvcurveto
            hintmask 11101000
            38 26 20 36 39 vvcurveto
            43 -25 39 -32 27 vhcurveto
            26 -32 -38 14 -39 hhcurveto
            -39 -40 -13 -22 -31 hvcurveto
            36 -59 rlineto
            10 hlineto
            21 25 38 14 32 hhcurveto
            39 29 -21 -40 -48 -44 -50 -101 -16 hvcurveto
            -6 -6 24 -54 rlineto
            hintmask 11110100
            38 3 32 8 27 11 rrcurveto
            42 -22 16 -36 -30 vvcurveto
            -54 -44 -43 -71 -18 -24 3 10 -23 vhcurveto
            73 -4 -16 25 -26 hhcurveto
            -7 -12 -2 -15 -19 hvcurveto
            -6 -4 rlineto
            -20 -15 -6 -14 -12 vvcurveto
            -22 18 217 callgsubr
            55 -81 93 hhcurveto
            hintmask 11100100
            26 132 callgsubr
          </CharString>
          <CharString index="36">
            -12 338 callgsubr
            340 callgsubr
            55 -8 rlineto
            13 -2 7 -7 -13 vvcurveto
            -504 -72 callgsubr
            -53 -1 callsubr
            223 36 vlineto
            -53 8 187 callsubr
            return
          </CharString>
          <CharString index="37">
            1 -66 callsubr
            return
          </CharString>
          <CharString index="38">
            321 callgsubr
            vstem
            -100 callgsubr
            return
          </CharString>
          <CharString index="39">
            rmoveto
            103 102 113 -101 30 26 -112 144 -61 -6 -101 -141 rlineto
            endchar
          </CharString>
          <CharString index="40">
            -82 callsubr
            5 return
          </CharString>
          <CharString index="41">
            vhcurveto
            6 19 callgsubr
            return
          </CharString>
          <CharString index="42">
            54 vlineto
            73 28 23 63 1 vhcurveto
            22 31 -4 -7 27 hvcurveto
            17 51 rlineto
            18 -30 -31 12 -32 hhcurveto
            -83 -87 -84 -111 -1 hvcurveto
            -26 77 callgsubr
            return
          </CharString>
          <CharString index="43">
            335 314 callsubr
            55 rlineto
            -8 320 callgsubr
            -40 34 83 -14 hvcurveto
            -16 32 36 -5 30 hhcurveto
            90 56 48 67 return
          </CharString>
          <CharString index="44">
            rmoveto
            -30 -19 23 35 46 34 32 51 5 4 362 callgsubr
            15 -18 4 -21 -19 vvcurveto
            -49 -36 -28 -33 vhcurveto
            return
          </CharString>
          <CharString index="45">
            hhcurveto
            -45 -47 -18 -25 66 callgsubr
            25 28 37 19 38 hhcurveto
            49 24 -33 -45 return
          </CharString>
          <CharString index="46">
            38 -56 callgsubr
            return
          </CharString>
          <CharString index="47">
            131 0 36 233 46 218 35 -35 41 hstemhm
            117 81 278 87 hintmask 11011100
            45 269 rmoveto
            72 -200 hlineto
            -11 -6 -8 -12 -2 vhcurveto
            132 callsubr
            118 vlineto
            39 49 -5 32 hhcurveto
            174 -4 110 106 204 vvcurveto
            178 -85 95 -188 vhcurveto
            hintmask 11101100
            -45 -41 -6 -47 hhcurveto
            -116 -38 hlineto
            60 -12 rlineto
            10 -2 6 -8 -10 vvcurveto
            -183 -72 vlineto
            153 -272 rmoveto
            226 129 46 -129 vlineto
            hintmask 11011100
            213 vlineto
            1 17 26 4 31 hhcurveto
            138 66 -77 -169 -175 -69 -73 -121 -3 hvcurveto
            hintmask 11101100
            -26 -1 -40 3 -22 5 rrcurveto
            endchar
          </CharString>
          <CharString index="48">
            -8 53 338 42 -9 -20 246 301 callgsubr
            41 84 202 78 hintmask 11001110
            233 45 rmoveto
            -58 -50 36 127 hvcurveto
            134 1 54 41 69 hhcurveto
            31 30 -9 -10 17 hvcurveto
            -286 vlineto
            -20 -25 -32 -13 -37 hhcurveto
            -28 -53 rmoveto
            56 41 25 31 28 hvcurveto
            -31 9 19 -23 40 hhcurveto
            23 30 7 6 17 hvcurveto
            34 vlineto
            -42 4 rlineto
            -13 1 -8 5 18 vvcurveto
            hintmask 11010110
            573 vlineto
            hintmask 10101110
            -12 12 -41 71 callgsubr
            -154 vlineto
            hintmask 11001110
            5 -20 -27 4 -27 hhcurveto
            -126 -86 -74 -155 -144 75 -60 89 hvcurveto
            return
          </CharString>
          <CharString index="49">
            -63 29 82 -61 vhcurveto
            -29 -22 rlineto
            -104 61 84 -45 87 hhcurveto
            return
          </CharString>
          <CharString index="50">
            -12 61 122 60 280 -20 hstem
            82 66 167 69 vstem
            390 241 rmoveto
            16 -10 15 -28 17 vhcurveto
            -11 5 rlineto
            15 -22 -17 6 -15 hhcurveto
            -21 -17 -13 -24 -12 4 -14 8 -17 hvcurveto
            -2 -8 -10 -2 -10 hhcurveto
            -49 -36 39 53 73 62 40 77 11 hvcurveto
            6 8 -28 56 rlineto
            -103 -6 -80 -61 -89 vvcurveto
            -48 25 -46 36 -34 vhcurveto
            -33 35 47 -23 49 hhcurveto
            8 8 1 1 8 hvcurveto
            11 -17 6 -18 -18 vvcurveto
            -46 -39 -25 -50 -71 -63 48 75 -47 vhcurveto
            -29 -22 rlineto
            -103 52 84 -59 93 hhcurveto
            74 65 38 68 34 -17 31 -28 25 hvcurveto
            30 13 21 22 22 vvcurveto
            endchar
          </CharString>
          <CharString index="51">
            vlineto
            -56 -98 callsubr
            endchar
          </CharString>
          <CharString index="52">
            hhcurveto
            29 39 19 27 25 hvcurveto
            -106 callsubr
            endchar
          </CharString>
          <CharString index="53">
            50 -24 40 -30 29 vhcurveto
            28 -30 -39 21 -48 -62 callsubr
            return
          </CharString>
          <CharString index="54">
            145 rmoveto
            69 -60 35 -84 39 vhcurveto
            -74 34 -45 20 48 vvcurveto
            37 26 28 57 33 25 -10 -11 14 vhcurveto
            9 -7 4 -7 1 -7 13 -62 rcurveline
            47 1 6 37 2 38 -3 42 rlinecurve
            hintmask 11110110
            -28 13 -39 9 -39 3 rrcurveto
            83 -54 -83 vlineto
            -97 -7 -51 -52 -67 vvcurveto
            -78 72 -35 70 -31 vhcurveto
            72 -33 43 -21 -48 vvcurveto
            -43 -33 -32 -60 -45 -33 17 16 -15 vhcurveto
            -7 7 -4 7 -1 7 -12 69 rcurveline
            -49 hlineto
            -6 -40 -2 -43 1 -40 rrcurveto
            hintmask 11111010
            28 -16 48 -19 56 -5 rrcurveto
            -83 53 83 vlineto
            109 8 52 66 64 vvcurveto
            endchar
          </CharString>
          <CharString index="55">
            -62 -3 rlineto
            91 -47 vlineto
            -11 -94 -126 -6 41 37 40 54 77 145 rlinecurve
            -11 13 rlineto
            -57 hlineto
            -42 -86 -47 -87 -57 -84 rrcurveto
            endchar
          </CharString>
          <CharString index="56">
            4 8 -23 64 rlineto
            -10 -21 -29 -7 -26 hhcurveto
            -45 -54 19 83 -23 hvcurveto
            return
          </CharString>
          <CharString index="57">
            hmoveto
            25 47 rlineto
            -90 81 -40 100 100 vvcurveto
            128 69 75 93 106 68 -96 -126 -102 -46 -92 -84 -68 vhcurveto
            25 -47 rlineto
            228 hlineto
            10 50 6 52 1 47 -40 6 rcurveline
            -29 -75 -4 -11 -6 -6 -10 -4 rlinecurve
            -6 -17 -30 -3 -33 hhcurveto
            -37 -1 82 59 72 97 1 123 rlinecurve
            156 1 -113 92 -138 hhcurveto
            -145 -119 -101 -160 -115 61 -94 88 -57 hvcurveto
            -38 1 rlineto
            -31 -30 3 6 -16 hvcurveto
            -11 4 -5 6 -4 11 -26 75 rcurveline
            -41 -6 1 -47 5 -52 8 -50 rlinecurve
            endchar
          </CharString>
          <CharString index="58">
            130 0 36 497 35 -35 41 hstemhm
            117 81 277 87 hintmask 10111000
            157 568 rmoveto
            hintmask 11011000
            -117 -38 hlineto
            61 -12 rlineto
            10 -2 6 -8 -10 vvcurveto
            -429 vlineto
            -11 -7 -8 -11 -2 vhcurveto
            -59 10 callgsubr
            118 vlineto
            39 49 -5 32 hhcurveto
            174 -4 110 106 204 vvcurveto
            hintmask 10111000
            178 -85 95 -188 vhcurveto
            -45 -41 -6 -46 hhcurveto
            41 -525 rmoveto
            485 vlineto
            1 16 26 4 31 hhcurveto
            138 66 -77 -169 -175 -69 -73 -120 -3 hvcurveto
            -27 -1 -40 3 -21 5 rrcurveto
            return
          </CharString>
          <CharString index="59">
            97 callgsubr
            140 71 vstem
            399 107 rmoveto
            47 -26 52 -64 45 vhcurveto
            90 40 rlineto
            10 vlineto
            -40 49 -113 -51 rlineto
            -37 32 -21 30 29 vvcurveto
            37 38 18 52 1 vhcurveto
            7 7 -17 -54 callgsubr
            -67 -57 -40 -62 -49 34 -42 53 -38 hvcurveto
            -87 -39 rlineto
            -9 vlineto
            38 -49 108 48 -97 -111 61 -43 77 118 rlineto
            17 -23 7 -22 -19 vvcurveto
            -49 -46 43 callgsubr
            68 hvcurveto
            return
          </CharString>
          <CharString index="60">
            -34 vlineto
            72 -9 rlineto
            -294 vlineto
            -13 201 callgsubr
            return
          </CharString>
          <CharString index="61">
            74 0 119 callsubr
            160 43 hintmask 10101100
            -24 callsubr
            hintmask 11001100
            24 -102 rlineto
            43 hlineto
            hintmask 10111100
            130 callsubr
            hintmask 11011100
            153 callsubr
            hintmask 10101100
            -21 callsubr
            return
          </CharString>
          <CharString index="62">
            287 188 callsubr
            3 vhcurveto
            43 10 rlineto
            38 return
          </CharString>
          <CharString index="63">
            345 rmoveto
            45 -24 45 -38 31 vhcurveto
            25 -30 -41 18 -49 hhcurveto
            -47 -43 -18 -24 -28 9 callgsubr
            25 31 37 19 39 hhcurveto
            50 28 -30 -45 -53 -51 -56 -86 -21 hvcurveto
            50 -11 -15 17 -23 hhcurveto
            -20 -14 -14 -20 -12 hvcurveto
            -7 -11 rlineto
            -13 -20 -6 162 callgsubr
            32 -14 46 vhcurveto
            4 5 0 5 hhcurveto
            -109 15 61 -75 95 hhcurveto
            27 32 6 11 28 hvcurveto
            5 8 -23 64 rlineto
            -9 -21 -30 -9 -29 hhcurveto
            -45 -56 27 91 -22 hvcurveto
            94 18 99 65 84 vvcurveto
            endchar
          </CharString>
          <CharString index="64">
            -5 rmoveto
            -8 76 -80 5 -74 27 -37 66 rlinecurve
            72 33 52 55 71 3 0 4 3 vvcurveto
            113 343 callgsubr
            48 rlineto
            -111 hlineto
            -5 18 -7 19 -9 18 rrcurveto
            137 hlineto
            6 7 -20 49 rlineto
            -352 hlineto
            -6 -7 20 -49 rlineto
            176 hlineto
            8 -16 6 -18 3 -21 rrcurveto
            -192 hlineto
            -6 -6 19 -48 rlineto
            179 hlineto
            -6 -33 -17 -27 -26 -14 rrcurveto
            12 -22 -16 6 -16 hhcurveto
            -27 -15 -21 -17 -19 15 -37 22 -36 hvcurveto
            43 -71 72 -75 115 -18 rrcurveto
            endchar
          </CharString>
          <CharString index="65">
            3 -13 -16 4 -12 hhcurveto
            -24 -23 -13 -22 -23 hvcurveto
            23 -27 -40 12 -47 hhcurveto
            -96 -79 -48 -103 -60 27 -41 47 -22 hvcurveto
            return
          </CharString>
          <CharString index="66">
            58 407 57 hstem
            29 68 209 67 vstem
            431 69 rmoveto
            -44 53 rlineto
            -9 hlineto
            -48 -43 -64 -28 -64 hhcurveto
            -68 -42 34 49 53 52 23 81 34 hvcurveto
            56 24 87 36 74 vvcurveto
            34 -18 35 -31 26 vhcurveto
            24 -27 -40 18 -53 hhcurveto
            -40 -50 -11 -26 -41 hvcurveto
            32 -66 rlineto
            8 hlineto
            25 38 44 21 46 hhcurveto
            43 22 -19 -32 -55 -63 -25 -58 -25 hvcurveto
            -83 -34 -73 -33 -77 vvcurveto
            -45 25 -38 38 -31 vhcurveto
            -29 36 47 -22 67 hhcurveto
            71 71 27 54 47 hvcurveto
            return
          </CharString>
          <CharString index="67">
            -23 callgsubr
            -4 callgsubr
            -16 -16 3 7 -16 hvcurveto
            3 10 1 11 12 vvcurveto
            53 -25 39 -29 27 vhcurveto
            28 -30 -40 21 -47 -62 callsubr
            hvcurveto
            return
          </CharString>
          <CharString index="68">
            118 rmoveto
            51 -31 49 -54 30 vhcurveto
            hintmask 11100000
            41 26 27 38 48 vvcurveto
            41 -21 40 -35 29 vhcurveto
            23 -28 -39 17 -45 hhcurveto
            -52 -44 -22 -29 -36 hvcurveto
            41 -58 26 callgsubr
            32 33 40 19 40 hhcurveto
            43 26 -21 -45 -60 -50 -39 -95 -17 hvcurveto
            -5 -6 25 -55 rlineto
            hintmask 11010000
            30 3 29 6 25 10 rrcurveto
            39 -23 17 -33 -33 vvcurveto
            -51 -42 -38 -60 -66 -58 44 77 -44 vhcurveto
            -31 -19 rlineto
            -99 47 79 -64 95 hhcurveto
            93 57 58 71 hvcurveto
            endchar
          </CharString>
          <CharString index="69">
            435 -45 rmoveto
            66 -44 38 -89 vhcurveto
            -89 hlineto
            -58 -24 11 30 18 8 13 14 9 hvcurveto
            -4 17 19 -2 20 hhcurveto
            return
          </CharString>
          <CharString index="70">
            -50 callgsubr
            -44 -1 callsubr
            return
          </CharString>
          <CharString index="71">
            20 vlineto
            26 -10 21 -16 16 vhcurveto
            -18 19 -22 7 -26 5 -30 6 rcurveline
            -37 7 -13 15 21 vvcurveto
            28 21 11 52 19 vhcurveto
            37 13 32 12 30 vvcurveto
            20 -14 19 -21 18 vhcurveto
            -22 -8 -2 -33 -20 -6 -50 -20 rlinecurve
            -48 -19 -36 -24 -46 vvcurveto
            -49 42 -31 55 -14 vhcurveto
            49 -13 rlineto
            22 -5 6 -5 -24 vvcurveto
            -34 -1 vlineto
            -68 -13 -11 -27 -19 5 -13 27 -29 hvcurveto
            21 -22 rlineto
            -25 23 15 -8 17 hhcurveto
            24 18 17 31 hvcurveto
            endchar
          </CharString>
          <CharString index="72">
            177 -4 rlineto
            56 vlineto
            -177 -6 rlineto
            return
          </CharString>
          <CharString index="73">
            185 callgsubr
            62 22 45 44 -1 53 rrcurveto
            38 -24 33 -22 21 vhcurveto
            27 -29 -43 22 -64 hhcurveto
            -74 -74 -29 -46 -40 hvcurveto
            -18 -19 -8 -19 -12 vvcurveto
            -15 12 -13 17 -15 vhcurveto
            31 -29 38 -35 -41 vvcurveto
            -31 -22 -23 -35 -44 -52 35 57 -40 vhcurveto
            -28 -21 rlineto
            -82 45 65 -47 70 hhcurveto
            66 43 43 56 64 -53 38 -29 24 hvcurveto
            -5 5 -9 8 6 vvcurveto
            6 8 10 11 11 vhcurveto
            34 39 67 20 55 hhcurveto
            return
          </CharString>
          <CharString index="74">
            58 -33 callgsubr
            return
          </CharString>
          <CharString index="75">
            144 rmoveto
            85 -75 39 -59 -1 vhcurveto
            hintmask 11110000
            51 17 56 48 66 vvcurveto
            69 -62 42 -76 -70 -59 -35 -50 -27 vhcurveto
            25 -24 rlineto
            29 27 37 25 44 hhcurveto
            48 30 -30 -39 -61 -58 -35 -80 -18 hvcurveto
            11 -40 rlineto
            hintmask 11101000
            17 2 21 5 17 5 58 -6 38 -37 -2 -59 rrcurveto
            -72 -2 -53 -25 -60 hhcurveto
            -46 -41 14 20 -32 hvcurveto
            -21 -30 rlineto
            -32 33 57 -25 66 hhcurveto
            104 83 64 89 hvcurveto
            endchar
          </CharString>
          <CharString index="76">
            -11 rmoveto
            64 40 61 69 72 -34 65 -38 50 hvcurveto
            hintmask 11011000
            153 152 -44 51 rlineto
            -8 hlineto
            -148 -148 rlineto
            hintmask 10111000
            -56 60 -69 54 -69 35 -42 -55 rcurveline
            2 -8 86 -34 67 -41 48 -45 rlinecurve
            -68 -70 -28 -54 -52 vvcurveto
            -49 23 -38 25 -26 vhcurveto
            -26 23 34 -23 39 hhcurveto
            38 157 rmoveto
            -61 -26 -37 -38 -40 -13 39 36 54 28 48 49 48 vhcurveto
            26 -40 14 -43 -44 vvcurveto
            endchar
          </CharString>
          <CharString index="77">
            -20 -3 -14 hhcurveto
            -27 -28 9 26 -36 hvcurveto
            -133 90 -23 -31 140 -114 rlineto
            -34 41 40 -21 48 hhcurveto
            32 33 10 23 34 hvcurveto
            return
          </CharString>
          <CharString index="78">
            -36 -32 51 -51 hhcurveto
            -52 -32 -48 -44 -13 hvcurveto
            27 -15 rlineto
            21 14 18 25 25 hhcurveto
            return
          </CharString>
          <CharString index="79">
            215 rmoveto
            -112 54 -82 97 -15 vhcurveto
            -82 53 81 vlineto
            60 5 54 29 23 46 -22 22 rcurveline
            -28 -24 -40 -22 -47 hhcurveto
            -77 -45 61 111 107 43 60 72 26 23 -7 -10 13 hvcurveto
            9 -8 3 -8 3 -14 15 -61 rcurveline
            40 hlineto
            hintmask 11010100
            6 38 4 46 -2 38 -23 11 -39 11 -40 4 rrcurveto
            hintmask 10110100
            77 -54 vlineto
            hintmask 11010100
            -77 vlineto
            hintmask 10111000
            -120 -11 -65 -87 -123 vvcurveto
            endchar
          </CharString>
          <CharString index="80">
            95 callsubr
            hintmask 11011110
            -29 callgsubr
            hintmask 11100110
            37 33 -51 53 hhcurveto
            51 37 48 43 13 hvcurveto
            endchar
          </CharString>
          <CharString index="81">
            58 -44 49 -77 -68 -44 -38 -39 -11 vhcurveto
            18 -15 rlineto
            21 18 30 23 39 hhcurveto
            44 26 -26 -43 -60 -54 -49 -126 -96 hvcurveto
            endchar
          </CharString>
          <CharString index="82">
            -4 rlinecurve
            -7 -16 -32 -2 -32 hhcurveto
            -111 return
          </CharString>
          <CharString index="83">
            421 hmoveto
            37 vlineto
            -85 13 rlineto
            -14 2 -6 7 13 vvcurveto
            455 44 vlineto
            33 26 -3 -5 15 hvcurveto
            10 -4 6 -6 2 -12 rrcurveto
            return
          </CharString>
          <CharString index="84">
            rmoveto
            31 -22 22 -32 -32 -22 -22 96 callgsubr
            endchar
          </CharString>
          <CharString index="85">
            297 callsubr
            9 -19 hvcurveto
            66 -23 6 6 rlineto
            -9 19 -6 22 21 vvcurveto
            return
          </CharString>
          <CharString index="86">
            24 102 2 12 6 6 12 4 rlinecurve
            5 13 29 3 32 hhcurveto
            43 -455 hlineto
            -13 -6 -7 -14 -2 vhcurveto
            -85 -13 rlineto
            -37 vlineto
            return
          </CharString>
          <CharString index="87">
            -104 -101 -113 100 -29 -25 112 -144 61 5 rlineto
            return
          </CharString>
          <CharString index="88">
            -10 50 43 58 36 125 -107 56 163 -20 58 58 return
          </CharString>
          <CharString index="89">
            hhcurveto
            -13 -16 3 6 -14 hvcurveto
            11 22 7 24 26 vvcurveto
            48 -24 42 -29 29 vhcurveto
            29 -29 -40 20 -53 hhcurveto
            -116 -118 -97 -110 -115 hvcurveto
            -3 -3 rlineto
            -44 29 -20 26 173 callsubr
            39 -47 62 -36 hvcurveto
            -27 -26 -30 -30 -19 -20 54 -49 rcurveline
            29 31 28 28 27 27 rrcurveto
            return
          </CharString>
          <CharString index="90">
            -9 rmoveto
            110 72 75 102 90 -59 65 -94 -48 -51 -14 -32 -28 hvcurveto
            108 12 60 75 93 hhcurveto
            23 25 -5 -12 28 hvcurveto
            13 38 rlineto
            18 -29 -37 10 -42 hhcurveto
            -145 -90 -120 -168 -149 73 -81 114 hvcurveto
            6 43 rmoveto
            -72 -35 72 100 hvcurveto
            25 vlineto
            3 0 2 2 vvcurveto
            22 26 43 11 33 hhcurveto
            61 37 -45 -71 -69 -32 -52 -61 hvcurveto
            endchar
          </CharString>
          <CharString index="91">
            271 152 callgsubr
            hvcurveto
            hintmask 11010100
            53 -45 31 -60 vhcurveto
            hintmask 11011000
            -15 callsubr
            hvcurveto
            hintmask 10111000
            -37 -32 -24 -58 vhcurveto
            -14 -39 hlineto
            hintmask 10110100
            82 callgsubr
            endchar
          </CharString>
          <CharString index="92">
            42 7 39 32 46 vvcurveto
            52 -51 35 -67 -50 -49 -19 -45 -19 vhcurveto
            17 -16 rlineto
            24 25 29 10 29 hhcurveto
            41 29 -19 -35 return
          </CharString>
          <CharString index="93">
            250 hlineto
            10 30 4 39 2 32 -34 5 rcurveline
            -16 -37 rlineto
            -16 -7 -18 -8 -43 hhcurveto
            -80 hlineto
            85 56 86 63 82 vvcurveto
            return
          </CharString>
          <CharString index="94">
            -10 -22 -28 -8 -28 hhcurveto
            -26 -29 9 26 -36 hvcurveto
            -133 90 -23 -31 rlineto
            return
          </CharString>
          <CharString index="95">
            232 hmoveto
            37 vlineto
            -44 7 rlineto
            -13 2 -7 7 14 vvcurveto
            64 vlineto
            69 72 11 -18 11 -21 13 -23 rlinecurve
            41 -78 rlineto
            -37 20 13 -26 20 hhcurveto
            111 37 hlineto
            -46 10 -11 3 -9 6 -7 14 rlinecurve
            -76 126 -14 25 -11 17 -14 19 rlinecurve
            93 97 9 9 8 3 15 2 rlinecurve
            43 10 rlineto
            35 -198 -35 vlineto
            73 -12 -164 -178 rlineto
            return
          </CharString>
          <CharString index="96">
            40 -21 34 -24 23 vhcurveto
            28 -28 -35 13 -34 hhcurveto
            -62 -51 -46 -63 -50 33 -46 51 -35 hvcurveto
            -37 -21 -43 -18 -44 -18 33 -61 rcurveline
            62 27 56 26 44 29 rrcurveto
            -18 46 52 -10 54 2 3 0 2 hhcurveto
            -1 vlineto
            -189 -113 rlineto
            -37 -21 -14 -21 -22 vvcurveto
            -25 21 -16 29 -11 vhcurveto
            10 -2 rlineto
            -4 10 21 -5 15 hhcurveto
            28 17 17 22 return
          </CharString>
          <CharString index="97">
            25 vvcurveto
            51 -25 41 99 callsubr
            26 28 37 19 38 hhcurveto
            49 24 -34 -45 hvcurveto
            hintmask 01101111
            -64 -47 -61 -81 -20 vhcurveto
            -67 callsubr
            6 0 1 5 vhcurveto
            -99 15 58 -69 return
          </CharString>
          <CharString index="98">
            hhcurveto
            -43 -33 23 48 -17 hvcurveto
            68 13 50 47 60 vvcurveto
            42 -24 34 -24 21 vhcurveto
            26 -27 -34 14 -35 hhcurveto
            -26 -27 -7 -14 -20 288 callgsubr
            18 -15 -30 -55 -58 -37 -57 -56 -32 36 50 -29 hvcurveto
            41 -24 -34 70 -89 hhcurveto
            -80 -56 -58 -73 -82 73 -32 54 -19 hvcurveto
            37 -12 37 -11 22 -21 rrcurveto
            return
          </CharString>
          <CharString index="99">
            rmoveto
            -44 -56 42 -33 85 -37 64 -26 rlinecurve
            18 31 rlineto
            return
          </CharString>
          <CharString index="100">
            45 callsubr
            18 249 callsubr
            -115 6 48 -82 100 hhcurveto
            return
          </CharString>
          <CharString index="101">
            38 -51 26 callgsubr
            26 28 17 12 9 203 callgsubr
            -59 vlineto
            6 -88 -91 5 -83 307 callsubr
            -22 rlineto
            -28 25 14 -5 155 callgsubr
            41 174 -50 vlineto
            -9 -9 0 -8 hhcurveto
            -39 -16 -19 -22 -18 12 -16 20 -23 hvcurveto
            21 -22 rlineto
            -26 24 16 -7 16 hhcurveto
            return
          </CharString>
          <CharString index="102">
            hhcurveto
            -56 -29 32 41 59 57 24 65 hvcurveto
            30 hlineto
            7 7 -19 54 rlineto
            -41 hlineto
            -24 -24 -3 -7 -22 hvcurveto
            -18 19 -9 21 22 vvcurveto
            39 32 28 60 vhcurveto
            18 343 callgsubr
            52 rlineto
            2 -11 -12 1 -9 hhcurveto
            -84 -50 -51 -56 -37 23 -34 38 -26 hvcurveto
            -37 -19 -24 -32 -42 vvcurveto
            -41 24 -40 35 -29 vhcurveto
            -27 33 43 -19 48 hhcurveto
            return
          </CharString>
          <CharString index="103">
            176 callgsubr
            hstemhm
            6 63 118 58 -14 64 118 68 return
          </CharString>
          <CharString index="104">
            47 -26 46 -36 30 vhcurveto
            25 -29 -39 18 -46 hhcurveto
            -46 -43 -18 -24 -27 265 callgsubr
            30 37 18 35 hhcurveto
            50 23 -36 -42 -54 -39 -60 -87 -27 hvcurveto
            48 -11 -15 15 -22 hhcurveto
            -20 -14 -14 -20 -13 327 callsubr
            33 -14 43 6 6 0 1 7 vhcurveto
            -101 14 60 -67 94 hhcurveto
            return
          </CharString>
          <CharString index="105">
            hhcurveto
            -50 -35 28 39 -13 hvcurveto
            88 28 59 49 72 vvcurveto
            34 -15 35 -29 29 vhcurveto
            20 -21 -34 20 -39 hhcurveto
            -53 -42 -36 -49 -48 309 callsubr
            19 vvcurveto
            31 25 19 28 31 20 -21 -33 -59 -66 -45 -75 -18 vhcurveto
            -16 -27 12 -30 19 -31 21 -23 rlinecurve
            39 -47 46 -19 50 -1 rrcurveto
            -2 vlineto
            return
          </CharString>
          <CharString index="106">
            -7 rlineto
            -37 return
          </CharString>
          <CharString index="107">
            344 275 rmoveto
            56 -26 61 -43 -12 -15 -5 -7 -11 vhcurveto
            -5 -3 rlineto
            -18 -12 -10 -14 -17 vvcurveto
            -24 21 -28 45 -32 vhcurveto
            -46 -10 -33 -31 -45 hhcurveto
            -59 -30 55 67 68 31 61 56 42 hvcurveto
            10 vlineto
            -59 35 rlineto
            -67 -50 -29 -73 -63 vvcurveto
            -63 29 -54 37 -38 vhcurveto
            -30 31 40 -23 45 hhcurveto
            62 48 42 59 18 hvcurveto
            return
          </CharString>
          <CharString index="108">
            -30 -5 -28 -8 -25 -11 rrcurveto
            -17 19 -8 22 16 vvcurveto
            31 30 13 40 16 vhcurveto
            42 17 45 18 43 vvcurveto
            28 -15 23 -19 18 vhcurveto
            22 -22 -27 13 -31 hhcurveto
            -22 -26 -7 -13 -22 hvcurveto
            30 -62 rlineto
            15 25 27 12 20 hhcurveto
            19 6 -10 -9 -25 -38 -16 -39 -15 hvcurveto
            -38 -13 -55 -25 -53 vvcurveto
            -38 27 -35 36 -23 vhcurveto
            return
          </CharString>
          <CharString index="109">
            hhcurveto
            -48 -33 28 39 -13 hvcurveto
            88 28 59 50 73 vvcurveto
            34 -15 35 -29 29 vhcurveto
            20 -21 -34 20 -39 hhcurveto
            -53 -42 -36 -49 -49 309 callsubr
            20 vvcurveto
            31 25 19 28 31 20 -21 -33 -60 -66 -45 -75 -18 vhcurveto
            -16 -27 13 -32 20 -31 19 -23 rlinecurve
            -47 40 45 -20 52 hhcurveto
            return
          </CharString>
          <CharString index="110">
            -64 148 rlineto
            70 -30 -49 24 -57 hhcurveto
            -30 -26 -6 -6 -19 hvcurveto
            return
          </CharString>
          <CharString index="111">
            92 callgsubr
            39 19 27 return
          </CharString>
          <CharString index="112">
            0 -60 callgsubr
            328.5 54 return
          </CharString>
          <CharString index="113">
            hmoveto
            8 45 5 52 44 vvcurveto
            -41 5 -25 -62 -4 -12 -5 -6 -20 -3 rlinecurve
            -4 -17 -30 -2 -40 hhcurveto
            -98 hlineto
            169 129 88 77 104 vvcurveto
            90 -65 52 -86 -90 -57 -57 -56 -17 vhcurveto
            29 -22 rlineto
            45 28 34 25 45 hhcurveto
            50 42 -32 -60 -73 -58 -61 -188 -171 hvcurveto
            17 -47 rlineto
            endchar
          </CharString>
          <CharString index="114">
            47 22 rmoveto
            -14 32 52 -17 57 hhcurveto
            96 66 44 78 76 -64 30 -67 26 hvcurveto
            return
          </CharString>
          <CharString index="115">
            164 -285 rlineto
            -145 -72 callgsubr
            -70 -13 rlineto
            -37 vlineto
            return
          </CharString>
          <CharString index="116">
            66 rmoveto
            -48 53 rlineto
            -46 -46 -51 -27 -49 hhcurveto
            -81 -51 69 91 92 55 78 125 77 hvcurveto
            -40 57 rlineto
            -127 -70 -82 -92 -114 vvcurveto
            -71 33 -62 40 -43 vhcurveto
            -39 37 53 -30 68 hhcurveto
            61 56 25 52 47 hvcurveto
            -31 219 rmoveto
            -45 57 -185 -139 rlineto
            -10 vlineto
            57 -35 rlineto
            endchar
          </CharString>
          <CharString index="117">
            -56 29 -28 34 29 21 23 28 25 -14 14 -15 8 vhcurveto
            -11 7 -7 4 18 vvcurveto
            32 28 33 33 26 vhcurveto
            -18 23 rlineto
            -63 -34 -46 -57 -66 vvcurveto
            return
          </CharString>
          <CharString index="118">
            -50 26 -24 30 26 19 20 25 22 -14 13 -11 7 vhcurveto
            -10 6 -7 3 16 vvcurveto
            29 25 29 29 24 vhcurveto
            -16 20 rlineto
            -57 -30 -40 -51 -59 vvcurveto
            return
          </CharString>
          <CharString index="119">
            -34 21 callsubr
            return
          </CharString>
          <CharString index="120">
            400 118 rmoveto
            75 -55 48 -67 56 vhcurveto
            120 callsubr
            44 74 25 69 hhcurveto
            58 15 -16 -58 hvcurveto
            -121 vlineto
            -8 -7 0 -7 hhcurveto
            -37 -15 -18 -22 -18 11 -16 20 -22 hvcurveto
            20 -22 rlineto
            -25 23 14 -7 16 hhcurveto
            23 18 17 31 hvcurveto
            41 return
          </CharString>
          <CharString index="121">
            400 118 rmoveto
            75 -55 48 -67 56 vhcurveto
            4 callgsubr
            45 40 69 26 62 hhcurveto
            50 12 -16 -58 hvcurveto
            -121 vlineto
            -8 -7 0 -7 hhcurveto
            -37 -16 -18 -22 -18 12 -16 20 -22 hvcurveto
            19 -22 rlineto
            -25 24 14 -7 16 hhcurveto
            23 18 17 31 hvcurveto
            41 return
          </CharString>
          <CharString index="122">
            164 -26 -30 144 -159 -146 -156 28 -30 rlineto
            return
          </CharString>
          <CharString index="123">
            178 -315 rmoveto
            18 -10 15 -19 14 vhcurveto
            -9 6 rlineto
            12 -17 -16 5 -13 hhcurveto
            -20 -17 -12 -29 -12 3 -14 3 -15 hvcurveto
            -5 -10 -11 -2 -12 hhcurveto
            -44 -27 28 42 50 39 37 77 35 hvcurveto
            -18 47 52 -10 47 hhcurveto
            28 29 4 6 27 hvcurveto
            1 -3 -113 -127 60 -52 return
          </CharString>
          <CharString index="124">
            504 5 rmoveto
            232 vlineto
            43 7 rlineto
            43 -223 -43 vlineto
            100 -7 rlineto
            return
          </CharString>
          <CharString index="125">
            -36 -12 -21 -28 hvcurveto
            37 -61 26 callgsubr
            20 25 30 16 30 hhcurveto
            54 22 return
          </CharString>
          <CharString index="126">
            16 15 9 hhcurveto
            8 2 return
          </CharString>
          <CharString index="127">
            rmoveto
            -25 20 -17 20 23 13 18 19 26 -19 19 -20 -24 -13 -20 -20 vhcurveto
            -113 35 81 callgsubr
            40 30 31 47 18 26 -4 -11 23 vhcurveto
            7 6 -19 49 rlineto
            318 callsubr
            -61 -52 -42 -66 hvcurveto
            endchar
          </CharString>
          <CharString index="128">
            17 -51 callgsubr
            return
          </CharString>
          <CharString index="129">
            85 0 37 137 44 279 73 0 -20 return
          </CharString>
          <CharString index="130">
            0 37 493 38 return
          </CharString>
          <CharString index="131">
            rmoveto
            16 63 9 94 rlineto
            -71 hlineto
            10 -94 15 -63 -47 45 -76 55 -36 -62 86 -39 62 -18 -62 -18 -86 -38 36 -63 76 56 47 45 -15 -63 -10 -94 rlineto
            71 hlineto
            -9 94 -16 63 47 -45 76 -56 36 63 -86 38 -62 18 62 18 86 39 -36 62 -76 -55 rlineto
            endchar
          </CharString>
          <CharString index="132">
            -608 rmoveto
            hintmask 10100010
            -106 callsubr
            return
          </CharString>
          <CharString index="133">
            34 -14 35 -30 29 vhcurveto
            20 -22 -32 20 -40 323 callsubr
            17 26 rlineto
            -22 13 -11 15 20 vvcurveto
            31 25 19 28 31 20 -21 -33 -47 -40 -37 -53 -23 vhcurveto
            -15 -38 -25 -5 -25 hhcurveto
            -19 -21 3 11 -19 hvcurveto
            6 17 4 18 19 vvcurveto
            return
          </CharString>
          <CharString index="134">
            -24 20 -28 46 -32 vhcurveto
            -46 -11 -33 -32 -47 hhcurveto
            -61 -33 55 71 62 28 66 59 43 hvcurveto
            10 vlineto
            -59 35 rlineto
            -67 -51 -29 -73 -64 vvcurveto
            134 callsubr
            65 49 44 60 18 hvcurveto
            -11 21 24 -6 23 hhcurveto
            13 13 2 3 14 hvcurveto
            return
          </CharString>
          <CharString index="135">
            330 -9 rmoveto
            39 -29 26 -64 23 vhcurveto
            -36 13 rlineto
            -56 21 -10 11 59 vvcurveto
            301 vlineto
            -63 24 -7 -6 rlineto
            -302 vlineto
            -105 30 -8 75 -29 vhcurveto
            37 -15 rlineto
            36 -13 12 -15 -16 vvcurveto
            -17 -15 -19 -24 -21 vhcurveto
            -9 vlineto
            57 -28 rlineto
            41 27 16 30 29 vvcurveto
            return
          </CharString>
          <CharString index="136">
            442 rmoveto
            -101 -101 -81 -164 -18 -160 12 -17 rcurveline
            74 hlineto
            16 196 68 146 89 110 -21 48 rcurveline
            -322 hlineto
            hintmask 11010000
            -8 -48 -5 -59 2 -57 43 1 rcurveline
            hintmask 10110000
            25 78 4 14 8 4 14 3 rlinecurve
            4 19 31 2 40 hhcurveto
            endchar
          </CharString>
          <CharString index="137">
            vlineto
            -73 -10 rlineto
            -47 callsubr
            return
          </CharString>
          <CharString index="138">
            37 -26 -43 25 -47 hhcurveto
            -66 -55 -50 -75 -77 57 -95 128 -72 hvcurveto
            21 32 rlineto
            -91 63 -43 61 62 vvcurveto
            59 39 27 37 23 26 -10 -23 21 vhcurveto
            -5 -14 -2 -15 -16 vvcurveto
            -16 3 -17 3 -13 vhcurveto
            64 -35 8 6 rlineto
            -5 19 -4 19 18 vvcurveto
            return
          </CharString>
          <CharString index="139">
            401 hmoveto
            37 vlineto
            -70 13 205 callgsubr
            7 13 vvcurveto
            147 vlineto
            return
          </CharString>
          <CharString index="140">
            rmoveto
            60 -25 52 -41 36 vhcurveto
            22 -26 -38 19 -42 hhcurveto
            -37 -34 -13 -17 -26 hvcurveto
            35 -63 26 callgsubr
            19 23 28 17 34 hhcurveto
            54 19 -45 -56 -79 -40 -53 -58 -32 -33 17 42 -30 hvcurveto
            -28 -22 rlineto
            -57 29 52 -40 64 hhcurveto
            83 60 67 94 hvcurveto
            return
          </CharString>
          <CharString index="141">
            -160 28 30 -146 156 144 159 -26 30 return
          </CharString>
          <CharString index="142">
            267 rmoveto
            -32 -42 -14 -36 -39 vvcurveto
            -44 24 -40 40 -33 vhcurveto
            -27 33 40 -17 43 hhcurveto
            52 56 29 54 39 hvcurveto
            -41 50 rlineto
            -9 hlineto
            -52 -42 -41 -24 -41 hhcurveto
            -50 -33 34 48 34 15 33 31 41 hvcurveto
            180 230 -61 47 rlineto
            endchar
          </CharString>
          <CharString index="143">
            222 callgsubr
            93 58 51 return
          </CharString>
          <CharString index="144">
            69 38 37 38 50 vvcurveto
            40 -24 36 -30 25 vhcurveto
            18 -23 -30 16 -35 hhcurveto
            -60 -46 -47 -69 -42 17 -42 28 -35 hvcurveto
            -29 -13 -31 -12 -34 -13 31 -61 rcurveline
            43 18 39 16 33 16 28 -18 33 -14 35 -6 rrcurveto
            -1 vlineto
            -131 -66 rlineto
            return
          </CharString>
          <CharString index="145">
            263 rmoveto
            -135 23 -93 84 73 26 72 131 136 -23 92 -84 -74 -25 -71 -132 vhcurveto
            -87 -17 rmoveto
            175 76 88 119 143 42 -117 -136 -178 -76 -86 -119 -142 -43 118 136 vhcurveto
            endchar
          </CharString>
          <CharString index="146">
            210 16 rmoveto
            -71 72 -33 65 61 vvcurveto
            72 43 20 109 1 vhcurveto
            26 38 -1 -1 33 hvcurveto
            -59 vlineto
            -9 -9 0 -7 hhcurveto
            -40 -16 -19 -22 -18 11 -16 21 -23 hvcurveto
            21 -22 rlineto
            -26 24 16 -7 16 hhcurveto
            24 19 18 31 hvcurveto
            44 return
          </CharString>
          <CharString index="147">
            -51 callgsubr
            361 callsubr
            51 -34 57 return
          </CharString>
          <CharString index="148">
            -11 21 -15 19 -18 16 rrcurveto
            26 -29 -35 18 -41 hhcurveto
            -36 18 callsubr
            -50 -69 -89 -44 -62 -58 hvcurveto
            -45 1 -37 35 -26 46 -29 -20 rcurveline
            -76 32 60 -46 67 hhcurveto
            return
          </CharString>
          <CharString index="149">
            -11 21 -14 19 -18 15 rrcurveto
            26 -29 -38 18 -41 hhcurveto
            -34 18 callsubr
            -51 -66 -92 -44 -61 -59 hvcurveto
            -43 1 -38 35 -26 46 -29 -20 rcurveline
            -76 32 60 -46 66 hhcurveto
            return
          </CharString>
          <CharString index="150">
            vstem
            227 41 rmoveto
            -91 93 -28 87 75 vvcurveto
            90 45 65 67 42 18 -27 -52 vhcurveto
            return
          </CharString>
          <CharString index="151">
            36 14 24 24 25 vvcurveto
            18 -11 16 -18 12 vhcurveto
            -9 5 rlineto
            14 -20 -17 6 -12 hhcurveto
            -18 -20 -13 -32 -10 2 -13 2 -13 hvcurveto
            -6 -12 -15 -3 -16 hhcurveto
            -48 -28 28 43 47 35 36 70 34 hvcurveto
            -27 57 68 -15 61 hhcurveto
            return
          </CharString>
          <CharString index="152">
            -25 -29 6 13 -23 hvcurveto
            71 -59 callgsubr
            return
          </CharString>
          <CharString index="153">
            rmoveto
            -35 43 38 -19 49 hhcurveto
            30 27 6 13 28 hvcurveto
            return
          </CharString>
          <CharString index="154">
            163 callsubr
            -55 -49 -3 42 59 vhcurveto
            120 vlineto
            30 -10 349 callsubr
            -28 337 callsubr
            return
          </CharString>
          <CharString index="155">
            37 -39 -50 14 -42 hhcurveto
            -76 -52 -22 callsubr
            42 24 35 57 72 63 -55 -149 vhcurveto
            -345 -44 callgsubr
            return
          </CharString>
          <CharString index="156">
            38 -44 -56 15 -46 hhcurveto
            -82 -58 -22 callsubr
            42 23 35 68 86 69 -53 -171 246 callgsubr
            return
          </CharString>
          <CharString index="157">
            rmoveto
            27 -19 19 -21 -25 -13 -21 -20 -27 20 -18 21 23 14 19 21 vhcurveto
            endchar
          </CharString>
          <CharString index="158">
            40 37 hlineto
            -44 7 16 callgsubr
            344 vlineto
            115 callsubr
            105 -2 vlineto
            return
          </CharString>
          <CharString index="159">
            502 rmoveto
            hintmask 10110000
            -44 8 -35 -30 -58 -29 -52 -12 rlinecurve
            8 -40 31 3 52 13 21 8 rlinecurve
            -352 vlineto
            -14 -10 -6 -50 callgsubr
            -83 -12 rlineto
            -37 277 37 vlineto
            -74 12 rlineto
            -14 2 -6 6 13 vvcurveto
            endchar
          </CharString>
          <CharString index="160">
            -23 -18 10 -16 21 -23 hvcurveto
            19 -20 rlineto
            -27 25 15 -7 16 hhcurveto
            23 20 17 return
          </CharString>
          <CharString index="161">
            34 0 44 222 51 210 41 return
          </CharString>
          <CharString index="162">
            rmoveto
            28 -1 -20 21 -26 hhcurveto
            -25 -19 -21 -27 1 hvcurveto
            -28 1 21 -21 26 hhcurveto
            25 18 20 28 -1 hvcurveto
            endchar
          </CharString>
          <CharString index="163">
            36 32 -50 51 hhcurveto
            52 32 47 44 13 hvcurveto
            endchar
          </CharString>
          <CharString index="164">
            161 421 rmoveto
            87 -52 61 -85 -72 -70 -56 -105 -86 52 -62 85 71 71 56 105 vhcurveto
            -211 -2 rmoveto
            68 24 41 42 48 27 -48 -71 -67 -24 -41 -42 -47 -28 47 71 vhcurveto
            576 -259 rmoveto
            return
          </CharString>
          <CharString index="165">
            25 -4 -11 23 vhcurveto
            7 6 -18 49 rlineto
            12 -23 -32 10 -30 hhcurveto
            -60 -42 return
          </CharString>
          <CharString index="166">
            hhcurveto
            -31 -29 12 28 -17 hvcurveto
            55 29 45 54 62 vvcurveto
            45 -24 35 -21 19 vhcurveto
            28 -28 -33 16 -38 hhcurveto
            -25 274 callsubr
            21 hhcurveto
            28 17 -16 -34 hvcurveto
            return
          </CharString>
          <CharString index="167">
            hhcurveto
            -34 -24 10 11 -17 hvcurveto
            7 17 4 17 18 vvcurveto
            46 -26 46 -36 30 vhcurveto
            25 -29 -39 18 -47 hhcurveto
            -45 -43 -18 -24 -29 265 callgsubr
            30 39 18 35 hhcurveto
            50 24 -37 -41 hvcurveto
            return
          </CharString>
          <CharString index="168">
            hhcurveto
            -32 -28 12 28 -18 hvcurveto
            56 28 45 54 63 vvcurveto
            45 -26 35 -19 19 vhcurveto
            28 -29 -33 16 -37 286 callsubr
            17 26 10 22 hhcurveto
            28 16 -16 -34 hvcurveto
            return
          </CharString>
          <CharString index="169">
            hhcurveto
            -30 -29 11 27 -18 hvcurveto
            59 36 42 51 59 vvcurveto
            45 -25 35 -20 19 vhcurveto
            28 -28 -35 16 -37 hhcurveto
            -25 -28 -7 -14 -19 hvcurveto
            35 342 callsubr
            15 18 25 10 22 hhcurveto
            28 17 -18 -32 hvcurveto
            return
          </CharString>
          <CharString index="170">
            317 callgsubr
            129 callsubr
            40 47 42 59 19 hvcurveto
            -40 7 -28 -12 rlineto
            -59 -24 -49 -43 -50 155 callsubr
            319 callgsubr
            endchar
          </CharString>
          <CharString index="171">
            172 callgsubr
            60 return
          </CharString>
          <CharString index="172" raw="1">
            ae717f1d 0b  
          </CharString>
          <CharString index="173">
            -50 30 -46 50 -35 vhcurveto
            -36 -20 -41 -18 -42 -17 32 -61 rcurveline
            62 27 54 26 42 26 14 -5 15 -5 16 -3 rrcurveto
            -18 -19 -10 -23 -27 vvcurveto
            -42 25 -36 28 -24 vhcurveto
            -28 32 39 -12 34 hhcurveto
            return
          </CharString>
          <CharString index="174">
            rmoveto
            -189 hlineto
            91 279 rlineto
            endchar
          </CharString>
          <CharString index="175">
            -15 56 rlineto
            2 -11 -14 0 -8 hhcurveto
            -4 hlineto
            -23 -19 -2 -20 hhcurveto
            -20 -18 2 2 -16 hvcurveto
            37 33 21 35 41 vvcurveto
            39 -21 34 -23 22 vhcurveto
            26 -28 -34 16 -37 hhcurveto
            -60 -52 -45 -66 hvcurveto
            return
          </CharString>
          <CharString index="176">
            hhcurveto
            -47 -31 26 37 -11 hvcurveto
            66 24 41 46 54 vvcurveto
            41 -24 33 -18 18 vhcurveto
            30 -30 -40 18 -47 hhcurveto
            -90 -83 -65 -93 -4 hvcurveto
            -9 vlineto
            5 -16 -17 2 -17 hhcurveto
            -35 -35 -10 -15 -26 hvcurveto
            return
          </CharString>
          <CharString index="177">
            -58 callsubr
            93 58 51 return
          </CharString>
          <CharString index="178">
            -27 -107 -2 -12 -7 -7 -13 -1 rlinecurve
            -46 -7 rlineto
            -34 vlineto
            63 -8 rlineto
            return
          </CharString>
          <CharString index="179">
            -175 183 231 callsubr
            -105 vlineto
            -52 22 -43 29 -30 vhcurveto
            -31 31 44 -18 48 hhcurveto
            3 -1 hlineto
            -133 -116 50 -52 return
          </CharString>
          <CharString index="180">
            rmoveto
            49 -35 37 -61 -51 -50 -33 -51 -1 vhcurveto
            -53 35 -37 63 53 46 34 54 1 vhcurveto
            -145 1 rmoveto
            27 17 19 30 32 14 -24 -25 -30 -16 -17 -30 -33 -14 24 26 vhcurveto
            endchar
          </CharString>
          <CharString index="181">
            -82 -115 -55 -99 -17 -17 1 3 -16 vhcurveto
            4 vlineto
            43 27 22 33 38 vvcurveto
            40 -23 36 -27 24 vhcurveto
            22 -25 -34 18 -37 hhcurveto
            -54 -55 -39 -71 -51 27 -42 41 -31 hvcurveto
            -3 vlineto
            return
          </CharString>
          <CharString index="182">
            81 callsubr
            -152 vlineto
            -10 -9 0 -8 hhcurveto
            -38 -17 -19 -23 -18 12 -17 20 -23 hvcurveto
            21 -22 rlineto
            -26 24 16 -6 17 hhcurveto
            return
          </CharString>
          <CharString index="183">
            621 90 rmoveto
            -26 15 rlineto
            -37 -24 -46 -22 -45 hhcurveto
            -67 -55 42 133 hvcurveto
            4 0 3 3 vvcurveto
            260 hlineto
            3 16 1 21 14 vvcurveto
            94 -62 49 -90 -61 -49 -23 -41 -33 vhcurveto
            return
          </CharString>
          <CharString index="184">
            -3 14 16 -1 18 hhcurveto
            93 hlineto
            62 17 -21 -36 hvcurveto
            return
          </CharString>
          <CharString index="185">
            66 68 46 41 28 5 rrcurveto
            7 -7 5 -21 -37 vvcurveto
            -133 -2 vlineto
            -60 -17 -11 -28 -20 8 -13 23 -28 hvcurveto
            20 -22 rlineto
            -25 22 17 -7 16 hhcurveto
            24 19 17 31 hvcurveto
            45 return
          </CharString>
          <CharString index="186">
            292 -8 rmoveto
            4 9 -21 62 rlineto
            -2 -7 -9 -1 -8 hhcurveto
            -40 -43 24 87 -14 hvcurveto
            58 12 59 34 33 47 rrcurveto
            -36 33 40 -16 43 hhcurveto
            10 9 1 2 10 hvcurveto
            -2 vlineto
            return
          </CharString>
          <CharString index="187">
            -60 -26 -48 -58 -66 -18 65 55 77 34 59 51 41 vhcurveto
            9 vlineto
            -61 36 rlineto
            -63 -52 -30 -74 -67 vvcurveto
            -60 25 -56 40 -38 vhcurveto
            -31 31 41 -22 45 hhcurveto
            73 52 56 91 hvcurveto
            return
          </CharString>
          <CharString index="188">
            169 callsubr
            26 28 17 12 9 hhcurveto
            8 3 -11 -37 hvcurveto
            return
          </CharString>
          <CharString index="189">
            -23 -30 5 12 -23 hvcurveto
            71 -5 -17 24 -24 hhcurveto
            -7 -11 -2 -14 -20 hvcurveto
            -5 -4 rlineto
            -20 -14 233 callsubr
            return
          </CharString>
          <CharString index="190">
            575 rmoveto
            45 -27 24 -29 -26 -21 -20 -28 -15 6 -14 15 -11 vhcurveto
            6 -5 6 -5 -12 vvcurveto
            -23 -21 -32 -28 -20 vhcurveto
            16 -23 rlineto
            64 32 39 52 55 vvcurveto
            endchar
          </CharString>
          <CharString index="191">
            -22 17 -34 callgsubr
            29 39 19 27 25 hvcurveto
            -105 callsubr
            return
          </CharString>
          <CharString index="192">
            hhcurveto
            -32 -30 4 7 -26 hvcurveto
            40 33 23 35 43 vvcurveto
            -185 8 rmoveto
            47 34 27 36 29 26 -18 -38 -39 -30 -35 -44 -30 vhcurveto
            -33 23 -18 30 33 vvcurveto
            endchar
          </CharString>
          <CharString index="193">
            hstemhm
            -1 218 -218 813 -501 212 100 189 return
          </CharString>
          <CharString index="194">
            67 96 54 460 338 callsubr
            -35 72 140 71 return
          </CharString>
          <CharString index="195">
            -41 -19 -29 -31 -49 vvcurveto
            -69 57 -46 116 vhcurveto
            return
          </CharString>
          <CharString index="196">
            -30 -15 -24 -23 -39 vvcurveto
            -28 12 -20 24 -13 vhcurveto
            return
          </CharString>
          <CharString index="197">
            -21 -188 53 -25 -21 202 -21 378 35 return
          </CharString>
          <CharString index="198">
            hhcurveto
            -77 -50 -51 -65 -71 65 -61 71 return
          </CharString>
          <CharString index="199">
            rlineto
            -13 2 -7 8 return
          </CharString>
          <CharString index="200">
            -227 684 rmoveto
            39 -46 -38 19 -46 hhcurveto
            -29 -31 -73 callsubr
            23 31 rlineto
            return
          </CharString>
          <CharString index="201">
            20 -6 -7 rlineto
            9 -31 5 -39 -30 vvcurveto
            return
          </CharString>
          <CharString index="202">
            rmoveto
            -28 15 rlineto
            -21 -15 -19 -26 -26 hhcurveto
            return
          </CharString>
          <CharString index="203">
            28 -22 22 vhcurveto
            19 -19 -24 10 return
          </CharString>
          <CharString index="204">
            hhcurveto
            -22 -21 2 4 -20 hvcurveto
            47 25 26 38 42 vvcurveto
            40 -23 34 -26 24 vhcurveto
            22 -26 -33 18 -37 hhcurveto
            -55 -54 -39 -71 -51 27 -42 40 -31 hvcurveto
            -4 vlineto
            return
          </CharString>
          <CharString index="205">
            -66 callgsubr
            endchar
          </CharString>
          <CharString index="206">
            -29 27 vhcurveto
            28 -30 -40 21 -47 hhcurveto
            -45 -47 -18 -25 66 callgsubr
            return
          </CharString>
          <CharString index="207">
            rmoveto
            -66 callgsubr
            return
          </CharString>
          <CharString index="208">
            218 callsubr
            47 -29 50 -58 43 vhcurveto
            168 84 6 -8 7 -7 7 -7 rlinecurve
            -28 32 43 -16 43 hhcurveto
            13 12 1 3 12 hvcurveto
            2 -2 rlineto
            return
          </CharString>
          <CharString index="209">
            43 19 41 15 34 8 2 -2 rcurveline
            -5 -16 -3 -17 -20 vvcurveto
            -82 54 -91 95 -73 vhcurveto
            29 29 rlineto
            -72 73 -32 62 61 vvcurveto
            75 45 21 107 1 vhcurveto
            return
          </CharString>
          <CharString index="210">
            267 callgsubr
            23 19 callsubr
            -11 -37 hvcurveto
            -100 vlineto
            -59 19 -46 32 -33 vhcurveto
            -30 30 38 -14 34 hhcurveto
            52 51 32 67 21 hvcurveto
            return
          </CharString>
          <CharString index="211">
            -11 rrcurveto
            -27 150 callsubr
            return
          </CharString>
          <CharString index="212">
            vhcurveto
            -31 34 42 -15 45 hhcurveto
            10 9 1 1 9 hvcurveto
            43 return
          </CharString>
          <CharString index="213">
            hhcurveto
            -46 -34 27 37 -12 hvcurveto
            73 26 39 48 49 vvcurveto
            34 -20 32 -25 25 vhcurveto
            27 -29 -41 23 -55 hhcurveto
            -82 -61 -53 -75 hvcurveto
            -27 8 -45 -31 vvcurveto
            return
          </CharString>
          <CharString index="214">
            40 -49 rlineto
            7 hlineto
            26 29 17 10 9 hhcurveto
            8 3 -10 -38 hvcurveto
            -35 vlineto
            -135 1 rlineto
            -96 -92 -29 -110 -82 56 -91 94 -74 hvcurveto
            endchar
          </CharString>
          <CharString index="215">
            133 95 61 95 hvcurveto
            -214 -113 rmoveto
            return
          </CharString>
          <CharString index="216">
            122 callsubr
            469 -20 return
          </CharString>
          <CharString index="217">
            -8 28 -7 24 23 vvcurveto
            45 31 23 42 17 26 -4 -11 23 vhcurveto
            6 6 -18 49 rlineto
            12 -22 -31 10 -29 hhcurveto
            -62 -42 -39 -56 hvcurveto
            -4 vlineto
            return
          </CharString>
          <CharString index="218">
            273 callgsubr
            76 79 vvcurveto
            84 60 63 90 21 vhcurveto
            5 9 -34 54 rlineto
            -105 -19 -86 -88 -109 vvcurveto
            -113 90 -104 174 1 vhcurveto
            return
          </CharString>
          <CharString index="219">
            vstem
            195 15 rmoveto
            -65 63 -27 61 51 vvcurveto
            70 49 25 65 34 30 -6 -9 26 vhcurveto
            13 -31 16 -26 14 -19 rrcurveto
            -37 30 44 -32 62 hhcurveto
            return
          </CharString>
          <CharString index="220">
            vstem
            278 14 rmoveto
            -67 65 -28 59 49 vvcurveto
            68 50 25 66 19 18 -1 -3 17 vhcurveto
            14 -35 17 -28 15 -19 rrcurveto
            -37 29 43 -32 64 hhcurveto
            return
          </CharString>
          <CharString index="221">
            93 58 51 69 hvcurveto
            197 209 rmoveto
            -47 -30 22 42 43 33 30 47 51 33 -37 -61 -6 0 -6 -1 -6 hvcurveto
            -13 -19 -39 -8 -28 hhcurveto
            return
          </CharString>
          <CharString index="222">
            249 callgsubr
            -52 -6 -43 -13 -75 callgsubr
            return
          </CharString>
          <CharString index="223">
            hlineto
            -14 -14 -1 -2 -14 hvcurveto
            -20 20 -5 26 34 vvcurveto
            43 vlineto
            31 -11 28 -20 22 vhcurveto
            17 -19 -24 11 -23 hhcurveto
            -28 -33 -17 -26 -24 hvcurveto
            return
          </CharString>
          <CharString index="224">
            hhcurveto
            -50 -32 28 40 -11 hvcurveto
            61 23 46 40 58 vvcurveto
            38 -20 33 -28 25 vhcurveto
            26 -30 -37 17 -43 hhcurveto
            -48 -55 -24 -47 -36 hvcurveto
            endchar
          </CharString>
          <CharString index="225">
            rmoveto
            31 -21 21 -32 -33 -21 -21 -31 -31 21 -21 33 32 21 21 31 vhcurveto
            return
          </CharString>
          <CharString index="226">
            37 358 173 -41 41 hstemhm
            30 44 161 81 return
          </CharString>
          <CharString index="227">
            4 callgsubr
            46 return
          </CharString>
          <CharString index="228">
            25 -19 29 239 callsubr
            return
          </CharString>
          <CharString index="229">
            -239 -10 50 return
          </CharString>
          <CharString index="230">
            -65 -33 -43 -46 -55 vvcurveto
            -45 28 -38 26 -23 vhcurveto
            -30 33 39 -16 42 hhcurveto
            7 7 0 1 7 hvcurveto
            43 -146 10 -4 60 30 rlineto
            return
          </CharString>
          <CharString index="231">
            -47 30 48 -28 70 hhcurveto
            79 62 38 60 20 hvcurveto
            -162 292 rmoveto
            55 30 -38 -58 hvcurveto
            -17 -183 vlineto
            79 10 36 34 52 hhcurveto
            return
          </CharString>
          <CharString index="232">
            hhcurveto
            -12 -11 2 4 -11 hvcurveto
            1 5 0 5 5 vvcurveto
            59 -25 60 -42 -13 -14 -4 -8 -12 vhcurveto
            -5 -3 rlineto
            -18 -10 -10 -15 -17 vvcurveto
            return
          </CharString>
          <CharString index="233">
            rmoveto
            91 99 101 -99 30 24 -100 144 -61 -5 -89 -141 rlineto
            endchar
          </CharString>
          <CharString index="234">
            35 30 44 28 46 hhcurveto
            40 21 -22 -31 -45 -41 -34 -55 -15 hvcurveto
            -14 -35 10 -24 17 -28 19 -24 299 callgsubr
            63 hhcurveto
            return
          </CharString>
          <CharString index="235">
            16 -11 17 -20 -21 -11 -17 -16 -17 318 callgsubr
            17 vhcurveto
            return
          </CharString>
          <CharString index="236">
            -8 -16 -18 -4 -16 336 callgsubr
            return
          </CharString>
          <CharString index="237">
            6 61 -1 54 -7 58 rrcurveto
            -483 hlineto
            return
          </CharString>
          <CharString index="238">
            318 570 rmoveto
            -78 hlineto
            return
          </CharString>
          <CharString index="239">
            -58 10 callgsubr
            return
          </CharString>
          <CharString index="240">
            -79 -36 -51 -54 -50 -3 42 59 vhcurveto
            120 vlineto
            30 -11 29 -21 21 vhcurveto
            18 -19 -24 11 -22 hhcurveto
            -28 -31 -18 -25 -22 hvcurveto
            return
          </CharString>
          <CharString index="241">
            -65 29 -53 37 -38 vhcurveto
            -31 32 41 -23 47 hhcurveto
            return
          </CharString>
          <CharString index="242">
            -39 -18 -25 -33 -41 vvcurveto
            -42 26 -39 31 -28 vhcurveto
            return
          </CharString>
          <CharString index="243">
            321 callsubr
            138 return
          </CharString>
          <CharString index="244">
            35 -20 32 -25 22 vhcurveto
            23 -25 -34 14 -34 hhcurveto
            -51 -46 -28 -40 -39 hvcurveto
            -124 -124 rlineto
            -42 27 -20 27 28 vvcurveto
            return
          </CharString>
          <CharString index="245">
            -339 21 -21 568 -20 hstem
            -135 408 vstem
            -72 hmoveto
            37 callgsubr
            endchar
          </CharString>
          <CharString index="246">
            rmoveto
            242 53 -242 hlineto
            endchar
          </CharString>
          <CharString index="247">
            70 383 rmoveto
            -79 70 -32 57 -18 vhcurveto
            35 -12 43 -10 24 -26 rrcurveto
            12 -13 2 -14 -12 vvcurveto
            -44 -37 -35 -62 vhcurveto
            return
          </CharString>
          <CharString index="248">
            -75 -29 -40 -57 -58 vvcurveto
            -49 28 -44 33 -29 vhcurveto
            -35 38 52 -22 62 hhcurveto
            104 70 65 84 84 -70 43 -73 33 hvcurveto
            return
          </CharString>
          <CharString index="249">
            hhcurveto
            -21 -33 1 1 -32 hvcurveto
            138 vlineto
            31 -10 28 -21 22 vhcurveto
            17 -18 -25 11 -22 hhcurveto
            -29 -33 -17 -26 -23 hvcurveto
            return
          </CharString>
          <CharString index="250">
            229 -270 rmoveto
            -33 -19 28 41 52 29 60 45 60 hvcurveto
            27 -48 17 -51 -44 314 callgsubr
          </CharString>
          <CharString index="251">
            hhcurveto
            -39 -34 -12 -21 -28 hvcurveto
            37 -62 rlineto
            endchar
          </CharString>
          <CharString index="252">
            23 callsubr
            hstem
            117 return
          </CharString>
          <CharString index="253">
            -64 26 callgsubr
            15 17 26 10 return
          </CharString>
          <CharString index="254">
            -20 21 -20 hstemhm
            return
          </CharString>
          <CharString index="255">
            -24 22 -29 44 -32 vhcurveto
            -46 -10 -34 -31 -47 hhcurveto
            -60 -33 55 71 64 30 64 57 43 hvcurveto
            10 vlineto
            -59 35 rlineto
            return
          </CharString>
          <CharString index="256">
            hhcurveto
            -33 -31 4 8 -28 hvcurveto
            4 vlineto
            49 27 26 38 40 vvcurveto
            40 -24 35 -26 24 vhcurveto
            21 -24 -35 19 -36 hhcurveto
            return
          </CharString>
          <CharString index="257">
            121 callsubr
            30 9 vhcurveto
            return
          </CharString>
          <CharString index="258">
            rmoveto
            17 -11 16 -20 -21 -11 -16 -17 -16 11 return
          </CharString>
          <CharString index="259">
            184 callsubr
            -46 -23 vhcurveto
            return
          </CharString>
          <CharString index="260">
            -6 -58 -2 -53 4 -62 rrcurveto
            44 hlineto
            return
          </CharString>
          <CharString index="261">
            137 -8 41 497 38 return
          </CharString>
          <CharString index="262">
            vvcurveto
            -48 41 -22 50 -1 vhcurveto
            return
          </CharString>
          <CharString index="263">
            -9 -8 41 351 41 return
          </CharString>
          <CharString index="264">
            2 rrcurveto
            86 97 132 100 112 hhcurveto
            50 21 -21 -30 -54 -66 -27 -55 -23 hvcurveto
            -82 -34 -74 -33 -77 vvcurveto
            return
          </CharString>
          <CharString index="265">
            66 49 37 52 40 23 -19 -29 -31 -27 -22 -29 -28 vhcurveto
            -21 -19 -27 -28 -40 vvcurveto
            -28 14 -24 22 -18 vhcurveto
            return
          </CharString>
          <CharString index="266">
            655 400 rmoveto
            -45 -39 -33 -66 -19 vhcurveto
            -13 -38 13 -31 18 -27 19 -21 rlinecurve
            -34 29 45 -28 59 hhcurveto
            return
          </CharString>
          <CharString index="267">
            554 396 rmoveto
            -42 -42 -35 -54 -14 vhcurveto
            -13 -35 9 -24 18 -28 19 -24 299 callgsubr
            62 hhcurveto
            return
          </CharString>
          <CharString index="268">
            rrcurveto
            -22 17 -34 callgsubr
            13 callgsubr
          </CharString>
          <CharString index="269">
            58 callgsubr
            184 138 rlineto
            -93 vlineto
            return
          </CharString>
          <CharString index="270">
            354 296 rmoveto
            128 callgsubr
            -79 -36 -51 return
          </CharString>
          <CharString index="271">
            vhcurveto
            -29 49 rlineto
            -7 hlineto
            -26 -29 -30 -16 -32 hhcurveto
            -27 -11 12 17 32 44 19 46 5 hvcurveto
            -11 54 rlineto
            return
          </CharString>
          <CharString index="272">
            202 callgsubr
            -24 216 callsubr
            -7 155 callgsubr
            return
          </CharString>
          <CharString index="273">
            138 284 rmoveto
            115 2 vlineto
            188 -167 rlineto
            -30 -28 -45 -20 -44 hhcurveto
            -54 -19 31 71 hvcurveto
            return
          </CharString>
          <CharString index="274">
            1 vhcurveto
            7 19 callgsubr
            -67 return
          </CharString>
          <CharString index="275">
            91 callsubr
            58 45 40 61 hvcurveto
            return
          </CharString>
          <CharString index="276">
            38 -51 rlineto
            8 hlineto
            return
          </CharString>
          <CharString index="277">
            -14 9 -17 9 -21 6 rrcurveto
            130 vlineto
            -66 24 -7 -6 1 -143 -38 -6 -35 -19 -23 -30 rlinecurve
            return
          </CharString>
          <CharString index="278">
            -155 rmoveto
            3 9 -29 54 rlineto
            -6 -16 -19 -6 -20 hhcurveto
            -50 -43 34 83 -13 hvcurveto
            -16 33 38 -5 return
          </CharString>
          <CharString index="279">
            vvcurveto
            -49 36 callsubr
            69 return
          </CharString>
          <CharString index="280">
            29 vvcurveto
            41 39 20 54 -70 callsubr
            -66 -57 -42 -63 -52 return
          </CharString>
          <CharString index="281">
            49 -48 41.5 hstemhm
            86 79 return
          </CharString>
          <CharString index="282">
            123 57 274 204 callsubr
            67 return
          </CharString>
          <CharString index="283">
            -6 -28 callgsubr
            -58 return
          </CharString>
          <CharString index="284">
            128 57 149 61 hstemhm
            30 71 -62 67 hintmask 11010000
            379 223 rmoveto
            -40 52 rlineto
            -9 hlineto
            return
          </CharString>
          <CharString index="285">
            17 -28 17 vhcurveto
            -9 5 rlineto
            11 -19 -14 6 -15 hhcurveto
            -22 -19 -14 -29 -9 2 -13 4 -14 hvcurveto
            return
          </CharString>
          <CharString index="286">
            vvcurveto
            39 40 17 51 1 vhcurveto
            7 7 -18 55 rlineto
            1 -10 -8 1 -9 hhcurveto
            -67 -57 -40 -62 -49 return
          </CharString>
          <CharString index="287">
            244 36 rmoveto
            -106 callsubr
            return
          </CharString>
          <CharString index="288">
            30 vvcurveto
            39 40 18 51 1 vhcurveto
            6 7 -18 -36 callgsubr
            -9 hhcurveto
            -66 -57 -39 -63 return
          </CharString>
          <CharString index="289">
            0 143.5 -47.5 47.5 363.5 -20 hstemhm
            return
          </CharString>
          <CharString index="290">
            rmoveto
            -66 22 -6 -6 3 -537 68 -22 6 5 rlineto
            return
          </CharString>
          <CharString index="291">
            -17 6 -13 -13 vvcurveto
            -32 -37 -15 return
          </CharString>
          <CharString index="292">
            rlineto
            1 -8 -7 1 -8 hhcurveto
            return
          </CharString>
          <CharString index="293">
            58 45 40 61 23 -7 22 return
          </CharString>
          <CharString index="294">
            rlineto
            -12 2 -7 7 14 vvcurveto
            return
          </CharString>
          <CharString index="295">
            274 callgsubr
            13 return
          </CharString>
          <CharString index="296">
            -5 -15 -23 -6 -18 hhcurveto
            -35 -18 20 26 31 30 14 40 16 hvcurveto
            40 16 48 18 44 vvcurveto
            return
          </CharString>
          <CharString index="297">
            112 90 52 75 65 -65 47 -63 -58 -42 -38 -56 -32 13 -28 20 -24 hvcurveto
            -1 -3 rlineto
            return
          </CharString>
          <CharString index="298">
            197 rmoveto
            51 vlineto
            -203 15 callsubr
            return
          </CharString>
          <CharString index="299">
            -6 -6 21 -56 rlineto
            108 hlineto
            -14 -20 -8 -26 -33 vvcurveto
            -82 54 -91 95 -73 vhcurveto
            endchar
          </CharString>
          <CharString index="300">
            -56 8 -29 21 320 callsubr
            -34 callgsubr
            29 39 19 27 24 hvcurveto
            -28 63 rlineto
            return
          </CharString>
          <CharString index="301">
            151 -39 40 -216 -215 216 -216 39 39 -152 152 44 -5 rlineto
            return
          </CharString>
          <CharString index="302">
            -1 41 220 41 -34 41 220 41 hstemhm
            30 68 141 70 86 68 141 70 return
          </CharString>
          <CharString index="303">
            -34 30 -20 34 35 vvcurveto
            43 31 26 44 18 25 -4 -11 24 vhcurveto
            6 6 -19 49 rlineto
            return
          </CharString>
          <CharString index="304">
            rmoveto
            46 28 36 39 32 21 -25 -29 -40 -37 -32 -59 -30 vhcurveto
            -16 23 -8 26 25 vvcurveto
            return
          </CharString>
          <CharString index="305">
            18 hvcurveto
            2 2 32 -12 33 -21 30 -27 rlinecurve
            -148 -160 56 -47 128 170 return
          </CharString>
          <CharString index="306">
            -47 -4 -36 -14 -23 -20 rrcurveto
            -17 8 -7 15 14 vvcurveto
            31 35 27 59 7 vhcurveto
            endchar
          </CharString>
          <CharString index="307">
            26 64 42 hvcurveto
            -42 54 rlineto
            -8 hlineto
            return
          </CharString>
          <CharString index="308">
            hstemhm
            -2 221 11 82 29 187 return
          </CharString>
          <CharString index="309">
            -20 -25 -27 -40 vvcurveto
            -48 return
          </CharString>
          <CharString index="310">
            vvcurveto
            188 callgsubr
            return
          </CharString>
          <CharString index="311">
            56 0 -20 hstemhm
            return
          </CharString>
          <CharString index="312">
            vvcurveto
            -49 222 callgsubr
            return
          </CharString>
          <CharString index="313">
            hstem
            83 70 vstem
            268 -137 rmoveto
            37 vlineto
            -94 7 rlineto
            -14 2 -7 7 13 vvcurveto
            return
          </CharString>
          <CharString index="314">
            -21 24 28 -8 27 hhcurveto
            8 7 1 1 9 hvcurveto
            -2 vlineto
            -198 -163 49 -55 return
          </CharString>
          <CharString index="315">
            224 453 rmoveto
            -27 55 rlineto
            -90 -7 -53 -48 -64 vvcurveto
            -48 30 -36 46 -32 vhcurveto
            return
          </CharString>
          <CharString index="316">
            rmoveto
            51 -35 34 -53 -54 -35 -34 -51 -51 35 -33 54 53 35 33 51 vhcurveto
            endchar
          </CharString>
          <CharString index="317">
            hvcurveto
            hintmask 11010000
            -57 callgsubr
            -11 -37 hvcurveto
            return
          </CharString>
          <CharString index="318">
            vlineto
            31 -10 28 -22 21 vhcurveto
            19 -18 -25 10 -21 hhcurveto
            -28 -32 -17 -26 -21 hvcurveto
            return
          </CharString>
          <CharString index="319">
            -16 13 -15 hvcurveto
            25 -26 rlineto
            -15 14 16 -10 16 hhcurveto
            20 14 17 34 hvcurveto
            30 return
          </CharString>
          <CharString index="320">
            57 18 57 160 -20 53 60 -56 56 hstemhm
            67 73 143 72 194 65 return
          </CharString>
          <CharString index="321">
            28 -19 20 -30 -29 -21 -20 -28 -29 21 -20 29 30 19 20 29 vhcurveto
            endchar
          </CharString>
          <CharString index="322">
            -50 -55 vvcurveto
            -47 -35 -39 -57 return
          </CharString>
          <CharString index="323">
            hvcurveto
            20 -24 rlineto
            -27 24 15 return
          </CharString>
          <CharString index="324">
            hstemhm
            34 76 -62 80 -60 63 return
          </CharString>
          <CharString index="325">
            399 108 rmoveto
            return
          </CharString>
          <CharString index="326">
            -20 23 -20 hstemhm
            return
          </CharString>
          <CharString index="327">
            -42 -25 -31 -38 -46 vvcurveto
            -41 24 -39 36 -29 vhcurveto
            -31 37 45 -18 51 hhcurveto
            return
          </CharString>
          <CharString index="328">
            rmoveto
            -38 -26 -47 -53 -45 -20 33 33 40 27 45 52 44 21 -33 -33 vhcurveto
            return
          </CharString>
          <CharString index="329">
            63 rlineto
            -9 hlineto
            -43 -98 callgsubr
            -3 hhcurveto
            -7 -6 -62 callgsubr
            return
          </CharString>
          <CharString index="330">
            hhcurveto
            -39 -23 26 37 46 38 30 57 9 10 0 -2 12 hvcurveto
            6 5 rlineto
            return
          </CharString>
          <CharString index="331">
            308 callgsubr
            5 6 0 1 5 vhcurveto
            return
          </CharString>
          <CharString index="332">
            hvcurveto
            2 3 3 2 2 2 rrcurveto
            return
          </CharString>
          <CharString index="333">
            hstemhm
            36 69 -4 71 180 71 return
          </CharString>
          <CharString index="334">
            30 -9 28 -23 22 vhcurveto
            19 -18 return
          </CharString>
          <CharString index="335">
            362 callsubr
            7 -7 -13 vvcurveto
            return
          </CharString>
          <CharString index="336">
            -31 -31 22 -22 32 32 return
          </CharString>
          <CharString index="337">
            101 141 rlineto
            endchar
          </CharString>
          <CharString index="338">
            rmoveto
            -57 callgsubr
            -10 -38 hvcurveto
            return
          </CharString>
          <CharString index="339">
            4 9 -23 64 rlineto
            -10 -21 -31 -8 -27 hhcurveto
            -45 -55 19 81 -23 hvcurveto
            return
          </CharString>
          <CharString index="340">
            -5 -14 -12 vvcurveto
            -22 17 217 callgsubr
            54 -81 94 hhcurveto
            return
          </CharString>
          <CharString index="341">
            32 -56 91 51 5 -23 13 -24 21 -20 rlinecurve
            -24 24 33 -15 36 hhcurveto
            return
          </CharString>
          <CharString index="342">
            15 callsubr
            endchar
          </CharString>
          <CharString index="343">
            -34 16 -36 315 callgsubr
            vhcurveto
            return
          </CharString>
          <CharString index="344">
            272 callgsubr
            16 26 rlineto
            -21 13 return
          </CharString>
          <CharString index="345">
            166 rlineto
            34 15 22 22 22 vvcurveto
            15 return
          </CharString>
          <CharString index="346">
            342 callgsubr
            11 return
          </CharString>
          <CharString index="347">
            vhcurveto
            11 -7 3 -9 2 -10 13 -70 rcurveline
            44 hlineto
            6 42 3 44 return
          </CharString>
          <CharString index="348">
            140 -89 55 189 60 hstemhm
            240 callgsubr
            297 65 return
          </CharString>
          <CharString index="349">
            55 139 61 -44 42 193 57 hstemhm
            48 69 99 65 -38 60 return
          </CharString>
          <CharString index="350">
            0 40 174 52 186 57 hstemhm
            48 70 125 60 -44 67 return
          </CharString>
          <CharString index="351">
            rmoveto
            -32 -23 8 10 -18 hvcurveto
            288 vlineto
            20 25 30 12 36 hhcurveto
            return
          </CharString>
          <CharString index="352">
            198 158 rmoveto
            43 145 -4 vlineto
            -202 -191 54 -50 return
          </CharString>
          <CharString index="353">
            -171 -21 33 -21 171 62 -62 71 351 301 callgsubr
            return
          </CharString>
          <CharString index="354">
            hhcurveto
            17 21 16 43 62 vvcurveto
            29 126 43 -126 67 vlineto
            102 return
          </CharString>
          <CharString index="355">
            318 callsubr
            endchar
          </CharString>
          <CharString index="356">
            -23 60 -27 vhcurveto
            return
          </CharString>
          <CharString index="357">
            -73 -120 hvcurveto
            -42 -75 -43 75 -36 vlineto
            hintmask 01111000
            -96 -47 -34 return
          </CharString>
          <CharString index="358">
            hlineto
            hintmask 10110010
            -51 vlineto
            -13 -7 -6 -12 -2 vhcurveto
            -68 -13 rlineto
            -35 return
          </CharString>
          <CharString index="359">
            61 54 61 151 60 -57 57 hstemhm
            282 67 188 64 return
          </CharString>
          <CharString index="360">
            vstem
            289 18 rmoveto
            -72 72 -33 67 57 vvcurveto
            69 47 29 79 return
          </CharString>
          <CharString index="361">
            -27 -22 1 -21 hhcurveto
            -4 -38 50 -10 rlineto
            55 -10 26 -24 -62 return
          </CharString>
          <CharString index="362">
            5 callsubr
            219 -20 return
          </CharString>
          <CharString index="363">
            60 248 97 117 -20 hstemhm
            177 77 75 71 -41 90 return
          </CharString>
          <CharString index="364">
            -18 49 rlineto
            13 -23 -34 10 -29 hhcurveto
            -43 -38 -25 -49 -9 hvcurveto
            return
          </CharString>
          <CharString index="365">
            vvcurveto
            62 27 23 55 11 vhcurveto
            50 10 -5 38 rlineto
            -20 -22 -1 return
          </CharString>
          <CharString index="366">
            20 -11 21 -6 21 -2 rrcurveto
            -2 vlineto
            -177 -184 55 -49 return
          </CharString>
          <CharString index="367">
            -21 rlinecurve
            -55 202 callsubr
            return
          </CharString>
          <CharString index="368">
            -14 -29 -10 2 -13 4 -15 hvcurveto
            -8 return
          </CharString>
          <CharString index="369">
            -26 22 rlineto
            -25 -19 -26 -20 -28 hhcurveto
            return
          </CharString>
          <CharString index="370">
            9 42 4 56 -3 41 rrcurveto
            return
          </CharString>
          <CharString index="371">
            59 hstem
            37 71 172 69 return
          </CharString>
          <CharString index="372">
            15 vhcurveto
            -8 6 rlineto
            10 -16 return
          </CharString>
          <CharString index="373">
            -242 -10 50 469 -20 return
          </CharString>
          <CharString index="374">
            13 6 7 13 2 vhcurveto
            return
          </CharString>
          <CharString index="375">
            49 rlineto
            322 callsubr
            return
          </CharString>
          <CharString index="376">
            204 callsubr
            67 73 return
          </CharString>
          <CharString index="377">
            523 -4 rmoveto
            76 hlineto
            return
          </CharString>
          <CharString index="378">
            30 rlineto
            9 vlineto
            -44 48 return
          </CharString>
          <CharString index="379">
            -11 -24 callgsubr
            return
          </CharString>
          <CharString index="380">
            25 69 168 70 return
          </CharString>
          <CharString index="381">
            -28 -7 -14 -19 347 callgsubr
            return
          </CharString>
          <CharString index="382">
            0 2 hhcurveto
            10 -18 4 -20 -15 vvcurveto
            -41 -33 -28 -31 vhcurveto
            return
          </CharString>
          <CharString index="383">
            -11 54 219 51 136 61 hstemhm
            4 64 118 58 return
          </CharString>
          <CharString index="384">
            58 -18 60 200 62 -37 60 hstemhm
            15 66 371 64 return
          </CharString>
          <CharString index="385">
            178 411 rmoveto
            249 callgsubr
            -52 -6 -43 -13 rlinecurve
            return
          </CharString>
          <CharString index="386">
            -51 -17 -36 -35 -56 vvcurveto
            -54 34 -65 73 -55 vhcurveto
            endchar
          </CharString>
          <CharString index="387">
            vlineto
            13 7 8 return
          </CharString>
          <CharString index="388">
            -23 hhcurveto
            -20 -15 -14 -20 -12 hvcurveto
            -6 -10 rlineto
            -13 -21 return
          </CharString>
          <CharString index="389">
            329 callgsubr
            -52 3 return
          </CharString>
          <CharString index="390">
            106 115 110 77 90 hhcurveto
            55 23 -30 -46 hvcurveto
            return
          </CharString>
          <CharString index="391">
            502 399 rmoveto
            -42 -43 -35 -58 -19 vhcurveto
            -14 -38 return
          </CharString>
          <CharString index="392">
            hhcurveto
            -44 -26 27 38 -29 hvcurveto
            28 -21 -48 64 -78 hhcurveto
            return
          </CharString>
          <CharString index="393">
            299 callsubr
            -19 hvcurveto
            34 -64 26 callgsubr
            15 return
          </CharString>
          <CharString index="394">
            299 callsubr
            -19 hvcurveto
            35 342 callsubr
            15 return
          </CharString>
          <CharString index="395">
            rmoveto
            -57 -35 35 43 16 5 14 8 12 hvcurveto
            130 return
          </CharString>
          <CharString index="396">
            4 -4 3 -5 4 -4 rrcurveto
            -34 30 41 -27 63 hhcurveto
            return
          </CharString>
          <CharString index="397">
            3 13 -26 hvcurveto
            70 -5 -18 26 -23 hhcurveto
            -10 -11 -4 return
          </CharString>
          <CharString index="398">
            0 160 -40 40 57 40 208 35 -32 35 hstemhm
            return
          </CharString>
          <CharString index="399">
            140 -95 62 119 65 5 58 hstemhm
            276 66 return
          </CharString>
          <CharString index="400">
            86 -52 62 -85 -71 -71 -56 -105 -87 52 -61 85 vhcurveto
            return
          </CharString>
          <CharString index="401">
            -17 -31 -11 vhcurveto
            -10 13 -6 14 return
          </CharString>
          <CharString index="402">
            -3 -3 hhcurveto
            -6 -6 13 42 hvcurveto
            return
          </CharString>
          <CharString index="403">
            vstem
            59 274 rmoveto
            6 7 rlineto
            return
          </CharString>
          <CharString index="404">
            -44 -68 -23 6 -25 return
          </CharString>
          <CharString index="405">
            38.5 return
          </CharString>
          <CharString index="406">
            hhcurveto
            -26 -28 -7 -14 return
          </CharString>
          <CharString index="407">
            hstemhm
            280 65 return
          </CharString>
          <CharString index="408">
            6 -8 -13 vvcurveto
            return
          </CharString>
          <CharString index="409">
            27 -49 -70 -67 -23 -41 -43 -46 -29 47 72 vhcurveto
            return
          </CharString>
          <CharString index="410">
            8 13 2 vhcurveto
            57 11 rlineto
            38 -234 -38 vlineto
            return
          </CharString>
          <CharString index="411">
            4 4 0 5 hhcurveto
            -114 7 56 -63 77 hhcurveto
            return
          </CharString>
          <CharString index="412">
            -15 26 29 -8 30 hhcurveto
            13 13 2 3 13 hvcurveto
            return
          </CharString>
          <CharString index="413">
            -20 73 70 51 62 -60 71 -69 -21 28 -21 hstemhm
            return
          </CharString>
          <CharString index="414">
            202 callgsubr
            -23 hvcurveto
            20 return
          </CharString>
          <CharString index="415">
            -20 hstem
            189 61.5 vstem
            230 return
          </CharString>
          <CharString index="416">
            237 callsubr
            -11 15 return
          </CharString>
          <CharString index="417">
            223 44 114 28 -28 39 115 46 hstemhm
            return
          </CharString>
          <CharString index="418">
            226 89 rmoveto
            12 -4 12 -11 17 vhcurveto
            -10 15 return
          </CharString>
          <CharString index="419">
            vvcurveto
            -43 -7 -37 -92 -7 vhcurveto
            -63 vlineto
            92 -7 7 return
          </CharString>
          <CharString index="420">
            rmoveto
            54 -325 -54 vlineto
            endchar
          </CharString>
          <CharString index="421">
            341 callgsubr
            -29 return
          </CharString>
          <CharString index="422">
            70 -11 -20 hstemhm
            101 77 return
          </CharString>
          <CharString index="423">
            11 92 callsubr
            return
          </CharString>
          <CharString index="424">
            -14 hvcurveto
            -14 -35 10 -23 return
          </CharString>
          <CharString index="425">
            322 callsubr
            -29 hhcurveto
            return
          </CharString>
          <CharString index="426">
            -54 0 41 334 38 return
          </CharString>
          <CharString index="427">
            -28 vhcurveto
            -22 17 return
          </CharString>
          <CharString index="428">
            hstem
            68 70 vstem
            return
          </CharString>
          <CharString index="429">
            12 -22 -33 10 return
          </CharString>
          <CharString index="430">
            hhcurveto
            -53 -42 -36 -49 -49 272 callgsubr
            return
          </CharString>
          <CharString index="431">
            -10 63 -7 31 155 43 193 42 hstemhm
            return
          </CharString>
          <CharString index="432">
            57 103 65 100 60 hstem
            29 74 320 65 return
          </CharString>
          <CharString index="433">
            rmoveto
            -55 -44 21 41 41 45 34 60 15 hvcurveto
            return
          </CharString>
          <CharString index="434">
            hvcurveto
            -6 -10 rlineto
            -13 -21 -6 162 callgsubr
            return
          </CharString>
          <CharString index="435">
            -57 25 -51 22 41 vvcurveto
            34 31 28 54 vhcurveto
            return
          </CharString>
          <CharString index="436">
            -56 24 -52 23 43 vvcurveto
            32 31 27 57 vhcurveto
            return
          </CharString>
          <CharString index="437">
            200 callsubr
            -47 -24 return
          </CharString>
          <CharString index="438">
            357 callsubr
            -14 return
          </CharString>
          <CharString index="439">
            -8 39 144 41 62 40 151 38 hstem
            return
          </CharString>
          <CharString index="440">
            54 -59 37 -56 -49 -40 -29 return
          </CharString>
          <CharString index="441">
            251 59 186 -20 hstem
            return
          </CharString>
          <CharString index="442">
            vlineto
            -54 19 -39 32 -32 vhcurveto
            return
          </CharString>
          <CharString index="443">
            36 11 17 24 hvcurveto
            return
          </CharString>
          <CharString index="444">
            -31 -17 -26 -22 hvcurveto
            return
          </CharString>
          <CharString index="445">
            -20 hstemhm
            32 114 return
          </CharString>
          <CharString index="446">
            -36 vlineto
            51 -7 rlineto
            return
          </CharString>
          <CharString index="447">
            68 hvcurveto
            22 hlineto
            6 return
          </CharString>
          <CharString index="448">
            78 178 78 return
          </CharString>
          <CharString index="449">
            -64 rlineto
            8 hlineto
            return
          </CharString>
          <CharString index="450">
            -13 rlinecurve
            -33 vlineto
            return
          </CharString>
          <CharString index="451">
            13 28 vvcurveto
            21 return
          </CharString>
          <CharString index="452">
            71.5 194 73 hintmask 01100111
            return
          </CharString>
          <CharString index="453">
            93 7 vhcurveto
            63 vlineto
            -93 7 -7 37 43 return
          </CharString>
          <CharString index="454">
            -74 -81 -69 -74 -14 -14 2 5 -13 vhcurveto
            return
          </CharString>
          <CharString index="455">
            -74 -81 -70 -74 -9 -9 1 2 -8 vhcurveto
            return
          </CharString>
          <CharString index="456">
            96 callsubr
            -22 hhcurveto
            return
          </CharString>
          <CharString index="457">
            hstem
            136 71 vstem
            207 -136 rmoveto
            return
          </CharString>
          <CharString index="458">
            56 145 61 109 61 hstem
            47 67 return
          </CharString>
          <CharString index="459">
            186 0 37 231 46 216 38 return
          </CharString>
          <CharString index="460">
            -24 10 -23 hhcurveto
            -27 337 callsubr
            return
          </CharString>
          <CharString index="461">
            -29 58 rlineto
            -8 hlineto
            -40 -44 -55 callgsubr
            return
          </CharString>
          <CharString index="462">
            61 48 58 163 57 hstem
            282 67 return
          </CharString>
          <CharString index="463">
            hstem
            41 77 vstem
            243 -137 rmoveto
            -32 return
          </CharString>
          <CharString index="464">
            -10 rlineto
            -13 -21 -5 162 callgsubr
            31 return
          </CharString>
          <CharString index="465">
            -61 -46 -41 -60 -31 12 -29 22 -28 hvcurveto
            return
          </CharString>
          <CharString index="466">
            -12 rlineto
            10 -2 7 -9 -10 vvcurveto
            -163 return
          </CharString>
          <CharString index="467">
            61 hstemhm
            23 66 265 67 126 71 return
          </CharString>
          <CharString index="468">
            93 58 53 67 return
          </CharString>
          <CharString index="469">
            -8 rlineto
            12 -2 return
          </CharString>
          <CharString index="470">
            -12 60 -58 50 return
          </CharString>
        <CharString name=".notdef">
          167 0 92 329 94 hstem
          64 96 325 94 vstem
          160 141 rmoveto
          125 115 -125 123 41 42 121 -128 119 128 44 -42 -127 -122 127 -124 -41 -41 -123 128 -118 -128 rlineto
          -139 -92 rmoveto
          515 515 -515 hlineto
          endchar
        </CharString>
        <CharString name="A">
          22 callsubr
          89 callgsubr
          hintmask 11010100
          131 callsubr
          hintmask 11101010
          -173 -503 -92 callsubr
          -137 151 67 callsubr
        </CharString>
        <CharString name="AE">
          -65 callgsubr
          endchar
        </CharString>
        <CharString name="Aacute">
          22 callsubr
          89 callgsubr
          hintmask 11010100
          131 callsubr
          hintmask 11101010
          -173 -503 -92 callsubr
          -80 630 -84 callgsubr
          -57 -479 67 callsubr
        </CharString>
        <CharString name="Abreve">
          22 callsubr
          63 61 89 callgsubr
          hintmask 11011010
          131 callsubr
          hintmask 11101101
          -173 -503 -92 callsubr
          -80 653 -69 callgsubr
          -57 -502 67 callsubr
        </CharString>
        <CharString name="Acircumflex">
          22 callsubr
          82 -20 23 -20 89 callgsubr
          hintmask 1101010100000000
          131 callsubr
          hintmask 1101011010000000
          -173 -503 -92 callsubr
          -334 538 -67 callgsubr
          rlineto
          hintmask 1110101000000000
          -106 -113 rlineto
          223 -414 67 callsubr
        </CharString>
        <CharString name="Adieresis">
          22 callsubr
          70 96 363 callgsubr
          -45 94 84 94 -70 216 hintmask 1101101100000000
          131 callsubr
          hintmask 1101110010000000
          -173 -503 -92 callsubr
          hintmask 1110101100000000
          -260 601 -85 callsubr
          -55 -450 67 callsubr
        </CharString>
        <CharString name="Agrave">
          22 callsubr
          87 -20 89 callgsubr
          hintmask 11011010
          131 callsubr
          hintmask 11101101
          -173 -503 -92 callsubr
          -305 691 -8 callsubr
          3 -419 67 callsubr
        </CharString>
        <CharString name="Amacron">
          22 callsubr
          89 53 146 callgsubr
          -405 246 -57 216 hintmask 1101101000000000
          131 callsubr
          hintmask 1101110010000000
          -173 -503 -92 callsubr
          hintmask 1110100100000000
          -341 572 186 callgsubr
          204 -474 67 callsubr
        </CharString>
        <CharString name="Aogonek">
          85 -188 49 139 37 137 44 279 73 0 -20 363 callgsubr
          157 216 -206 70 hintmask 11101101
          542 317 callgsubr
          -8 -16 -18 -4 -15 hhcurveto
          -30 -22 14 29 37 40 38 53 21 hvcurveto
          hintmask 11101110
          43 37 hlineto
          -42 11 -11 3 -7 5 -4 11 rlinecurve
          -181 503 rlineto
          -78 hlineto
          -173 -503 -3 -11 -8 -5 -11 -3 rlinecurve
          -44 10 callgsubr
          189 37 vlineto
          -72 14 40 123 rlineto
          219 hlineto
          43 -123 -73 -14 rlineto
          -37 111 -2 vlineto
          hintmask 11101101
          -52 -22 -49 -42 -51 155 callsubr
          34 37 11 17 23 hvcurveto
          -180 378 rmoveto
          -189 hlineto
          hintmask 11110101
          91 279 rlineto
          endchar
        </CharString>
        <CharString name="Aring">
          85 0 37 137 44 350 -20 150 38 363 callgsubr
          -8 51 96 51 -33 216 hintmask 11110110
          380 649 rmoveto
          50 -35 37 -61 -51 -50 -33 -52 -1 vhcurveto
          -39 20 -31 37 -13 vhcurveto
          hintmask 11111001
          -172 -501 -92 callsubr
          hintmask 11110110
          -180 501 35 13 25 29 1 39 rlinecurve
          196 callgsubr
          129 -432 67 callsubr
        </CharString>
        <CharString name="Atilde">
          22 callsubr
          66 59 -40 -20 52 59 89 callgsubr
          hintmask 1101011010000000
          131 callsubr
          hintmask 1101100101000000
          -173 -503 -92 callsubr
          -62 640 95 callsubr
          hintmask 1101011010000000
          -29 callgsubr
          hintmask 1101100010000000
          37 33 -51 53 hhcurveto
          hintmask 1101100101000000
          51 37 48 43 13 hvcurveto
          -75 -489 rmoveto
          -189 hlineto
          hintmask 1110011010000000
          91 279 rlineto
          endchar
        </CharString>
        <CharString name="B">
          70 -4 40 -36 36 237 43 219 33 -33 39 hstemhm
          117 80 191 80 -49 88 hintmask 10101110
          468 441 rmoveto
          86 -51 47 -137 vhcurveto
          hintmask 01110101
          -43 -35 -6 -45 hhcurveto
          -117 -38 hlineto
          61 -12 rlineto
          10 -2 6 -8 -10 vvcurveto
          -430 vlineto
          -10 -7 -8 -10 -2 vhcurveto
          -60 10 callgsubr
          115 vlineto
          55 25 -4 41 hhcurveto
          hintmask 10101101
          177 54 75 96 82 -54 51 -84 3 hvcurveto
          hintmask 10101110
          64 18 35 52 68 vvcurveto
          -271 90 rmoveto
          13 28 4 29 hhcurveto
          89 32 -33 -71 -78 -38 -37 -71 -15 -35 -1 1 -32 hvcurveto
          hintmask 10101101
          77 -280 rmoveto
          -24 -33 2 3 -20 hvcurveto
          231 vlineto
          33 40 1 22 hhcurveto
          87 40 -33 -82 -82 -41 -40 -104 hvcurveto
          endchar
        </CharString>
        <CharString name="C">
          269 callgsubr
          hstem
          45 92 vstem
          305 -10 rmoveto
          59 -93 callsubr
          -178 84 -106 176 hvcurveto
          endchar
        </CharString>
        <CharString name="Cacute">
          269 callgsubr
          hstem
          45 92 263 70 vstem
          305 -10 rmoveto
          59 -93 callsubr
          -178 84 -106 176 hvcurveto
          137 707 -84 callgsubr
          endchar
        </CharString>
        <CharString name="Ccaron">
          269 callgsubr
          hstem
          45 92 vstem
          305 -10 rmoveto
          59 -93 callsubr
          -178 84 -106 176 hvcurveto
          114 762 -63 callgsubr
        </CharString>
        <CharString name="Ccedilla">
          46 298 callgsubr
          21 41 505 41 hstemhm
          45 92 166 70 vstemhm
          373 -97 rmoveto
          36 -24 23 -34 5 vhcurveto
          1 -6 -6 1 -4 hhcurveto
          hintmask 10111100
          7 21 rlineto
          58 -93 callsubr
          -166 73 -104 154 -13 hvcurveto
          hintmask 11111100
          -19 -55 rlineto
          26 -1 24 -10 -26 vvcurveto
          -28 -29 -23 -48 -4 vhcurveto
          4 -32 rlineto
          15 hlineto
          72 56 37 54 hvcurveto
          endchar
        </CharString>
        <CharString name="Ccircumflex">
          269 callgsubr
          55 219 callsubr
          45 92 hintmask 11011000
          305 -10 rmoveto
          59 -93 callsubr
          -178 84 -106 176 hvcurveto
          -117 615 -67 callgsubr
          rlineto
          hintmask 11101000
          147 callgsubr
        </CharString>
        <CharString name="Cdotaccent">
          269 callgsubr
          44 106 hstem
          45 92 113 108 vstem
          305 -10 rmoveto
          59 -93 callsubr
          -178 84 -106 176 hvcurveto
          53 684 -23 callsubr
        </CharString>
        <CharString name="D">
          -49 callsubr
          endchar
        </CharString>
        <CharString name="Dcaron">
          -49 callsubr
          210 709 -63 callgsubr
        </CharString>
        <CharString name="Dcroat">
          -60 callsubr
        </CharString>
        <CharString name="E">
          54 callsubr
          321 callgsubr
          204 41 vstem
          -103 callgsubr
          endchar
        </CharString>
        <CharString name="Eacute">
          54 callsubr
          321 callgsubr
          204 41 vstem
          -103 callgsubr
          3 269 -84 callgsubr
          endchar
        </CharString>
        <CharString name="Ebreve">
          54 callsubr
          45 61 321 callgsubr
          204 41 vstem
          -103 callgsubr
          3 292 -69 callgsubr
          endchar
        </CharString>
        <CharString name="Ecaron">
          54 callsubr
          321 callgsubr
          204 41 vstem
          -103 callgsubr
          -20 324 -63 callgsubr
        </CharString>
        <CharString name="Ecircumflex">
          54 callsubr
          64 219 callsubr
          117 81 204 41 hintmask 11101110
          -103 callgsubr
          -251 177 -67 callgsubr
          rlineto
          hintmask 11110110
          147 callgsubr
        </CharString>
        <CharString name="Edieresis">
          54 callsubr
          52 96 hstemhm
          117 81 -67 94 84 94 -1 41 hintmask 11101001
          -103 callgsubr
          hintmask 11110110
          -177 240 -85 callsubr
          endchar
        </CharString>
        <CharString name="Edotaccent">
          54 callsubr
          53 106 hstemhm
          117 81 15 108 81 41 hintmask 11101010
          -103 callgsubr
          hintmask 11111110
          -81 246 -23 callsubr
        </CharString>
        <CharString name="Egrave">
          54 callsubr
          69 -20 321 callgsubr
          204 41 vstem
          -103 callgsubr
          -222 330 -8 callsubr
          endchar
        </CharString>
        <CharString name="Emacron">
          54 callsubr
          71 53 hstemhm
          117 81 -54 246 12 41 hintmask 11111010
          -103 callgsubr
          hintmask 11110110
          -258 211 186 callgsubr
          endchar
        </CharString>
        <CharString name="Eng">
          170 -183 45 -24 -21 25 -21 179 37 493 38 hstemhm
          117 52 319 53 hintmask 01011110
          541 23 rmoveto
          473 vlineto
          13 7 7 12 3 vhcurveto
          52 11 rlineto
          38 -204 -38 vlineto
          61 272 callsubr
          -9 -12 vvcurveto
          -363 vlineto
          -290 435 -73 callgsubr
          13 vvcurveto
          395 vlineto
          314 -467 rlineto
          hintmask 10011110
          -9 -53 -21 -36 -34 -21 -24 -14 -34 -8 -31 -5 rrcurveto
          hintmask 00111110
          3 -41 rlineto
          hintmask 01011110
          -2 19 14 -2 18 hhcurveto
          123 34 86 120 hvcurveto
          endchar
        </CharString>
        <CharString name="Eogonek">
          34 -188 49 139 44 222 51 210 41 321 callgsubr
          89 69 46 41 vstem
          472 -160 rmoveto
          -15 33 rlineto
          129 callsubr
          40 50 41 56 15 hvcurveto
          9 50 6 50 48 vvcurveto
          -40 5 -27 -78 -4 -11 -5 -7 -12 -25 callsubr
          224 hlineto
          -35 callsubr
          213 91 vlineto
          31 28 -2 -6 17 hvcurveto
          11 -5 7 -6 3 -11 16 -69 rcurveline
          41 hlineto
          -90 callgsubr
          351 -2 vlineto
          -55 -22 -49 -42 -51 vvcurveto
          -48 41 -22 49 -1 vhcurveto
          34 36 11 17 25 hvcurveto
          endchar
        </CharString>
        <CharString name="Eth">
          -60 callsubr
        </CharString>
        <CharString name="Euro">
          65 332 callsubr
          115 85 vstem
          478 20 rmoveto
          7 40 2 43 -1 37 -45 3 rcurveline
          -23 -66 -4 -11 300 callgsubr
          -10 -14 -26 -11 -30 hhcurveto
          -72 -41 52 92 -13 hvcurveto
          162 41 -165 hlineto
          -1 10 0 10 10 vvcurveto
          11 0 11 1 10 vhcurveto
          170 40 -166 hlineto
          104 14 48 47 65 hhcurveto
          26 27 -8 -9 15 hvcurveto
          9 -7 6 303 callgsubr
          -2 39 rrcurveto
          17 -41 -52 8 -42 hhcurveto
          -117 -85 -63 -126 -25 hvcurveto
          -81 -40 76 325 callgsubr
          -79 -41 83 hlineto
          -119 18 73 -64 125 hhcurveto
          50 57 12 16 36 hvcurveto
          endchar
        </CharString>
        <CharString name="Euro.tf">
          -40 332 callsubr
          66 84 vstem
          1 175 rmoveto
          69 hlineto
          -122 16 68 -61 121 hhcurveto
          47 53 11 16 34 hvcurveto
          8 40 2 44 -3 40 -44 4 rcurveline
          -21 -68 -4 -12 -6 -9 -9 -7 rlinecurve
          -11 -13 -24 -9 -29 hhcurveto
          -65 -36 50 94 -11 hvcurveto
          148 41 -151 hlineto
          -1 9 0 9 9 vvcurveto
          12 0 12 1 11 vhcurveto
          154 40 -151 hlineto
          104 14 43 47 60 hhcurveto
          23 23 -7 -10 13 hvcurveto
          9 -7 4 303 callgsubr
          -1 39 rrcurveto
          17 -40 -48 8 -39 hhcurveto
          -111 -80 -61 -128 -22 hvcurveto
          -70 -40 65 325 callgsubr
          -65 hlineto
          endchar
        </CharString>
        <CharString name="F">
          -6 0 37 221.5 50.5 218 41 321 callgsubr
          204 41 vstem
          375 256 rmoveto
          56 vlineto
          -177 -6 rlineto
          221 91 vlineto
          31 28 -2 -6 17 hvcurveto
          11 -5 7 -6 3 -11 16 -69 rcurveline
          41 hlineto
          -90 callgsubr
          268 37 vlineto
          -92 12 rlineto
          -11 1 -7 9 10 vvcurveto
          192 vlineto
          endchar
        </CharString>
        <CharString name="G">
          102 -9 18 callgsubr
          hstemhm
          45 92 287 80 hintmask 00111110
          17 callsubr
          hintmask 10011110
          -87 callgsubr
          hintmask 01011110
          46 -48 rlineto
          endchar
        </CharString>
        <CharString name="Gbreve">
          102 -9 18 callgsubr
          36 61 hstemhm
          45 92 287 80 hintmask 00111111
          17 callsubr
          hintmask 10011111
          -87 callgsubr
          hintmask 01011111
          46 -48 rlineto
          -34 724 -69 callgsubr
          endchar
        </CharString>
        <CharString name="Gcircumflex">
          102 -9 18 callgsubr
          55 219 callsubr
          45 92 287 80 hintmask 0011101110000000
          17 callsubr
          hintmask 1001101110000000
          -87 callgsubr
          hintmask 0101101110000000
          46 -48 rlineto
          -288 609 -67 callgsubr
          rlineto
          hintmask 0011110110000000
          147 callgsubr
        </CharString>
        <CharString name="Gcommaaccent">
          102 -169 -21 181 18 callgsubr
          hstemhm
          45 92 150 61 76 80 hintmask 1001111010000000
          17 callsubr
          hintmask 1100111010000000
          -87 callgsubr
          hintmask 1010111110000000
          46 -48 rlineto
          -136 -102 -99 callsubr
        </CharString>
        <CharString name="Gdotaccent">
          102 -9 18 callgsubr
          44 106 hstemhm
          45 92 121 108 58 80 hintmask 0011111010000000
          17 callsubr
          hintmask 1001111010000000
          -87 callgsubr
          hintmask 0101111110000000
          46 -48 rlineto
          -118 678 -23 callsubr
        </CharString>
        <CharString name="H">
          352 callsubr
          321 callgsubr
          268 81 vstem
          -48 callgsubr
          endchar
        </CharString>
        <CharString name="Hbar">
          187 0 37 213 46 84 40 110 38 321 callgsubr
          268 81 vstem
          44 380 rmoveto
          73 -309 hlineto
          -13 -6 -28 callgsubr
          -57 10 callgsubr
          230 37 vlineto
          -54 11 205 callgsubr
          8 12 vvcurveto
          180 268 -179 vlineto
          -13 -6 -28 callgsubr
          -50 10 callgsubr
          227 37 vlineto
          -58 11 205 callgsubr
          8 13 vvcurveto
          309 73 40 -73 75 vlineto
          13 6 9 13 2 vhcurveto
          58 11 rlineto
          38 -227 -38 vlineto
          50 -11 rlineto
          13 -3 6 -7 -13 vvcurveto
          -76 -268 76 188 callsubr
          2 vhcurveto
          53 11 rlineto
          38 -229 -38 vlineto
          57 272 callsubr
          -9 -13 vvcurveto
          -75 -73 vlineto
          154 -124 rmoveto
          84 268 -84 vlineto
          endchar
        </CharString>
        <CharString name="Hcircumflex">
          352 callsubr
          64 219 callsubr
          117 81 268 81 hintmask 11101110
          -48 callgsubr
          -407 75 -67 callgsubr
          rlineto
          hintmask 11110110
          147 callgsubr
        </CharString>
        <CharString name="I">
          -162 0 37 493 38 -69 callsubr
          endchar
        </CharString>
        <CharString name="IJ">
          119 145 callsubr
          81 212 81 vstem
          -100 callgsubr
          237 -11 -76 callsubr
          endchar
        </CharString>
        <CharString name="Iacute">
          -162 0 37 493 38 -69 callsubr
          21 167 -84 callgsubr
          endchar
        </CharString>
        <CharString name="Iacute_J.NLD">
          132 145 callsubr
          81 225 81 vstem
          -100 callgsubr
          21 167 -84 callgsubr
          229 -178 -76 callsubr
          74 178 -84 callgsubr
          endchar
        </CharString>
        <CharString name="Ibreve">
          -162 23 callsubr
          45 61 -69 callsubr
          21 190 -69 callgsubr
          endchar
        </CharString>
        <CharString name="Icircumflex">
          -162 23 callsubr
          64 219 callsubr
          117 81 hintmask 11011000
          -100 callgsubr
          -233 75 -67 callgsubr
          rlineto
          hintmask 11101000
          147 callgsubr
        </CharString>
        <CharString name="Idieresis">
          -162 23 callsubr
          52 96 hstemhm
          21 94 2 81 1 94 hintmask 11101000
          -100 callgsubr
          hintmask 11110100
          -159 138 -85 callsubr
          endchar
        </CharString>
        <CharString name="Idotaccent">
          -162 23 callsubr
          53 106 hstemhm
          103 108 -94 81 hintmask 11001000
          -100 callgsubr
          hintmask 11110000
          -63 144 -23 callsubr
        </CharString>
        <CharString name="Igrave">
          -162 23 callsubr
          69 -20 -69 callsubr
          -204 228 -8 callsubr
          endchar
        </CharString>
        <CharString name="Imacron">
          -162 23 callsubr
          71 53 -69 callsubr
          -240 109 186 callgsubr
          endchar
        </CharString>
        <CharString name="Iogonek">
          -162 -188 49 139 37 493 38 hstemhm
          61 69 -13 81 hintmask 11101000
          245 -160 rmoveto
          -13 33 rlineto
          hintmask 11110000
          -8 -17 -19 -4 -15 hhcurveto
          -29 -22 14 29 37 38 38 52 21 hvcurveto
          hintmask 11101000
          54 37 hlineto
          -57 11 205 callgsubr
          8 13 vvcurveto
          425 vlineto
          13 6 303 callsubr
          -33 callsubr
          7 -9 -12 vvcurveto
          -426 vlineto
          -12 -6 -28 callgsubr
          hintmask 11110000
          132 callsubr
          118 -2 vlineto
          -50 -22 -47 -42 -51 vvcurveto
          -48 41 -22 49 -1 vhcurveto
          hintmask 11101000
          33 37 11 17 24 hvcurveto
          endchar
        </CharString>
        <CharString name="Itilde">
          -162 23 callsubr
          48 271 callgsubr
          117 81 hintmask 11011100
          -100 callgsubr
          hintmask 11100100
          39 177 95 callsubr
          hintmask 11011100
          -29 callgsubr
          hintmask 11100100
          37 33 -51 53 hhcurveto
          51 37 48 43 13 hvcurveto
          endchar
        </CharString>
        <CharString name="J">
          -182 530 38 hstem
          108 81 vstem
          209 519 -76 callsubr
          endchar
        </CharString>
        <CharString name="Jacute">
          -182 530 38 hstem
          108 81 vstem
          209 519 -76 callsubr
          75 178 -84 callgsubr
          endchar
        </CharString>
        <CharString name="Jcircumflex">
          -182 530 38 64 219 callsubr
          108 81 hintmask 10110000
          209 519 -76 callsubr
          -179 86 -67 callgsubr
          rlineto
          hintmask 11010000
          147 callgsubr
        </CharString>
        <CharString name="K">
          101 145 callsubr
          80 162 197 vstem
          -53 callgsubr
          endchar
        </CharString>
        <CharString name="Kcommaaccent">
          101 218 callgsubr
          37 493 38 hstemhm
          117 80 117 61 -16 197 hintmask 11110100
          -53 callgsubr
          hintmask 11111000
          335 -106 -99 callsubr
        </CharString>
        <CharString name="L">
          20 0 44 486 38 321 callgsubr
          236 41 vstem
          -87 callsubr
          endchar
        </CharString>
        <CharString name="Lacute">
          20 0 44 486 38 321 callgsubr
          236 41 vstem
          -87 callsubr
          -108 524 -84 callgsubr
          endchar
        </CharString>
        <CharString name="Lcaron">
          21 0 44 486 38 321 callgsubr
          236 41 vstem
          -87 callsubr
          -67 223 51 callgsubr
        </CharString>
        <CharString name="Lcommaaccent">
          20 218 callgsubr
          44 486 38 321 callgsubr
          68 61 107 41 vstem
          -87 callsubr
          -107 -279 -99 callsubr
        </CharString>
        <CharString name="Ldot">
          21 0 44 215 105 166 38 hstemhm
          117 81 144 107 -15 41 hintmask 10110100
          -87 callsubr
          hintmask 11111000
          15 139 rmoveto
          -3 callgsubr
          endchar
        </CharString>
        <CharString name="Lslash">
          21 0 44 486 38 hstem
          118 81 236 41 vstem
          39 196 rmoveto
          79 33 rlineto
          -159 vlineto
          -13 176 callsubr
          -10 rlineto
          -37 419 vlineto
          11 54 4 62 1 52 -41 5 rcurveline
          -32 -98 -3 -11 -7 -7 -11 -4 rlinecurve
          -6 -16 -29 -3 -35 hhcurveto
          -103 215 hlineto
          160 66 rlineto
          53 vlineto
          -160 -71 rlineto
          189 vlineto
          267 callsubr
          75 12 rlineto
          38 -252 -38 vlineto
          58 -11 23 callgsubr
          -218 vlineto
          -79 -32 rlineto
          endchar
        </CharString>
        <CharString name="M">
          316 0 37 460 71 -38 38 hstemhm
          23 202 -202 754 -221 221 hintmask 10101000
          635 494 rmoveto
          -2 14 6 9 14 2 66 11 rcurveline
          38 -198 vlineto
          -121 -426 -137 426 rlineto
          -197 -38 hlineto
          65 -11 13 -2 7 -9 -2 -13 rlinecurve
          hintmask 11010100
          -52 -425 -1 -13 -7 -7 -11 -2 rlinecurve
          -55 10 callgsubr
          202 37 vlineto
          -74 12 51 447 159 -472 rlineto
          57 hlineto
          135 473 71 -448 -68 -12 rlineto
          -37 221 37 vlineto
          -54 11 -11 2 -8 7 -1 12 rlinecurve
          endchar
        </CharString>
        <CharString name="N">
          170 145 callsubr
          52 319 53 vstem
          -92 callgsubr
          endchar
        </CharString>
        <CharString name="NULL">
          endchar
        </CharString>
        <CharString name="Nacute">
          170 145 callsubr
          52 319 53 vstem
          -92 callgsubr
          -102 178 -84 callgsubr
          endchar
        </CharString>
        <CharString name="Ncaron">
          170 145 callsubr
          52 319 53 vstem
          -92 callgsubr
          -125 233 -63 callgsubr
        </CharString>
        <CharString name="Ncommaaccent">
          170 218 callgsubr
          37 493 38 hstem
          117 52 164 61 94 53 vstem
          -92 callgsubr
          -166 -625 -99 callsubr
        </CharString>
        <CharString name="Ntilde">
          170 23 callsubr
          48 271 callgsubr
          117 52 319 53 hintmask 11011110
          -92 callgsubr
          hintmask 11100110
          -84 188 -27 callsubr
        </CharString>
        <CharString name="O">
          156 callgsubr
          hstem
          45 90 312 90 vstem
          -97 callgsubr
          endchar
        </CharString>
        <CharString name="OE">
          297 -8 40 -32 32 -32 44 222 51 210 41 -33 39 hstemhm
          45 89 248 80 204 40 hintmask 0101011100000000
          299 32 rmoveto
          -110 -55 85 166 171 59 81 108 27 29 -6 -15 25 hvcurveto
          -460 vlineto
          -16 -25 -28 -6 -30 hhcurveto
          hintmask 0011101110000000
          426 -32 rmoveto
          10 50 5 50 1 48 -40 5 rcurveline
          -28 -78 -3 -11 -6 -7 -11 -25 callsubr
          224 hlineto
          -35 callsubr
          213 90 vlineto
          32 28 -2 -6 16 hvcurveto
          11 -4 8 -6 2 -12 17 -69 rcurveline
          40 hlineto
          4 50 1 44 -4 46 rrcurveto
          -325 -1 hlineto
          hintmask 1001011100000000
          5 -26 -26 2 -24 hhcurveto
          -160 -101 -102 -200 -184 85 -96 161 30 32 4 5 29 hvcurveto
          -1 vlineto
          endchar
        </CharString>
        <CharString name="Oacute">
          156 callgsubr
          hstem
          45 90 312 90 vstem
          -97 callgsubr
          138 163 -84 callgsubr
          endchar
        </CharString>
        <CharString name="Obreve">
          156 callgsubr
          36 61 hstem
          45 90 312 90 vstem
          -97 callgsubr
          138 186 -69 callgsubr
          endchar
        </CharString>
        <CharString name="Ocircumflex">
          156 callgsubr
          55 219 callsubr
          45 90 312 90 hintmask 11011100
          -97 callgsubr
          -116 71 -67 callgsubr
          rlineto
          hintmask 11101100
          147 callgsubr
        </CharString>
        <CharString name="Odieresis">
          156 callgsubr
          43 96 hstemhm
          45 90 21 94 84 94 19 90 hintmask 11010010
          -97 callgsubr
          hintmask 11111110
          -42 134 -85 callsubr
          endchar
        </CharString>
        <CharString name="Ograve">
          156 callgsubr
          60 -20 hstem
          45 90 312 90 vstem
          -97 callgsubr
          -87 224 -8 callsubr
          endchar
        </CharString>
        <CharString name="Ohungarumlaut">
          156 callgsubr
          hstem
          45 90 312 90 vstem
          -97 callgsubr
          -99 65 21 callgsubr
        </CharString>
        <CharString name="Omacron">
          156 callgsubr
          62 53 hstem
          45 90 34 246 32 90 vstem
          -97 callgsubr
          -123 105 186 callgsubr
          endchar
        </CharString>
        <CharString name="Oslash">
          106 -9 41 504 41 hstem
          45 86 319 87 vstem
          537 293 rmoveto
          111 -31 84 -63 47 vhcurveto
          33 65 -41 22 -33 -64 rlineto
          12 -29 -34 7 -39 hhcurveto
          -154 -101 -108 -194 -111 32 -85 63 -46 hvcurveto
          -41 -79 42 -22 39 78 rlineto
          -13 29 34 -6 38 hhcurveto
          156 100 110 192 hvcurveto
          -406 -10 rmoveto
          173 58 80 102 36 29 -9 -18 23 vhcurveto
          -206 -419 rlineto
          -28 42 -14 65 86 vvcurveto
          159 -251 rmoveto
          -35 -29 9 18 -24 hvcurveto
          207 418 rlineto
          27 -42 14 -64 -85 vvcurveto
          -173 -59 -81 -101 vhcurveto
          endchar
        </CharString>
        <CharString name="Otilde">
          156 callgsubr
          39 271 callgsubr
          45 90 312 90 hintmask 11011110
          -97 callgsubr
          hintmask 11100110
          156 173 -27 callsubr
        </CharString>
        <CharString name="P">
          36 0 37 181 41 274 35 -35 40 hstemhm
          117 81 201 86 hintmask 11011100
          198 529 rmoveto
          18 20 4 33 hhcurveto
          88 42 -33 -88 -118 -61 -35 -69 -29 -18 1 2 -24 hvcurveto
          106 -225 rmoveto
          -88 12 rlineto
          -11 1 -7 9 10 vvcurveto
          151 vlineto
          -1 24 23 -1 24 hhcurveto
          126 90 71 124 101 -47 59 -151 hvcurveto
          hintmask 11101100
          -63 -21 -5 -45 hhcurveto
          -118 -38 hlineto
          61 -12 rlineto
          10 -2 6 -9 -9 vvcurveto
          -429 vlineto
          -11 -7 -8 -12 -2 vhcurveto
          132 callsubr
          264 vlineto
          endchar
        </CharString>
        <CharString name="Q">
          106 -151 62 91 32 -11 -21 532 43 hstemhm
          45 89 314 89 hintmask 10111100
          503 -151 rmoveto
          39 36 17 12 15 hvcurveto
          -8 34 rlineto
          -1 -9 -12 0 -13 hhcurveto
          -48 -33 22 28 -37 hvcurveto
          -22 16 -22 15 -26 10 rrcurveto
          107 33 67 103 155 vvcurveto
          175 -79 109 -157 -155 -101 -109 -193 -174 79 -109 156 -1 vhcurveto
          -35 81 38 -107 104 hhcurveto
          -211 685 rmoveto
          105 51 -83 -165 hvcurveto
          hintmask 11011100
          -172 -58 -80 -100 -105 -51 84 165 vhcurveto
          hintmask 10111100
          172 58 79 100 vhcurveto
          endchar
        </CharString>
        <CharString name="R">
          -89 callsubr
          endchar
        </CharString>
        <CharString name="Racute">
          -89 callsubr
          369 697 -84 callgsubr
          endchar
        </CharString>
        <CharString name="Rcaron">
          -89 callsubr
          346 752 -63 callgsubr
        </CharString>
        <CharString name="Rcommaaccent">
          90 218 callgsubr
          37 213 40 243 35 -35 41 hstemhm
          117 80 109 61 30 86 hintmask 11101101
          197 528 rmoveto
          2 13 29 3 29 hhcurveto
          99 30 -42 -73 -88 -43 -39 -62 -1 hvcurveto
          -16 -47 -1 2 -32 hvcurveto
          82 -291 rmoveto
          37 vlineto
          -61 11 rlineto
          -14 3 -7 6 13 vvcurveto
          180 94 vlineto
          17 -18 16 -30 18 -37 36 -77 rcurveline
          -54 26 16 -34 23 hhcurveto
          112 37 hlineto
          -40 9 -16 4 -8 4 -9 18 rlinecurve
          -54 106 -21 40 -19 26 -28 18 rlinecurve
          51 13 72 35 113 vvcurveto
          102 -56 49 -146 vhcurveto
          hintmask 11110111
          -49 -32 -6 -43 hhcurveto
          -117 -38 hlineto
          57 -11 rlineto
          13 -2 7 -7 -14 vvcurveto
          -426 -72 callgsubr
          -57 10 callgsubr
          vlineto
          327 -106 -99 callsubr
        </CharString>
        <CharString name="S">
          -11 -12 40 510 40 hstem
          59 76 207 82 vstem
          -96 callsubr
          -6 -47 -3 -49 2 -47 rrcurveto
          -23 38 63 -24 77 hhcurveto
          138 59 82 81 hvcurveto
          endchar
        </CharString>
        <CharString name="Sacute">
          -11 -12 40 510 40 hstem
          59 76 207 82 vstem
          -96 callsubr
          -6 -47 -3 -49 2 -47 rrcurveto
          -23 38 63 -24 77 hhcurveto
          138 59 82 81 hvcurveto
          -49 546 -84 callgsubr
          endchar
        </CharString>
        <CharString name="Scaron">
          -11 -12 40 510 40 hstem
          59 76 207 82 vstem
          -96 callsubr
          -6 -47 -3 -49 2 -47 rrcurveto
          -23 38 63 -24 77 hhcurveto
          138 59 82 81 hvcurveto
          -72 601 -63 callgsubr
        </CharString>
        <CharString name="Scedilla">
          -11 298 callgsubr
          19 40 510 40 hstemhm
          59 76 92 70 45 82 hintmask 10111110
          -96 callsubr
          hintmask 11111110
          -6 -47 -3 -49 2 -47 33 -20 51 -20 62 -6 -18 -53 rcurveline
          -76 callgsubr
          hintmask 10111110
          6 19 rlineto
          136 59 82 81 hvcurveto
          endchar
        </CharString>
        <CharString name="Scircumflex">
          -11 -12 40 510 40 54 219 callsubr
          59 76 207 82 hintmask 11011100
          -96 callsubr
          -6 -47 -3 -49 2 -47 rrcurveto
          -23 38 63 -24 77 hhcurveto
          138 59 82 81 hvcurveto
          -303 454 -67 callgsubr
          rlineto
          hintmask 11101100
          147 callgsubr
        </CharString>
        <CharString name="Scommaaccent">
          -11 -169 -21 178 40 510 40 hstem
          59 76 79 61 67 82 vstem
          -96 callsubr
          -6 -47 -3 -49 2 -47 rrcurveto
          -23 38 63 -24 77 hhcurveto
          138 59 82 81 hvcurveto
          -149 -257 -99 callsubr
        </CharString>
        <CharString name="T">
          -46 callsubr
          endchar
        </CharString>
        <CharString name="Tbar">
          74 0 37 207 46 105 173 -41 41 hstemhm
          30 44 161 81 160 43 hintmask 11010110
          139 244 rmoveto
          96 -172 hlineto
          -13 -6 -7 -14 -2 vhcurveto
          -85 -13 rlineto
          -37 291 37 vlineto
          -85 13 rlineto
          -14 2 -6 7 13 vvcurveto
          172 96 46 -96 237 44 vlineto
          33 26 -3 -5 15 hvcurveto
          10 -4 6 -6 2 -12 rrcurveto
          hintmask 11100110
          24 -102 rlineto
          43 hlineto
          hintmask 11011110
          130 callsubr
          hintmask 11101110
          153 callsubr
          hintmask 11010110
          24 102 2 12 6 6 12 4 rlinecurve
          5 13 29 3 32 hhcurveto
          43 -237 -96 hlineto
          endchar
        </CharString>
        <CharString name="Tcaron">
          -46 callsubr
          262 752 -63 callgsubr
        </CharString>
        <CharString name="Thorn">
          34 0 37 84 39 246 41 83 38 hstem
          115 79 198 87 vstem
          275 hmoveto
          37 vlineto
          -61 11 16 callgsubr
          53 vlineto
          -2 26 26 -1 38 hhcurveto
          125 70 53 119 106 -62 48 -115 -36 -34 -2 -4 -38 hvcurveto
          55 280 callsubr
          13 2 vhcurveto
          61 11 rlineto
          38 -230 -38 vlineto
          51 -11 rlineto
          12 -3 7 -8 -12 vvcurveto
          -426 vlineto
          -12 -6 -28 callgsubr
          -51 10 callgsubr
          vlineto
          231 160 rmoveto
          -26 -26 2 3 -30 hvcurveto
          236 vlineto
          2 24 27 3 27 hhcurveto
          89 31 -42 -75 -97 -46 -32 -70 hvcurveto
          endchar
        </CharString>
        <CharString name="U">
          138 -8 41 497 38 hstem
          97 83 280 57 vstem
          -103 callsubr
          endchar
        </CharString>
        <CharString name="Uacute">
          154 callsubr
          hstem
          97 83 280 57 vstem
          -103 callsubr
          -125 129 -84 callgsubr
          endchar
        </CharString>
        <CharString name="Ubreve">
          154 callsubr
          45 61 hstem
          97 83 280 57 vstem
          -103 callsubr
          -125 152 -69 callgsubr
          endchar
        </CharString>
        <CharString name="Ucircumflex">
          154 callsubr
          64 219 callsubr
          97 83 280 57 hintmask 11011100
          -103 callsubr
          -379 37 -67 callgsubr
          rlineto
          hintmask 11101100
          147 callgsubr
        </CharString>
        <CharString name="Udieresis">
          154 callsubr
          52 96 hstemhm
          97 83 0 94 84 94 8 57 hintmask 11010010
          -103 callsubr
          hintmask 11101110
          -305 100 -85 callsubr
          endchar
        </CharString>
        <CharString name="Ugrave">
          154 callsubr
          69 -20 hstem
          97 83 280 57 vstem
          -103 callsubr
          -350 190 -8 callsubr
          endchar
        </CharString>
        <CharString name="Uhungarumlaut">
          154 callsubr
          hstem
          97 83 280 57 vstem
          -103 callsubr
          -362 31 21 callgsubr
        </CharString>
        <CharString name="Umacron">
          154 callsubr
          71 53 hstemhm
          97 83 13 70 116 60 21 57 hintmask 11110110
          379 568 rmoveto
          -38 vlineto
          hintmask 11110010
          63 122 callgsubr
          -8 -13 vvcurveto
          -291 vlineto
          -111 -40 -61 -101 -85 -54 46 131 vhcurveto
          285 280 callsubr
          12 2 vhcurveto
          hintmask 11111010
          64 12 rlineto
          38 vlineto
          hintmask 11110010
          -226 -38 hlineto
          42 -10 rlineto
          12 -3 301 callsubr
          -278 vlineto
          -152 64 -74 144 134 78 65 152 vhcurveto
          -45 callsubr
          vlineto
          hintmask 11111110
          -386 71 186 callgsubr
          endchar
        </CharString>
        <CharString name="Uogonek">
          138 -188 49 131 41 497 38 hstem
          97 83 74 69 137 57 vstem
          254 -117 rmoveto
          -48 41 -22 50 -1 vhcurveto
          32 37 11 17 25 hvcurveto
          -15 33 rlineto
          -8 -16 -19 -4 -15 hhcurveto
          -30 -21 14 28 40 43 35 71 46 hvcurveto
          53 33 27 62 90 vvcurveto
          -45 callsubr
          -200 -38 vlineto
          63 122 callgsubr
          -8 -13 vvcurveto
          -291 vlineto
          -111 -40 -61 -101 -85 -54 46 131 vhcurveto
          285 280 callsubr
          12 2 vhcurveto
          64 12 rlineto
          38 -226 -38 vlineto
          42 -10 rlineto
          12 -3 301 callsubr
          -278 vlineto
          -152 64 -74 144 15 14 1 1 13 vhcurveto
          -1 vlineto
          -44 -21 -49 -37 -52 vvcurveto
          endchar
        </CharString>
        <CharString name="Uring">
          154 callsubr
          29 39 96 39 hstemhm
          97 83 37 53 93 52 45 57 hintmask 11011111
          -103 callsubr
          hintmask 11111111
          -164 117 73 callsubr
        </CharString>
        <CharString name="Utilde">
          154 callsubr
          48 271 callgsubr
          97 83 280 57 hintmask 11011110
          -103 callsubr
          hintmask 11100110
          -107 139 -27 callsubr
        </CharString>
        <CharString name="V">
          84 -2 83 -62 -21 532 38 hstemhm
          -3 219 -219 562 -192 192 hintmask 01101000
          249 -2 rmoveto
          74 hlineto
          hintmask 10110100
          170 502 3 11 8 5 11 3 rlinecurve
          44 11 rlineto
          38 -192 -38 vlineto
          74 -14 -141 -435 -159 435 75 14 rlineto
          38 -219 -38 vlineto
          41 -11 12 -3 6 -5 4 -11 rlinecurve
          endchar
        </CharString>
        <CharString name="W">
          154 callgsubr
          86 callsubr
          hintmask 01101000
          270 callsubr
          hintmask 10110110
          -84 callsubr
          endchar
        </CharString>
        <CharString name="Wacute">
          154 callgsubr
          86 callsubr
          hintmask 01101000
          270 callsubr
          hintmask 10110110
          -84 callsubr
          136 320 -84 callgsubr
          endchar
        </CharString>
        <CharString name="Wcircumflex">
          154 callgsubr
          64 -20 23 -20 86 callsubr
          hintmask 0110101000000000
          270 callsubr
          hintmask 1010110110000000
          -84 callsubr
          -118 228 -67 callgsubr
          rlineto
          hintmask 0111001000000000
          147 callgsubr
        </CharString>
        <CharString name="Wdieresis">
          154 callgsubr
          52 96 hstemhm
          -1 218 54 94 -54 212 -74 94 80 189 hintmask 0111110110000000
          270 callsubr
          147 503 3 12 7 5 11 3 rlinecurve
          45 11 rlineto
          38 -189 -38 vlineto
          73 -14 rlineto
          hintmask 1011101010000000
          -122 -432 -125 432 74 14 rlineto
          38 -212 -38 vlineto
          37 -11 11 -3 6 -6 4 -11 rlinecurve
          15 -43 -111 -376 -129 436 73 14 rlineto
          38 -218 -38 vlineto
          44 -11 11 -3 7 -6 3 -11 rlinecurve
          159 -503 rlineto
          76 hlineto
          110 381 rlineto
          hintmask 0111110110000000
          -44 291 -85 callsubr
          endchar
        </CharString>
        <CharString name="Wgrave">
          154 callgsubr
          69 -20 86 callsubr
          hintmask 01110100
          270 callsubr
          hintmask 10111011
          -84 callsubr
          -89 381 -8 callsubr
          endchar
        </CharString>
        <CharString name="X">
          69 23 callsubr
          hstemhm
          9 200 -188 224 70 222 -197 183 hintmask 11101000
          537 hmoveto
          37 vlineto
          -42 11 -10 2 -8 4 -5 10 rlinecurve
          -158 236 rlineto
          hintmask 11010100
          142 203 5 9 7 4 10 3 rlinecurve
          45 11 rlineto
          38 -183 -38 vlineto
          65 -13 -118 -181 -113 181 71 13 rlineto
          38 -224 -38 vlineto
          42 -11 10 -3 7 -5 6 -9 rlinecurve
          146 -223 rlineto
          hintmask 11101000
          -150 -215 -6 -10 -6 -4 -11 -2 rlinecurve
          -50 10 callgsubr
          200 37 vlineto
          -74 12 126 193 122 -193 -68 -12 rlineto
          -37 vlineto
          endchar
        </CharString>
        <CharString name="Y">
          57 23 callsubr
          201 callsubr
          hintmask 11010000
          32 callsubr
          hintmask 11111000
          -71 callgsubr
          hintmask 11010000
          8 callsubr
          endchar
        </CharString>
        <CharString name="Yacute">
          57 23 callsubr
          201 callsubr
          hintmask 11010000
          32 callsubr
          hintmask 11111000
          -71 callgsubr
          hintmask 11010000
          8 callsubr
          266 697 -84 callgsubr
          endchar
        </CharString>
        <CharString name="Ycircumflex">
          57 23 callsubr
          64 -20 23 -20 201 callsubr
          hintmask 11010100
          32 callsubr
          hintmask 11011110
          -71 callgsubr
          hintmask 11010100
          8 callsubr
          12 605 -67 callgsubr
          rlineto
          hintmask 11100100
          147 callgsubr
        </CharString>
        <CharString name="Ydieresis">
          57 23 callsubr
          52 96 hstemhm
          -2 221 -87 94 4 82 -2 94 -63 187 hintmask 11100100
          32 callsubr
          hintmask 11110101
          -71 callgsubr
          hintmask 11100100
          8 callsubr
          hintmask 11101010
          86 668 -85 callsubr
          endchar
        </CharString>
        <CharString name="Ygrave">
          57 23 callsubr
          69 -20 201 callsubr
          hintmask 11101000
          32 callsubr
          hintmask 11111100
          -71 callgsubr
          hintmask 11101000
          8 callsubr
          41 758 -8 callsubr
          endchar
        </CharString>
        <CharString name="Z">
          -75 callsubr
          endchar
        </CharString>
        <CharString name="Zacute">
          -75 callsubr
          356 697 -84 callgsubr
          endchar
        </CharString>
        <CharString name="Zcaron">
          -75 callsubr
          333 752 -63 callgsubr
        </CharString>
        <CharString name="Zdotaccent">
          20 0 44 362 162 -42 42 53 106 hstemhm
          208 108 hintmask 10101000
          441 hmoveto
          8 48 6 70 -2 48 -43 5 rcurveline
          -30 -96 -3 -12 -7 -6 -10 -4 rlinecurve
          -6 -18 -29 -3 -34 hhcurveto
          -150 hlineto
          324 492 -16 32 rlineto
          -366 hlineto
          hintmask 11001000
          -8 -51 -4 -59 3 -52 rrcurveto
          45 hlineto
          hintmask 10111000
          25 91 4 11 6 6 11 4 rlinecurve
          7 17 29 1 34 hhcurveto
          119 hlineto
          -327 -493 19 -33 rlineto
          272 674 -23 callsubr
        </CharString>
        <CharString name="__periodcentered.CAT">
          -389 220 104 hstem
          -11 107 vstem
          96 272 118 callsubr
          endchar
        </CharString>
        <CharString name="__periodcentered.CAT.case">
          -476 261 104 hstem
          -152 107 vstem
          -45 313 rmoveto
          31 -22 21 -32 -32 -21 -21 -31 -31 21 -21 32 32 22 21 31 vhcurveto
          endchar
        </CharString>
        <CharString name="a">
          -41 callgsubr
          hstem
          35 83 161 76 vstem
          -104 callsubr
          endchar
        </CharString>
        <CharString name="aacute">
          -41 callgsubr
          217 -20 hstem
          35 83 161 76 vstem
          -104 callsubr
          23 466 rmoveto
          -80 callsubr
        </CharString>
        <CharString name="abreve">
          -41 callgsubr
          48 62 hstem
          35 83 161 76 vstem
          -104 callsubr
          193 590 -74 callgsubr
        </CharString>
        <CharString name="acircumflex">
          -41 callgsubr
          hstem
          35 83 161 76 vstem
          -104 callsubr
          -50 466 -68 callsubr
        </CharString>
        <CharString name="acute">
          -113 640 -20 hstem
          123 186 vstem
          147 458 rmoveto
          -80 callsubr
        </CharString>
        <CharString name="acutecomb">
          640 -20 hstem
          -59 186 vstem
          -35 458 rmoveto
          -80 callsubr
        </CharString>
        <CharString name="acutecomb.case">
          607 147 hstem
          -77 215 vstem
          138 697 -84 callgsubr
          endchar
        </CharString>
        <CharString name="adieresis">
          -41 callgsubr
          61 96 hstemhm
          35 83 -36 93 69 93 -58 76 hintmask 11111001
          -104 callsubr
          hintmask 11110110
          23 540 -89 callgsubr
        </CharString>
        <CharString name="ae">
          256 callgsubr
          hstemhm
          35 83 161 79 186 78 hintmask 0101011110000000
          76 callsubr
          hintmask 1011101110000000
          61 callgsubr
          hintmask 0101011110000000
          124 callsubr
          hintmask 1011011110000000
          133 callgsubr
          endchar
        </CharString>
        <CharString name="agrave">
          -41 callgsubr
          217 -20 hstem
          35 83 161 76 vstem
          -104 callsubr
          1 648 -35 callgsubr
        </CharString>
        <CharString name="amacron">
          -41 callgsubr
          72 53 hstemhm
          35 83 -29 242 -52 76 hintmask 11111010
          -104 callsubr
          hintmask 11110100
          -63 503 139 callsubr
        </CharString>
        <CharString name="ampersand">
          107 -10 43 -39 53 227 38 231 33 hstemhm
          40 75 -26 75 140 70 58 113 hintmask 10110110
          164 451 rmoveto
          48 25 44 49 47 19 -40 -45 -58 -35 -44 -48 -36 vhcurveto
          -47 65 -10 36 30 vvcurveto
          68 -418 rmoveto
          hintmask 10111010
          -74 -43 45 65 53 29 31 33 26 hvcurveto
          38 -52 69 -81 57 -54 rrcurveto
          hintmask 10110110
          -22 -32 -39 -11 -38 hhcurveto
          hintmask 10110111
          313 241 rmoveto
          38 -186 -38 vlineto
          57 -11 rlineto
          15 -3 1 -12 -8 vvcurveto
          -40 -8 -47 -26 -36 vhcurveto
          -50 50 -62 69 -46 58 rrcurveto
          83 35 51 51 74 vvcurveto
          77 -55 45 -80 -95 -55 -63 -76 -50 23 -48 42 -57 vhcurveto
          hintmask 10111010
          -55 -22 -59 -41 -86 vvcurveto
          -99 79 -44 97 54 57 14 35 43 vhcurveto
          hintmask 01111011
          -33 40 29 -12 31 hhcurveto
          26 27 8 7 21 hvcurveto
          38 vlineto
          -60 -19 5 39 -40 hvcurveto
          42 43 16 51 8 54 2 13 2 6 13 5 rrcurveto
          endchar
        </CharString>
        <CharString name="aogonek">
          -38 -188 49 131 51 -25 -21 175.5 38 154.5 58 hstemhm
          35 83 107 69 -15 76 hintmask 10111101
          409 -160 rmoveto
          -13 33 rlineto
          hintmask 10111110
          -8 -17 -18 -4 -15 hhcurveto
          -30 -22 14 29 36 37 37 51 21 hvcurveto
          hintmask 11011101
          15 3 14 4 7 2 rrcurveto
          34 vlineto
          -41 4 rlineto
          -15 1 -7 7 16 vvcurveto
          205 vlineto
          101 -48 48 -97 -77 -66 -30 -57 -20 vhcurveto
          19 -18 rlineto
          33 35 41 14 46 hhcurveto
          62 29 -26 -76 hvcurveto
          -49 vlineto
          -83 -7 rlineto
          -75 -6 -86 -24 -85 vvcurveto
          -65 50 -35 67 vhcurveto
          hintmask 11011110
          51 48 21 33 31 hvcurveto
          hintmask 10111110
          6 -26 14 -16 22 -7 rrcurveto
          -1 vlineto
          -49 -22 -50 -41 -50 155 callsubr
          hintmask 10111101
          33 37 11 17 23 hvcurveto
          hintmask 11011101
          -229 203 rmoveto
          -41 -21 21 35 45 32 21 59 4 hvcurveto
          70 7 rlineto
          -98 vlineto
          -21 -25 -39 -14 -35 hhcurveto
          endchar
        </CharString>
        <CharString name="approxequal">
          2 96 61 -12 62 34 61 -12 62 hstemhm
          58 361 hintmask 10101000
          419 180 rmoveto
          262 callsubr
          hintmask 01101000
          99 callgsubr
          hintmask 10101000
          215 callgsubr
          145 vmoveto
          262 callsubr
          hintmask 10011000
          99 callgsubr
          hintmask 10101000
          215 callgsubr
          endchar
        </CharString>
        <CharString name="aring">
          -41 callgsubr
          43 37 94 38 hstemhm
          35 83 -5 52 90 52 -28 76 hintmask 1111110010000000
          -104 callsubr
          hintmask 1111101100000000
          155 558 -49 callgsubr
        </CharString>
        <CharString name="asciicircum">
          -31 291 268 hstem
          38 371 vstem
          38 315 rmoveto
          33 -24 148 189 153 -189 37 24 -156 244 -67 -5 rlineto
          endchar
        </CharString>
        <CharString name="asciitilde">
          1 168 61 -12 62 hstemhm
          58 361 hintmask 10100000
          419 252 rmoveto
          262 callsubr
          hintmask 01100000
          99 callgsubr
          hintmask 10100000
          215 callgsubr
          endchar
        </CharString>
        <CharString name="asterisk">
          -38 421 -20 95 -20 177 308 callsubr
          496 24 callsubr
        </CharString>
        <CharString name="asterisk.gujr">
          -38 513 -20 77 -20 82 308 callsubr
          532 24 callsubr
        </CharString>
        <CharString name="at">
          294 -188 48 127 64 -62 55 289 50 131 48 hstemhm
          41 58 106 69 182 64 154 52 hintmask 1101111110000000
          337 -188 rmoveto
          78 69 23 31 39 hvcurveto
          -15 29 rlineto
          -19 -30 -71 -16 -56 hhcurveto
          -143 -109 100 193 224 148 137 176 126 125 -70 -174 hvcurveto
          hintmask 1011111110000000
          -146 -89 -80 -42 -16 -7 11 42 71 23 130 14 67 vhcurveto
          -48 16 -16 -24 rlineto
          18 -32 -32 8 -29 hhcurveto
          -122 -73 -133 -112 hvcurveto
          hintmask 1101111110000000
          -89 45 -62 59 68 57 86 88 32 vhcurveto
          hintmask 1011111110000000
          -7 -38 -3 -29 -20 vvcurveto
          -49 17 -36 41 68 144 98 199 181 -120 95 -161 -215 -190 -169 -258 1 vhcurveto
          hintmask 1101111110000000
          -192 1 107 -131 188 hhcurveto
          118 416 rmoveto
          -95 -32 -51 -82 -46 hhcurveto
          -36 -16 53 56 89 39 84 75 26 35 -11 -25 25 hvcurveto
          -4 -20 -6 -24 -9 -25 rrcurveto
          endchar
        </CharString>
        <CharString name="atilde">
          -41 callgsubr
          48 230 callgsubr
          35 83 161 76 hintmask 11110111
          -104 callsubr
          208 570 95 callgsubr
          hintmask 11101011
          -29 callsubr
          hintmask 11110111
          56 callsubr
        </CharString>
        <CharString name="b">
          -5 -8 41 338 54 218 -20 31 -20 hstemhm
          68 78 200 85 hintmask 11011100
          68 20 rmoveto
          -11 25 59 207 callgsubr
          hintmask 11101100
          268 vlineto
          hintmask 11011100
          -12 11 -42 -1 -54 -8 -43 -12 rlinecurve
          -33 vlineto
          54 228 callsubr
          151 -537 244 callsubr
          68 43 -42 -122 -2 hvcurveto
          -122 -1 -44 -52 -82 hhcurveto
          endchar
        </CharString>
        <CharString name="backslash">
          -126 633 -20 hstem
          26 298 vstem
          324 -105 rmoveto
          -231 738 rlineto
          -67 hlineto
          231 -738 rlineto
          endchar
        </CharString>
        <CharString name="bar">
          -247 -110 799 hstem
          83 64 vstem
          83 -110 rmoveto
          64 799 -64 hlineto
          endchar
        </CharString>
        <CharString name="braceleft">
          -156 -147 43 360 221 callgsubr
          56 7 71 57 vvcurveto
          60 -33 34 -68 16 vhcurveto
          68 15 33 31 59 58 -7 70 56 258 callsubr
          -2 -27 hvcurveto
          -91 -5 -41 -43 -78 -75 12 -59 -54 312 callsubr
          -36 -43 -54 -12 -60 -74 260 callgsubr
        </CharString>
        <CharString name="braceleft.gujr">
          -156 -147 43 335 221 callgsubr
          49 7 60 50 vvcurveto
          59 -33 35 -68 15 vhcurveto
          68 15 33 32 58 51 -7 60 48 258 callsubr
          -1 -27 hvcurveto
          -91 -6 -41 -42 -79 -64 12 -52 -46 312 callsubr
          -37 -43 -46 -12 -51 -65 260 callgsubr
        </CharString>
        <CharString name="braceright">
          -156 -147 43 360 63 366 38 hstem
          140 82 vstem
          90 -145 rmoveto
          90 6 42 42 79 74 -13 60 54 vvcurveto
          43 7 36 346 callsubr
          54 13 59 75 vvcurveto
          79 -42 42 -90 5 vhcurveto
          2 254 callsubr
          -56 -7 -70 -58 vvcurveto
          -59 33 -34 68 -15 vhcurveto
          -68 -15 -33 -32 -60 -57 7 -71 -56 vvcurveto
          -62 -26 -23 -55 -11 vhcurveto
          -50 -8 4 -39 rlineto
          21 22 0 2 27 hvcurveto
          endchar
        </CharString>
        <CharString name="braceright.gujr">
          -156 -147 43 335 63 340 -20 20 38 hstemhm
          140 82 hintmask 11101000
          90 -145 rmoveto
          90 6 42 42 79 64 -13 52 46 vvcurveto
          43 7 37 346 callsubr
          46 13 52 64 vvcurveto
          hintmask 11011000
          79 -42 42 -90 6 vhcurveto
          1 254 callsubr
          -48 -7 -60 -51 vvcurveto
          -58 33 -34 68 -15 vhcurveto
          -68 -16 -33 -32 -59 -50 7 -61 -48 vvcurveto
          -62 -26 -23 -55 -11 vhcurveto
          -50 -8 4 -39 rlineto
          hintmask 11101000
          21 22 0 2 27 hvcurveto
          endchar
        </CharString>
        <CharString name="bracketleft">
          -188 -137 -60 callgsubr
          768.5 41 206 callsubr
          717 vlineto
          14 7 7 14 1 vhcurveto
          94 8 rlineto
          37 vlineto
          -53 6 -73 4 -48 -1 -11 -11 rcurveline
          -847 313 callgsubr
        </CharString>
        <CharString name="bracketleft.gujr">
          -188 -137 -60 callgsubr
          719.5 40 206 callsubr
          669 vlineto
          13 7 7 14 1 vhcurveto
          94 8 rlineto
          36 vlineto
          -53 7 -73 4 -48 -1 -11 -11 rcurveline
          -798 313 callgsubr
        </CharString>
        <CharString name="bracketright">
          -188 -137 -60 callgsubr
          768.5 41 350 callsubr
          847 vlineto
          -12 11 -49 1 -72 -4 -53 -6 rlinecurve
          -37 vlineto
          94 -8 rlineto
          13 -1 8 -7 -14 vvcurveto
          -717 199 callgsubr
        </CharString>
        <CharString name="bracketright.gujr">
          -188 -137 -60 callgsubr
          719.5 40 350 callsubr
          798 vlineto
          -12 11 -49 1 -72 -4 -53 -7 rlinecurve
          -36 vlineto
          94 -8 rlineto
          13 -1 8 -7 -13 vvcurveto
          -669 199 callgsubr
        </CharString>
        <CharString name="breve">
          -113 471 62 hstem
          47 270 vstem
          317 582 -74 callgsubr
        </CharString>
        <CharString name="brokenbar">
          -249 -110 799 hstem
          82 64 vstem
          82 345 rmoveto
          64 344 -64 hlineto
          -799 vmoveto
          64 343 -64 hlineto
          endchar
        </CharString>
        <CharString name="bullet">
          -162 147 169 hstem
          69 177 vstem
          246 231 209 callsubr
        </CharString>
        <CharString name="bullet.gujr">
          -87 177 169 hstem
          106 177 vstem
          283 261 209 callsubr
        </CharString>
        <CharString name="bulletoperator">
          -142 165 116 hstem
          110 116 vstem
          226 223 rmoveto
          35 -23 23 -35 -35 -23 -23 -35 -34 23 -24 35 35 23 24 34 vhcurveto
          endchar
        </CharString>
        <CharString name="c">
          270 callgsubr
          hstem
          40 86 vstem
          -88 callsubr
          endchar
        </CharString>
        <CharString name="cacute">
          270 callgsubr
          215 -20 hstem
          40 86 vstem
          -88 callsubr
          154 256 rmoveto
          -80 callsubr
        </CharString>
        <CharString name="caron">
          -113 642 147 callsubr
          49 274 hintmask 01100000
          295 643 rmoveto
          hintmask 10100000
          -20 callsubr
          hintmask 01100000
          230 callsubr
        </CharString>
        <CharString name="ccaron">
          270 callgsubr
          217 147 callsubr
          40 86 hintmask 11011000
          -88 callsubr
          302 441 rmoveto
          hintmask 11101000
          -20 callsubr
          hintmask 11011000
          230 callsubr
        </CharString>
        <CharString name="ccedilla">
          -67 298 callgsubr
          23 54 338 41 hstemhm
          40 86 94 70 hintmask 10111100
          40 202 rmoveto
          hintmask 11111100
          -110 50 -82 100 -15 vhcurveto
          -20 -59 rlineto
          -76 callgsubr
          hintmask 10111100
          7 23 rlineto
          1 hlineto
          72 54 30 49 23 hvcurveto
          -22 19 rlineto
          -24 -23 -36 -20 -45 hhcurveto
          -77 -44 56 117 111 39 54 68 25 20 -7 -10 12 hvcurveto
          10 -8 2 -8 3 -14 16 -61 rcurveline
          40 hlineto
          6 38 4 47 -3 37 rrcurveto
          15 -29 -52 12 -46 hhcurveto
          -132 -69 -94 -129 hvcurveto
          endchar
        </CharString>
        <CharString name="ccircumflex">
          270 callgsubr
          hstem
          40 86 vstem
          -88 callsubr
          81 256 -68 callsubr
        </CharString>
        <CharString name="cdotaccent">
          270 callgsubr
          58 104 hstem
          40 86 56 108 vstem
          -88 callsubr
          250 333 -70 callgsubr
          endchar
        </CharString>
        <CharString name="cedilla">
          -113 -188 32 92 83 hstem
          188 70 vstem
          166 19 rmoveto
          -28 -83 rlineto
          -76 callgsubr
          16 50 rlineto
          endchar
        </CharString>
        <CharString name="cent">
          -47 5 52 339 40 -40 117 hstemhm
          42 86 65 53 -19 54 hintmask 10111000
          42 -28 callsubr
        </CharString>
        <CharString name="cent.tf">
          -40 5 52 339 40 -40 117 hstemhm
          45 86 65 53 -19 54 hintmask 10111000
          45 -28 callsubr
        </CharString>
        <CharString name="circumflex">
          -113 458 171 hstem
          46 274 vstem
          74 458 -68 callsubr
        </CharString>
        <CharString name="colon">
          -250 -8 105 203 104 hstem
          60 107 vstem
          167 352 118 callsubr
          -307 vmoveto
          31 -21 21 -32 -33 -21 -21 -31 -31 21 -22 33 32 21 22 31 vhcurveto
          endchar
        </CharString>
        <CharString name="colon.gujr">
          -205 71 96 133 96 hstem
          87 98 vstem
          185 348 rmoveto
          29 -20 19 -29 -30 -19 -19 -29 -29 19 -19 30 29 20 19 29 vhcurveto
          -229 vmoveto
          28 -20 20 -29 -30 -19 -20 -28 -28 19 -20 30 29 20 20 28 vhcurveto
          endchar
        </CharString>
        <CharString name="comma">
          -255 -147 256 hstem
          102 66 vstem
          168 26 rmoveto
          55 -29 28 -33 -31 -21 -23 -28 -25 15 -14 14 -9 vhcurveto
          11 -6 8 -4 -18 vvcurveto
          -33 -22 -38 -39 -35 vhcurveto
          17 -23 rlineto
          63 37 47 63 73 vvcurveto
          endchar
        </CharString>
        <CharString name="comma.gujr">
          -218 -134 233 hstem
          124 60 vstem
          184 22 rmoveto
          52 -26 25 -31 -27 -19 -21 -26 -23 14 -13 12 -7 vhcurveto
          11 -6 6 -4 -16 vvcurveto
          -30 -19 -35 -36 -31 vhcurveto
          16 -21 rlineto
          57 33 42 58 65 vvcurveto
          endchar
        </CharString>
        <CharString name="copyright">
          251 -40 40 104 52 270 41 104 38 hstem
          42 46 116 72 365 45 vstem
          362 104 rmoveto
          65 46 29 39 20 hvcurveto
          -20 20 rlineto
          -22 -19 -36 -14 -37 hhcurveto
          -69 -36 49 89 83 31 49 60 19 18 -5 -9 13 hvcurveto
          11 -7 2 -8 2 -8 13 -53 rcurveline
          39 hlineto
          6 36 2 36 -2 31 rrcurveto
          14 -19 -47 14 -46 hhcurveto
          -103 -71 -68 -117 -105 58 -73 100 hvcurveto
          -274 181 rmoveto
          166 115 120 161 161 116 -120 -166 -166 -116 -119 -161 -161 -115 119 166 vhcurveto
          -46 hmoveto
          -186 138 -139 184 184 138 139 186 185 -137 139 -185 -184 -138 -139 -185 vhcurveto
          endchar
        </CharString>
        <CharString name="currency">
          36 119 56 212 57 hstem
          97 60 198 63 vstem
          97 277 rmoveto
          -36 11 -32 18 -26 vhcurveto
          -77 -77 40 -41 79 79 rlineto
          -16 25 30 -9 33 hhcurveto
          32 30 10 16 26 hvcurveto
          79 -78 40 40 -78 78 rlineto
          21 28 12 35 37 vvcurveto
          36 -11 33 -20 26 vhcurveto
          77 77 -40 40 -79 -78 rlineto
          16 -26 -30 9 -33 hhcurveto
          -33 -29 -10 -17 -25 hvcurveto
          -80 79 -40 -40 79 -79 rlineto
          -20 -28 -11 -35 -37 vvcurveto
          159 -102 rmoveto
          -55 -44 46 58 56 33 52 64 55 46 -48 -59 -58 -32 -47 -67 hvcurveto
          endchar
        </CharString>
        <CharString name="d">
          16 -59 callsubr
          endchar
        </CharString>
        <CharString name="dagger">
          -127 410 39 hstemhm
          133 84 -69 63 hintmask 10100000
          194 -90 rmoveto
          17 464 rlineto
          9 8 5 13 3 vhcurveto
          90 19 rlineto
          41 vlineto
          hintmask 11000000
          -109 -4 4 99 rlineto
          59 -84 -59 vlineto
          4 -99 -109 4 rlineto
          -41 vlineto
          hintmask 10100000
          89 -19 14 -3 7 -5 1 -13 rlinecurve
          1 -7 16 -453 rlineto
          endchar
        </CharString>
        <CharString name="daggerdbl">
          -114 234 39 137 39 hstemhm
          139 85 -76.5 70.5 -66 54 hintmask 11001000
          201 -91 rmoveto
          10 286 1 11 6 5 15 3 rlinecurve
          96 20 rlineto
          41 vlineto
          hintmask 11010000
          -115 -4 4 97 rlineto
          2 vlineto
          1 13 6 5 14 3 90 19 rcurveline
          41 vlineto
          hintmask 11100000
          -109 -4 4 99 rlineto
          59 -85 -59 vlineto
          4 -99 -108 4 rlineto
          -41 vlineto
          hintmask 11010000
          89 -19 13 -3 7 -4 2 -11 rlinecurve
          3 -102 -114 4 rlineto
          -41 vlineto
          hintmask 11001000
          95 -20 15 -3 6 -5 1 -13 rlinecurve
          -2 vlineto
          11 -281 rlineto
          endchar
        </CharString>
        <CharString name="dcaron">
          29 -59 callsubr
          288 484 51 callgsubr
        </CharString>
        <CharString name="dcroat">
          16 -8 53 327 42 67 43 118 301 callgsubr
          41 84 202 78 hintmask 11101110
          196 481 rmoveto
          131 -76 hlineto
          5 -20 -27 4 -27 hhcurveto
          -126 -86 -72 -150 -142 75 -58 89 56 41 25 31 28 hvcurveto
          -31 9 19 -23 40 hhcurveto
          23 30 7 6 17 hvcurveto
          34 vlineto
          -42 4 rlineto
          -13 1 -8 5 18 vvcurveto
          412 52 43 -52 vlineto
          hintmask 11110110
          118 vlineto
          hintmask 11101110
          -12 12 -41 71 callgsubr
          -46 -131 vlineto
          37 -479 rmoveto
          -58 -50 36 123 hvcurveto
          129 1 54 39 69 hhcurveto
          31 30 -9 -10 17 hvcurveto
          -275 vlineto
          -20 -25 -32 -13 -37 hhcurveto
          endchar
        </CharString>
        <CharString name="degree">
          -140 343 47 160 48 hstem
          40 51 154 52 vstem
          168 343 rmoveto
          72 57 54 73 70 -54 58 -75 -70 -58 -55 -73 -70 58 -57 70 hvcurveto
          1 47 rmoveto
          -43 -35 37 43 46 32 34 45 44 33 -36 -44 -47 -31 -33 -45 hvcurveto
          endchar
        </CharString>
        <CharString name="dieresis">
          -113 484 96 hstem
          54 93 69 93 vstem
          147 532 -89 callgsubr
        </CharString>
        <CharString name="divide">
          -34 49 91 57 54 58 90 hstem
          175 94 vstem
          388 197 rmoveto
          54 -332 -54 vlineto
          213 -103 rmoveto
          27 -20 19 -28 -28 -18 -19 -27 -26 18 -19 28 28 20 19 26 vhcurveto
          260 vmoveto
          27 -20 18 -28 -28 -18 -18 -27 -27 18 -18 28 28 20 18 27 vhcurveto
          endchar
        </CharString>
        <CharString name="dollar">
          -53 7 40 408 39 83 -20 hstemhm
          52 74 49 53 -28 54 55 80 hintmask 11111010
          389 -53 callsubr
        </CharString>
        <CharString name="dollar.tf">
          -40 7 40 408 39 83 -20 hstemhm
          58 74 49 53 -28 54 55 80 hintmask 11111010
          395 -53 callsubr
        </CharString>
        <CharString name="dotaccent">
          -113 483 104 hstem
          135 108 vstem
          243 535 -70 callgsubr
          endchar
        </CharString>
        <CharString name="dotlessi">
          -19 callgsubr
          hstem
          100 78 vstem
          -97 callsubr
          endchar
        </CharString>
        <CharString name="dotlessiogonek">
          224 callgsubr
          hstemhm
          40 70 -10 78 hintmask 11101000
          225 317 callgsubr
          hintmask 11110000
          129 callsubr
          37 40 38 52 21 hvcurveto
          hintmask 11101000
          51 callsubr
          hintmask 11110000
          -52 -22 -49 -42 -51 155 callsubr
          hintmask 11101000
          319 callgsubr
          endchar
        </CharString>
        <CharString name="dotlessj">
          -235 -173 -21 617 -20 hstem
          92 77 vstem
          158 423 rmoveto
          -41 -1 -53 -6 -42 -13 rrcurveto
          -74 callsubr
          endchar
        </CharString>
        <CharString name="e">
          54 callgsubr
          hstem
          41 82 187 77 vstem
          -102 callgsubr
          endchar
        </CharString>
        <CharString name="eacute">
          54 callgsubr
          215 -20 hstem
          41 82 187 77 vstem
          -102 callgsubr
          -34 74 rmoveto
          -80 callsubr
        </CharString>
        <CharString name="ebreve">
          54 callgsubr
          46 62 hstem
          41 82 187 77 vstem
          -102 callgsubr
          136 198 -74 callgsubr
        </CharString>
        <CharString name="ecaron">
          54 callgsubr
          217 147 callsubr
          41 82 187 77 hintmask 11101110
          -102 callgsubr
          114 259 rmoveto
          hintmask 11110110
          -20 callsubr
          hintmask 11101110
          230 callsubr
        </CharString>
        <CharString name="ecircumflex">
          54 callgsubr
          hstem
          41 82 187 77 vstem
          -102 callgsubr
          -107 74 -68 callsubr
        </CharString>
        <CharString name="edieresis">
          54 callgsubr
          59 96 hstemhm
          41 82 -26 93 69 93 -42 77 hintmask 11101001
          -102 callgsubr
          hintmask 11110110
          -34 148 -89 callgsubr
        </CharString>
        <CharString name="edotaccent">
          54 callgsubr
          58 104 hstemhm
          41 82 55 108 24 77 hintmask 11101010
          -102 callgsubr
          hintmask 11111110
          62 151 -70 callgsubr
          endchar
        </CharString>
        <CharString name="egrave">
          54 callgsubr
          215 -20 hstem
          41 82 187 77 vstem
          -102 callgsubr
          -56 256 -35 callgsubr
        </CharString>
        <CharString name="eight">
          -14 -9 42 436 40 hstemhm
          44 346 callgsubr
          44 -43 callgsubr
        </CharString>
        <CharString name="eight.tf">
          -40 -9 42 436 40 hstemhm
          31 346 callgsubr
          31 -43 callgsubr
        </CharString>
        <CharString name="ellipsis">
          156 -8 105 hstem
          52 107 104 107 104 108 vstem
          370 45 rmoveto
          -3 callgsubr
          212 hmoveto
          31 -22 21 -32 -32 -22 -21 96 callgsubr
          -423 hmoveto
          -3 callgsubr
          endchar
        </CharString>
        <CharString name="ellipsis.gujr">
          205 -8 97 hstem
          80 99 113 99 112 99 vstem
          391 41 rmoveto
          28 -21 20 -29 -30 -19 -20 -28 -29 19 -20 30 29 21 20 29 vhcurveto
          211 hmoveto
          28 -20 20 -30 -30 -19 -20 -28 -29 19 -20 30 30 20 20 29 vhcurveto
          -423 hmoveto
          214 callsubr
        </CharString>
        <CharString name="emacron">
          54 callgsubr
          70 53 hstemhm
          41 82 -19 242 -36 77 hintmask 11111010
          -102 callgsubr
          hintmask 11110100
          -120 111 139 callsubr
        </CharString>
        <CharString name="emdash">
          333 189 55 hstem
          59 693 vstem
          59 189 rmoveto
          693 55 -693 hlineto
          endchar
        </CharString>
        <CharString name="emdash.gujr">
          333 218 63 hstem
          59 692 296 callsubr
          670 hlineto
          16 -57 -6 -6 rlineto
          -670 hlineto
          endchar
        </CharString>
        <CharString name="endash">
          64 188 56 hstem
          59 423 vstem
          59 188 rmoveto
          423 56 -423 hlineto
          endchar
        </CharString>
        <CharString name="endash.gujr">
          64 218 63 hstem
          59 423 296 callsubr
          401 hlineto
          16 -57 -7 -6 rlineto
          -400 hlineto
          endchar
        </CharString>
        <CharString name="eng">
          35 -183 40 -17 -21 181 -60 callgsubr
          328.5 54 hstemhm
          100 78 188 79 hintmask 01111100
          445 5 rmoveto
          259 vlineto
          102 -29 57 -98 -49 -53 -15 -43 -41 vhcurveto
          -5 45 -14 13 -38 -1 -48 -7 -40 -12 -75 callgsubr
          202 37 vlineto
          -41 7 rlineto
          -12 3 -7 7 13 203 callsubr
          38 12 36 hhcurveto
          66 16 -38 -81 hvcurveto
          -229 vlineto
          hintmask 10111100
          -72 -7 -39 -19 -21 vhcurveto
          -20 -21 -33 -6 -26 -5 rrcurveto
          hintmask 01111100
          3 -38 rlineto
          -1 14 16 -1 14 hhcurveto
          99 38 66 122 hvcurveto
          endchar
        </CharString>
        <CharString name="enspace">
          -53 endchar
        </CharString>
        <CharString name="eogonek">
          -48 -188 49 131 54 185 38 113 43 hstem
          41 82 56 69 62 77 vstem
          179 -118 rmoveto
          -47 41 -22 49 -1 vhcurveto
          319 callgsubr
          -14 33 rlineto
          -8 -16 -19 -4 -15 336 callgsubr
          40 31 35 59 46 hvcurveto
          24 18 16 22 8 25 -26 15 rcurveline
          -37 -24 -43 -22 -47 hhcurveto
          -71 -52 43 131 hvcurveto
          4 0 4 3 vvcurveto
          260 hlineto
          3 16 1 21 14 vvcurveto
          94 -62 49 -90 -118 -76 -83 -139 -123 59 -88 124 11 12 1 1 10 vhcurveto
          -2 vlineto
          -35 -22 -43 -37 -51 vvcurveto
          45 500 rmoveto
          55 31 -37 -58 -7 -1 -4 -1 -7 hvcurveto
          -182 hlineto
          80 10 36 33 52 hhcurveto
          endchar
        </CharString>
        <CharString name="equal">
          -25 125 55 87 55 hstem
          59 333 vstem
          392 267 rmoveto
          55 -333 -55 vlineto
          333 -142 rmoveto
          55 -333 -55 vlineto
          endchar
        </CharString>
        <CharString name="estimated">
          41 -8 42 194 43 184 40 hstem
          46 106 224 99 vstem
          450 42 rmoveto
          -20 33 rlineto
          -25 -35 -46 -16 -52 hhcurveto
          -61 -56 23 35 -28 hvcurveto
          136 319 vlineto
          2 17 2 21 23 vvcurveto
          139 -1 -85 67 -115 hhcurveto
          -145 -83 -107 -142 -157 103 -97 143 57 57 16 34 44 hvcurveto
          -298 362 rmoveto
          30 23 43 21 53 hhcurveto
          45 40 -13 -24 20 hvcurveto
          -147 -224 vlineto
          endchar
        </CharString>
        <CharString name="eth">
          -12 -8 41 325 50 241 -20 24 -20 hstemhm
          41 85 207 84 hintmask 11011100
          417 234 rmoveto
          hintmask 11101100
          118 -47 116 -96 84 vhcurveto
          86 56 -29 41 rlineto
          hintmask 11011100
          -93 -68 -43 30 -50 25 -57 17 rlinecurve
          -15 -35 44 -21 39 -23 33 -27 rlinecurve
          -101 -67 29 -42 105 78 40 -41 30 -47 18 -55 rlinecurve
          24 -26 -38 11 -35 hhcurveto
          -77 -93 -54 -155 -129 64 -78 114 131 67 98 144 hvcurveto
          -188 -201 rmoveto
          -77 -26 74 91 119 44 41 60 36 34 -14 -26 24 hvcurveto
          6 -29 3 -32 -34 vvcurveto
          -124 -29 -66 -75 vhcurveto
          endchar
        </CharString>
        <CharString name="exclam">
          -238 -8 98 hstemhm
          69 101 -95 89 hintmask 10100000
          75 563 rmoveto
          22 -394 rlineto
          46 hlineto
          21 394 rlineto
          60 -89 vlineto
          hintmask 11000000
          95 -582 rmoveto
          29 -20 20 -31 -29 -21 -20 -29 -28 21 -21 29 31 20 21 28 vhcurveto
          endchar
        </CharString>
        <CharString name="exclam.gujr">
          -93 -8 91 425 -20 hstemhm
          145 94 -89 83 hintmask 11010000
          214 146 rmoveto
          19 307 rlineto
          55 -83 -55 vlineto
          19 -307 rlineto
          hintmask 11100000
          70 -109 rmoveto
          28 -19 18 -28 -28 -19 -18 -28 -26 19 -19 28 28 19 19 26 vhcurveto
          endchar
        </CharString>
        <CharString name="exclamdown">
          -250 328 97 hstemhm
          63 101 -94 88 hintmask 10100000
          158 -205 rmoveto
          60 vlineto
          -21 394 rlineto
          -47 hlineto
          -20 -394 rlineto
          -60 vlineto
          hintmask 11000000
          94 582 rmoveto
          28 -20 20 -30 -30 -21 -20 -28 -30 21 -19 30 30 20 19 30 vhcurveto
          endchar
        </CharString>
        <CharString name="f">
          -154 5 callgsubr
          170 70 hstem
          101 78 vstem
          102 455 rmoveto
          -42 30 callsubr
          239 37 vlineto
          -77 -46 callgsubr
          123 50 -123 73 vlineto
          73 27 23 63 1 vhcurveto
          23 33 -3 -6 28 hvcurveto
          13 51 rlineto
          17 -29 -32 11 -32 hhcurveto
          -83 -88 -87 -111 hvcurveto
          endchar
        </CharString>
        <CharString name="f_b">
          309 241 callgsubr
          158 70 -10 -20 hstemhm
          101 77 205 77 201 84 hintmask 0110101110000000
          275 hmoveto
          37 vlineto
          -77 -46 callgsubr
          129 50 -129 73 vlineto
          72 39 25 66 29 35 -4 -14 36 vhcurveto
          hintmask 1001011110000000
          -545 vlineto
          -11 26 57 -17 62 hhcurveto
          141 76 91 144 140 -71 58 -91 -54 -40 -21 -30 -29 hvcurveto
          269 vlineto
          hintmask 0110101110000000
          -12 11 -20 -4 -25 -8 -26 -11 rlinecurve
          14 -29 -29 8 -26 hhcurveto
          -89 -102 -85 -111 hvcurveto
          -44 77 callgsubr
          hintmask 1001101110000000
          497 33 rmoveto
          -33 -22 8 10 -19 hvcurveto
          288 vlineto
          20 25 29 12 37 hhcurveto
          69 43 -42 -122 -2 hvcurveto
          -122 -2 -43 -52 -82 hhcurveto
          endchar
        </CharString>
        <CharString name="f_f">
          135 5 callgsubr
          151 70 -51 70 hstemhm
          101 77 214 77 hintmask 11011100
          264 hmoveto
          37 vlineto
          -66 -46 callgsubr
          214 -297 -72 callgsubr
          -43 -1 callsubr
          237 37 vlineto
          -77 -46 callgsubr
          123 50 -123 73 vlineto
          73 27 23 64 1 vhcurveto
          22 32 -3 -6 29 hvcurveto
          13 52 rlineto
          16 -30 -31 11 -32 hhcurveto
          -83 -87 -87 -111 hvcurveto
          -42 -215 vlineto
          hintmask 11101100
          -65 callsubr
          endchar
        </CharString>
        <CharString name="f_f_b">
          600 241 callgsubr
          139 70 -51 70 -10 -20 hstemhm
          101 77 214 77 205 77 201 84 hintmask 0110010111100000
          264 hmoveto
          37 vlineto
          -66 -46 callgsubr
          214 -297 vlineto
          -13 201 callgsubr
          238 37 vlineto
          -77 -46 callgsubr
          128 50 -128 73 vlineto
          72 41 25 63 30 36 -4 -14 35 vhcurveto
          hintmask 1001001111100000
          -545 vlineto
          -11 26 57 207 callgsubr
          268 vlineto
          hintmask 0110010111100000
          -13 11 -20 -4 -24 -8 -25 -11 rlinecurve
          14 -29 -30 8 -26 hhcurveto
          -87 -104 -85 -111 hvcurveto
          -44 -215 vlineto
          hintmask 0110100111100000
          -65 callsubr
          hintmask 1001010111100000
          787 33 244 callsubr
          69 42 -42 -122 -1 hvcurveto
          -122 -2 -43 -52 -83 hhcurveto
          endchar
        </CharString>
        <CharString name="f_f_h">
          636 5 callgsubr
          -44 54 141 277 callgsubr
          189 78 hintmask 1100101111000000
          -52 callgsubr
          -498 -72 callgsubr
          -43 -1 callsubr
          199 37 vlineto
          -40 7 rlineto
          -12 3 -7 6 14 vvcurveto
          hintmask 1010011111000000
          188 callgsubr
          39 12 38 hhcurveto
          63 17 109 callgsubr
          -8 -5 -12 -3 vhcurveto
          -40 -1 callsubr
          202 37 vlineto
          -45 7 187 callsubr
          197 vlineto
          101 -28 58 -97 -51 -51 -14 -41 -40 vhcurveto
          274 vlineto
          hintmask 1100101111000000
          64 callgsubr
          hintmask 1101001111000000
          54 vlineto
          73 28 23 63 1 vhcurveto
          22 31 -4 -7 27 hvcurveto
          17 51 rlineto
          18 -30 -31 12 -32 hhcurveto
          -83 -87 -84 -111 -1 hvcurveto
          -26 vlineto
          -73 -10 rlineto
          hintmask 1010101111000000
          -47 callsubr
          vlineto
          endchar
        </CharString>
        <CharString name="f_f_k">
          605 5 callgsubr
          -35 35 151 277 callgsubr
          91 198 hintmask 1100101110000000
          -52 callgsubr
          -497 263 callgsubr
          -43 -1 callsubr
          204 37 vlineto
          -44 7 rlineto
          -13 2 -7 7 14 vvcurveto
          64 vlineto
          69 72 11 -18 11 -21 13 -23 rlinecurve
          41 -78 rlineto
          -37 20 14 -26 20 hhcurveto
          110 37 hlineto
          -45 10 -11 3 -9 6 -8 14 rlinecurve
          -76 126 -14 25 -11 17 -14 19 rlinecurve
          hintmask 1010101111000000
          94 97 9 9 8 3 13 2 rlinecurve
          44 10 rlineto
          hintmask 1100101111000000
          35 -198 vlineto
          hintmask 1010011111000000
          -35 vlineto
          74 -12 -165 -179 rlineto
          455 vlineto
          hintmask 1100101110000000
          64 callgsubr
          hintmask 1101001110000000
          -65 callsubr
          endchar
        </CharString>
        <CharString name="f_f_l">
          376 5 callgsubr
          151 277 callgsubr
          hintmask 11010111
          -52 callgsubr
          -498 -72 callgsubr
          -43 -1 callsubr
          213 36 vlineto
          -53 8 rlineto
          -13 2 -7 7 14 vvcurveto
          hintmask 11001111
          575 vlineto
          hintmask 11010111
          64 callgsubr
          hintmask 11100111
          -65 callsubr
          endchar
        </CharString>
        <CharString name="f_h">
          345 5 callgsubr
          -44 54 160 315 callsubr
          215 78 188 78 hintmask 11010111
          25 callgsubr
          -498 -72 callgsubr
          -43 -1 callsubr
          199 37 vlineto
          -39 7 rlineto
          -13 339 callgsubr
          hintmask 10101111
          188 callgsubr
          38 12 38 hhcurveto
          63 17 109 callgsubr
          -8 -5 -12 -3 vhcurveto
          -39 -1 callsubr
          201 37 vlineto
          -44 7 rlineto
          -13 2 -7 7 14 vvcurveto
          197 vlineto
          101 -28 58 -97 -50 -51 -14 -40 -40 vhcurveto
          273 vlineto
          hintmask 11010111
          -14 12 -20 -4 -25 -9 -25 -10 rlinecurve
          14 -31 151 callgsubr
          vlineto
          -73 -10 rlineto
          hintmask 10110111
          -47 callsubr
          vlineto
          endchar
        </CharString>
        <CharString name="f_k">
          314 5 callgsubr
          -35 35 170 315 callsubr
          215 78 91 198 hintmask 11010110
          25 callgsubr
          -497 263 callgsubr
          -43 -1 callsubr
          204 37 vlineto
          -44 7 205 callgsubr
          7 14 vvcurveto
          65 vlineto
          69 71 11 -18 10 -21 13 -23 rlinecurve
          41 -78 rlineto
          -37 20 14 -26 20 hhcurveto
          110 37 hlineto
          -45 10 -11 3 -9 6 -8 14 rlinecurve
          -76 126 -14 25 -10 17 -15 19 rlinecurve
          hintmask 10110111
          94 97 9 9 8 3 14 2 rlinecurve
          44 10 rlineto
          hintmask 11010111
          35 -198 vlineto
          hintmask 10101111
          -35 vlineto
          73 -12 -164 -178 rlineto
          454 vlineto
          hintmask 11010110
          63 callgsubr
        </CharString>
        <CharString name="f_l">
          85 5 callgsubr
          170 315 callsubr
          215 78 hintmask 11101100
          25 callgsubr
          -498 -72 callgsubr
          -43 -1 callsubr
          213 36 vlineto
          -53 8 205 callgsubr
          7 14 vvcurveto
          hintmask 11011100
          575 vlineto
          hintmask 11101100
          63 callgsubr
        </CharString>
        <CharString name="five">
          -51 -9 53 225 53 116 62 hstem
          77.5 54 162.5 88 vstem
          58 15 callgsubr
        </CharString>
        <CharString name="five.tf">
          -40 -9 53 225 53 116 62 hstem
          82.5 54 162.5 88 vstem
          63 15 callgsubr
        </CharString>
        <CharString name="four">
          -36 182 callsubr
          258 77 hintmask 01110000
          40 39 callgsubr
        </CharString>
        <CharString name="four.dnom">
          -103 0 105 -39 39 233 13 hstemhm
          212 59 hintmask 01110000
          51 66 rmoveto
          161 hlineto
          hintmask 10110000
          -66 59 vlineto
          hintmask 01110000
          66 62 48 vlineto
          -52 callsubr
        </CharString>
        <CharString name="four.numr">
          -103 294 39 233 13 hstem
          216 59 vstem
          55 294 rmoveto
          161 -66 59 66 62 48 hlineto
          -52 callsubr
        </CharString>
        <CharString name="four.tf">
          -40 182 callsubr
          255 77 hintmask 01110000
          37 39 callgsubr
        </CharString>
        <CharString name="foursuperior">
          -110 294 39 233 13 hstem
          212 59 vstem
          51 294 rmoveto
          161 -66 59 66 62 48 hlineto
          -52 callsubr
        </CharString>
        <CharString name="fraction">
          138 callsubr
        </CharString>
        <CharString name="g">
          -80 callgsubr
          endchar
        </CharString>
        <CharString name="gbreve">
          8 callgsubr
          73 62 217 callsubr
          173 79 -24 76 hintmask 1101010100101000
          -38 callsubr
          hintmask 1101100101010000
          91 callgsubr
          hintmask 1101001101010000
          59 vlineto
          hintmask 1101010101010000
          -42 callsubr
          hintmask 1101010100110000
          89 callsubr
          hintmask 1101010110010000
          88 callsubr
          hintmask 1101010100101000
          108 callsubr
          hintmask 1011010110010000
          129 callgsubr
          hintmask 1101010101001000
          77 callsubr
          hintmask 1101010100101000
          -67 -56 -32 -82 vhcurveto
          hintmask 1101010101010000
          -6 callgsubr
          227 299 -74 callgsubr
        </CharString>
        <CharString name="gcircumflex">
          -80 callgsubr
          -16 175 -68 callsubr
        </CharString>
        <CharString name="gcommaaccent">
          8 callgsubr
          253 -20 217 callsubr
          38 61 74 79 -24 76 hintmask 1101010100110100
          -38 callsubr
          hintmask 1101100101011000
          91 callgsubr
          hintmask 1101001101011000
          59 vlineto
          hintmask 1101010101011000
          -42 callsubr
          hintmask 1101010100111000
          89 callsubr
          hintmask 1101010110011000
          88 callsubr
          hintmask 1101010100110100
          108 callsubr
          hintmask 1011010110011000
          129 callgsubr
          hintmask 1101010101010100
          77 callsubr
          hintmask 1101010100110100
          -67 -56 -32 -82 vhcurveto
          hintmask 1101010101011000
          -6 callgsubr
          41 263 94 callgsubr
        </CharString>
        <CharString name="gdotaccent">
          8 callgsubr
          85 104 217 callsubr
          42 108 23 79 -24 76 hintmask 1101010000100100
          -38 callsubr
          hintmask 1101100001001000
          91 callgsubr
          hintmask 1101001001001000
          59 vlineto
          hintmask 1101010001001000
          -42 callsubr
          hintmask 1101010000101000
          89 callsubr
          hintmask 1101010010001000
          88 callsubr
          hintmask 1101010000100100
          108 callsubr
          hintmask 1011010010001000
          129 callgsubr
          hintmask 1101010001000100
          77 callsubr
          hintmask 1101010000100100
          -67 -56 -32 -82 vhcurveto
          hintmask 1101010001001000
          -6 callgsubr
          hintmask 1101010101011000
          153 252 -70 callgsubr
          endchar
        </CharString>
        <CharString name="germandbls">
          75 -10 39 -29 -60 callgsubr
          324 48.5 183 57 hstemhm
          100 78 85 74 34 81 -1 75 hintmask 10111101
          526 115 rmoveto
          65 -44 32 -60 31 vhcurveto
          -49 26 -36 17 38 vvcurveto
          40 36 30 62 14 vhcurveto
          hintmask 01111110
          10 26 7 37 31 vvcurveto
          90 -62 61 -87 -106 -97 -90 -123 vhcurveto
          -27 vlineto
          -71 -10 rlineto
          -34 vlineto
          71 -9 rlineto
          -294 vlineto
          -13 -7 -7 -12 -2 vhcurveto
          -45 -1 callsubr
          142 461 vlineto
          100 36 35 59 67 31 -47 -62 -17 -2 -25 -8 -22 vhcurveto
          -49 -20 -49 -37 -63 vvcurveto
          -62 47 -28 50 -27 vhcurveto
          hintmask 10111101
          54 -29 37 -20 -44 vvcurveto
          -40 -30 -24 -43 -30 -22 11 9 -12 vhcurveto
          -10 7 -3 6 -5 17 -14 52 rcurveline
          -42 hlineto
          -2 -18 -2 -20 -22 vvcurveto
          -16 1 -16 2 -17 vhcurveto
          -14 28 46 -18 55 hhcurveto
          90 68 45 80 hvcurveto
          endchar
        </CharString>
        <CharString name="grave">
          -113 640 -20 hstem
          72 181 vstem
          125 640 -35 callgsubr
        </CharString>
        <CharString name="gravecomb">
          640 -20 hstem
          -110 181 vstem
          -57 640 -35 callgsubr
        </CharString>
        <CharString name="gravecomb.case">
          637 -20 hstem
          -131 209 vstem
          -87 758 -8 callsubr
          endchar
        </CharString>
        <CharString name="greater">
          -58 48 350 hstem
          51 333 vstem
          384 201 rmoveto
          45 vlineto
          -308 152 -25 -53 262 -122 -262 -122 25 -53 rlineto
          endchar
        </CharString>
        <CharString name="greaterequal">
          -39 0 54 hstem
          57 332 vstem
          389 253 rmoveto
          44 vlineto
          -308 143 -23 -54 262 -112 -262 -111 23 -53 rlineto
          301 -110 313 callsubr
        </CharString>
        <CharString name="guillemotleft">
          36 412 -20 hstem
          39 436 vstem
          244 197 rmoveto
          203 34 callsubr
          -203 -164 rlineto
          -205 -51 rmoveto
          203 34 callsubr
          -203 -164 rlineto
          endchar
        </CharString>
        <CharString name="guillemotleft.gujr">
          113 66 375 hstem
          79 436 vstem
          283 226 rmoveto
          204 34 callsubr
          -204 -164 rlineto
          -204 -51 rmoveto
          204 34 callsubr
          -204 -164 rlineto
          endchar
        </CharString>
        <CharString name="guillemotright">
          29 412 -20 hstem
          38 429 vstem
          467 191 callsubr
          5 160 rmoveto
          51 vlineto
          -203 235 callsubr
        </CharString>
        <CharString name="guillemotright.gujr">
          106 66 375 hstem
          74 430 vstem
          504 190 callgsubr
          6 160 rmoveto
          51 vlineto
          -204 235 callsubr
        </CharString>
        <CharString name="guilsinglleft">
          -169 412 -20 hstem
          39 231 vstem
          39 197 rmoveto
          203 34 callsubr
          -203 -164 rlineto
          endchar
        </CharString>
        <CharString name="guilsinglleft.gujr">
          -92 66 375 hstem
          76 232 vstem
          76 226 rmoveto
          204 34 callsubr
          -204 -164 rlineto
          endchar
        </CharString>
        <CharString name="guilsinglright">
          -169 412 -20 hstem
          38 231 vstem
          269 191 callsubr
          endchar
        </CharString>
        <CharString name="guilsinglright.gujr">
          -92 66 375 hstem
          77 232 vstem
          309 190 callgsubr
          endchar
        </CharString>
        <CharString name="h">
          -58 callgsubr
          endchar
        </CharString>
        <CharString name="hbar">
          42 0 -60 callgsubr
          318.5 54 68 42 119 301 callgsubr
          90 78 189 77 hintmask 11101110
          25 481 rmoveto
          65 -415 hlineto
          -13 201 callgsubr
          201 37 vlineto
          -39 7 rlineto
          -14 339 callgsubr
          257 vlineto
          24 32 38 11 38 hhcurveto
          64 17 -39 -80 hvcurveto
          -173 vlineto
          -15 -9 -5 -11 -3 vhcurveto
          -39 -1 callsubr
          201 37 vlineto
          -45 344 callgsubr
          -8 7 14 vvcurveto
          187 vlineto
          101 -28 58 -96 -51 -51 -14 -40 -40 vhcurveto
          122 123 42 -123 vlineto
          hintmask 11110110
          119 vlineto
          hintmask 11101110
          -12 12 -41 -1 -57 -6 340 callgsubr
          53 -8 rlineto
          13 -2 7 -7 -13 vvcurveto
          -48 -65 vlineto
          endchar
        </CharString>
        <CharString name="hcircumflex">
          -58 callgsubr
          6 679 -67 callgsubr
          147 callgsubr
        </CharString>
        <CharString name="hungarumlaut">
          -113 648 219 callsubr
          78 295 hintmask 01100000
          104 468 59 callgsubr
          hintmask 10100000
          100 callgsubr
        </CharString>
        <CharString name="hyphen">
          -86 189 55 hstem
          59 273 vstem
          59 189 rmoveto
          273 55 -273 hlineto
          endchar
        </CharString>
        <CharString name="hyphen.gujr">
          -86 218 63 hstem
          59 273 296 callsubr
          251 hlineto
          16 -57 -7 -6 rlineto
          -250 hlineto
          endchar
        </CharString>
</ttFont>
